{"glyphs":{"0":{"ha":1360,"x_min":-10,"x_max":1318,"o":"m 682 1579 l 663 1582 l 636 1582 l 542 1578 l 482 1568 l 450 1553 l 411 1531 l 351 1493 l 331 1476 q 272 1410 296 1449 l 200 1290 l 160 1214 l 146 1174 l 132 1121 l 118 1064 l 106 1008 l 90 953 l 78 922 l 50 889 l 4 843 q -10 801 -10 814 q 1 775 -7 783 l 25 760 l 54 738 q 93 675 82 713 l 104 638 l 157 435 q 168 408 165 422 l 175 389 l 201 321 q 235 275 214 296 l 283 206 l 324 156 l 338 143 l 404 83 l 460 46 l 506 21 q 558 3 528 6 l 617 -3 q 668 -11 650 -11 l 710 -12 l 750 -10 l 788 -1 q 868 17 817 0 q 943 51 919 35 l 1011 110 q 1044 144 1035 129 l 1086 206 l 1138 297 l 1164 368 l 1176 408 l 1190 458 l 1215 589 l 1238 644 q 1267 696 1254 675 l 1293 728 q 1318 757 1313 747 l 1313 764 l 1293 783 l 1267 814 l 1240 843 l 1215 906 l 1203 943 l 1190 997 q 1164 1083 1181 1042 l 1138 1151 l 1125 1178 l 1110 1207 l 1061 1290 l 1007 1367 l 981 1396 l 924 1460 l 890 1490 q 838 1522 878 1501 q 761 1561 792 1550 q 692 1579 724 1579 l 682 1579 m 564 1567 q 607 1569 576 1568 l 653 1571 l 692 1568 q 726 1558 715 1567 l 794 1532 q 896 1460 842 1514 q 940 1414 917 1439 q 1014 1321 993 1358 l 1039 1276 l 1067 1221 q 1085 1176 1079 1201 l 1101 1128 l 1122 1053 q 1136 969 1125 1035 l 1144 924 q 1167 894 1154 906 q 1204 856 1200 863 l 1207 846 l 1197 815 l 1131 696 q 1124 658 1124 678 l 1124 615 l 1122 579 l 1115 547 l 1094 472 q 1067 382 1085 435 l 1046 343 l 1014 289 q 978 239 994 257 l 938 197 l 892 158 q 857 136 874 143 q 810 117 836 122 l 767 107 q 615 94 699 92 l 533 97 q 488 107 499 99 l 431 133 l 372 165 q 331 197 336 190 l 303 221 l 276 253 l 240 301 l 228 321 l 174 428 l 160 469 l 149 518 l 124 621 q 113 678 117 636 q 97 736 110 715 l 44 807 q 38 831 38 818 l 44 858 q 124 1013 100 919 l 174 1207 l 200 1258 l 226 1307 l 253 1350 q 300 1413 272 1382 l 350 1468 l 385 1490 l 456 1531 q 521 1556 496 1553 l 547 1561 l 564 1567 m 664 1444 q 638 1457 651 1457 q 592 1442 611 1454 l 571 1428 q 528 1396 543 1410 l 506 1376 l 494 1360 q 461 1289 467 1308 l 442 1219 q 421 1117 440 1215 q 415 1075 419 1101 l 415 1026 l 421 965 q 440 922 426 940 l 454 899 l 474 882 l 494 858 q 506 822 506 839 q 494 783 503 799 l 467 751 l 433 693 l 421 668 l 415 640 l 414 607 q 440 392 410 513 q 484 279 465 300 q 571 238 503 258 l 615 224 l 650 219 q 715 238 682 219 q 785 288 769 267 q 821 363 813 326 l 831 404 q 844 546 849 483 l 839 621 q 825 675 833 656 l 811 710 l 801 736 l 765 781 l 747 807 q 740 821 744 810 q 747 835 743 832 l 781 878 q 804 925 792 892 l 811 943 l 818 958 q 826 1039 826 992 q 818 1154 826 1085 q 803 1251 815 1188 l 789 1300 l 774 1338 q 740 1390 753 1376 q 692 1428 721 1415 l 679 1436 q 664 1444 671 1444 m 638 1360 l 657 1360 l 690 1354 l 726 1346 l 754 1321 q 769 1286 763 1310 l 779 1253 l 792 1215 l 800 1178 l 807 1143 l 808 1107 q 811 1089 810 1103 l 811 1054 q 807 997 811 1014 l 789 926 q 767 875 778 886 l 729 842 q 703 800 703 818 q 714 776 706 783 q 735 767 722 769 l 754 760 l 781 728 l 806 681 q 821 538 821 632 q 807 376 821 410 l 796 350 l 782 322 l 756 286 q 708 250 736 260 q 661 242 685 246 l 629 242 q 539 289 560 235 l 514 407 l 514 550 q 524 621 515 554 q 540 683 532 674 l 560 706 l 576 728 l 590 744 q 597 763 597 756 q 588 790 593 779 q 564 813 582 800 l 539 835 l 528 858 l 514 890 q 500 1017 500 938 q 514 1160 500 1094 l 524 1206 l 539 1281 l 561 1318 q 581 1343 569 1332 l 583 1346 l 606 1358 l 638 1360 m 890 1314 l 879 1322 l 878 1303 l 883 1282 l 911 1228 q 919 1196 919 1213 l 921 1156 l 918 1068 q 922 1017 917 1039 q 965 985 933 985 q 993 1004 989 985 l 997 1039 q 982 1106 997 1071 l 954 1167 l 943 1203 q 931 1228 939 1218 l 904 1274 l 890 1306 l 890 1314 m 350 1297 l 338 1306 q 318 1279 325 1303 l 307 1243 l 294 1217 l 281 1183 q 240 1097 247 1125 l 226 1047 q 219 1024 222 1039 l 214 1006 q 228 981 214 989 q 267 972 247 972 q 304 982 292 975 q 321 1014 321 994 l 317 1036 l 304 1044 q 296 1101 296 1069 q 304 1175 296 1144 l 322 1242 q 350 1297 336 1275 m 950 675 q 939 682 947 678 q 915 540 915 681 l 915 458 l 914 424 l 914 399 l 917 368 l 931 407 l 944 447 l 954 483 l 981 550 l 996 603 q 1003 651 1003 626 q 982 686 1003 686 q 950 675 964 683 m 297 653 q 243 665 285 665 q 221 661 225 665 q 210 640 210 650 l 235 606 q 246 564 238 603 l 261 514 l 297 419 l 331 360 l 335 369 l 331 383 l 311 531 q 297 653 297 636 m 208 821 q 226 863 208 844 q 268 881 244 881 q 310 863 292 881 q 328 821 328 844 q 310 779 328 797 q 268 761 292 761 q 226 779 244 761 q 208 821 208 797 m 903 835 q 921 876 903 858 q 963 894 939 894 q 1004 876 986 894 q 1022 835 1022 858 q 1004 793 1022 811 q 963 775 986 775 q 921 793 939 775 q 903 835 903 811 z "},"1":{"ha":688,"x_min":1,"x_max":624,"o":"m 172 1563 l 178 1557 l 196 1540 l 211 1531 q 233 1521 224 1522 q 263 1529 246 1521 l 281 1544 q 310 1556 292 1554 q 351 1539 321 1556 q 399 1522 382 1522 q 428 1531 411 1522 q 474 1556 464 1556 q 488 1549 481 1556 l 514 1503 q 522 1457 522 1489 l 518 1413 l 514 1360 l 500 1213 l 490 1047 l 490 888 l 501 843 l 514 810 l 556 746 q 531 721 556 746 l 490 681 l 481 635 l 467 558 l 463 507 l 461 456 q 467 382 460 411 l 485 253 l 515 258 q 563 306 532 271 l 585 288 q 621 218 613 244 l 624 190 q 571 40 624 128 l 563 26 l 533 13 q 483 -4 501 -3 q 433 15 465 -4 l 393 40 l 385 44 l 378 46 q 337 22 367 46 q 292 -3 307 -3 q 250 10 265 -3 l 224 40 l 206 47 q 174 19 194 47 q 138 -8 153 -8 q 115 -3 125 -8 l 88 13 q 18 218 18 71 l 18 233 q 17 246 18 238 q 15 260 15 254 l 14 283 q 21 297 14 294 q 38 288 26 297 l 58 265 q 79 251 69 253 q 122 300 99 251 q 147 368 143 342 l 157 431 l 160 508 l 157 660 l 158 683 q 151 729 160 710 l 108 778 q 89 810 96 793 l 83 844 q 75 872 83 863 l 58 874 l 40 874 q 18 879 24 874 q 1 929 1 904 l 6 961 l 13 989 l 63 1179 q 115 1408 78 1246 l 144 1529 l 172 1563 m 175 1536 q 158 1507 165 1524 l 146 1461 q 99 1236 132 1379 q 35 982 51 1035 l 35 960 l 111 960 q 128 974 124 960 l 129 997 l 164 1204 l 175 1303 q 188 1346 179 1339 q 196 1328 194 1335 l 199 1289 l 199 1172 l 197 1124 q 189 1064 196 1096 l 176 967 q 164 879 176 919 l 140 824 l 140 803 l 164 753 q 171 715 165 743 l 175 689 l 179 618 q 176 511 181 590 q 168 408 174 472 q 111 232 168 268 l 89 232 l 58 240 q 49 218 47 240 l 46 178 q 49 146 44 163 l 53 128 q 63 108 53 125 l 76 86 q 103 78 85 78 q 169 117 153 78 q 182 154 174 138 l 193 185 l 203 219 q 217 258 207 243 q 246 306 226 286 q 281 318 265 318 q 340 253 319 318 l 363 182 l 379 151 q 401 117 396 119 l 435 86 q 464 75 449 76 q 497 89 483 75 l 519 117 l 533 151 l 539 190 l 539 208 l 536 222 l 524 218 l 501 203 l 488 203 q 440 233 471 207 l 428 253 q 400 336 415 272 q 392 467 392 393 q 428 721 392 656 l 440 754 l 457 782 q 465 815 465 796 q 457 846 465 829 l 440 871 q 428 904 428 889 l 422 957 l 421 1040 q 425 1151 421 1078 q 429 1257 429 1224 q 436 1356 429 1300 q 442 1382 436 1358 q 450 1426 447 1406 l 456 1471 q 431 1519 456 1519 l 407 1510 l 386 1479 l 372 1431 l 363 1388 q 290 1328 342 1328 q 235 1374 258 1328 l 225 1426 l 217 1476 l 211 1493 q 201 1514 207 1507 q 175 1536 194 1521 m 288 1524 l 263 1510 q 251 1485 256 1503 l 250 1449 q 263 1383 249 1400 q 300 1365 278 1365 q 335 1440 335 1365 q 322 1515 335 1494 q 304 1522 319 1521 l 288 1524 m 239 836 q 257 794 239 813 q 299 776 275 776 q 340 794 322 776 q 358 836 358 813 q 340 878 358 860 q 299 896 322 896 q 257 878 275 896 q 239 836 239 860 m 296 967 l 251 1267 q 303 1276 265 1276 q 339 1260 339 1276 l 326 1167 q 296 967 313 1065 m 278 692 l 233 392 q 285 382 247 382 q 321 399 321 382 l 308 492 q 278 692 294 593 m 246 272 l 231 260 q 218 200 218 238 q 231 133 218 164 q 263 93 239 113 l 283 89 q 306 97 296 89 q 325 124 315 101 q 335 169 335 146 q 328 221 335 200 l 318 250 q 272 279 304 279 q 246 272 260 279 z "},"2":{"ha":1076,"x_min":15,"x_max":1036,"o":"m 453 1572 l 433 1572 l 399 1571 l 369 1567 q 264 1533 308 1558 q 176 1465 229 1514 l 132 1417 l 111 1386 l 101 1364 l 76 1313 q 60 1249 67 1285 l 53 1213 q 47 1175 49 1201 l 46 1146 l 46 1118 l 60 1036 l 76 986 l 88 961 l 101 942 l 175 864 q 228 835 190 847 q 274 824 258 824 l 289 825 l 314 835 l 371 874 q 418 921 388 885 q 431 942 424 924 q 442 963 438 960 q 456 967 446 965 q 494 932 475 967 l 510 906 l 514 878 l 510 849 l 486 794 l 458 743 l 418 701 l 369 649 l 321 601 l 307 592 l 186 485 q 136 431 165 465 l 101 378 l 72 335 q 46 263 63 319 l 25 189 q 15 139 15 165 q 26 97 18 111 l 53 54 l 82 18 q 121 1 101 1 q 156 13 142 4 q 226 46 183 36 q 278 56 253 50 q 392 65 314 64 l 561 69 l 683 65 l 765 56 l 893 26 l 931 11 q 972 0 951 3 l 1015 -6 q 1036 7 1036 -4 l 1029 32 l 1015 63 l 985 128 q 960 161 976 139 l 954 182 l 954 200 q 972 226 954 218 q 1004 281 1004 243 q 994 315 1004 299 l 979 342 q 990 396 975 363 l 1015 447 l 1029 482 l 1035 504 q 1015 549 1032 528 l 999 569 l 979 592 l 947 619 l 925 635 q 910 650 915 642 l 906 669 q 932 717 908 693 l 972 749 q 1017 789 1017 783 l 1007 807 q 974 919 974 847 l 958 1068 l 949 1114 l 933 1169 l 910 1233 l 886 1281 l 844 1343 l 807 1393 l 769 1436 q 728 1469 757 1451 q 685 1497 714 1481 l 643 1521 q 610 1536 632 1529 l 568 1550 q 525 1561 535 1561 l 482 1568 l 453 1572 m 344 1551 l 364 1554 l 397 1554 q 699 1469 572 1554 l 733 1438 q 776 1385 754 1419 l 796 1356 l 813 1328 l 831 1293 l 844 1257 l 868 1199 q 888 1079 883 1146 q 893 975 893 1044 l 893 942 q 917 899 900 918 q 919 883 919 888 l 922 868 q 917 851 919 854 l 879 828 q 856 811 865 821 l 839 797 l 828 786 l 814 769 q 790 740 800 756 l 776 725 l 765 710 l 740 678 l 728 664 q 713 649 721 653 l 607 563 l 558 528 l 510 499 l 447 469 l 388 440 l 361 424 l 332 407 l 304 393 l 265 378 l 217 363 l 192 333 l 218 342 l 247 356 l 292 374 l 315 385 l 343 400 l 375 414 l 432 433 q 496 447 463 444 l 632 461 q 717 475 700 468 l 756 488 l 804 504 q 856 547 821 514 q 929 599 918 607 l 942 567 l 942 519 l 917 456 l 917 433 q 865 414 893 414 l 814 414 l 783 411 q 763 401 768 407 l 749 382 l 740 363 q 729 317 729 336 q 794 235 729 269 l 879 206 l 899 190 l 917 163 l 924 121 l 846 125 l 751 136 l 594 169 q 472 193 581 174 l 415 193 q 288 184 343 193 q 157 154 233 175 q 107 135 136 144 q 83 125 93 125 q 64 135 74 126 l 46 163 l 46 190 l 67 268 l 94 333 l 118 375 l 149 414 l 174 447 l 200 476 l 217 492 l 247 521 l 301 567 l 335 597 l 369 633 l 454 718 l 476 744 l 504 782 q 526 844 514 794 l 536 882 q 539 911 539 893 q 526 963 539 931 q 521 979 526 967 l 521 1026 q 553 1064 525 1035 q 582 1106 579 1089 l 594 1167 l 599 1219 q 582 1306 601 1261 l 553 1353 q 503 1399 535 1383 q 451 1425 476 1417 q 390 1439 419 1439 q 344 1425 363 1439 l 333 1417 l 321 1407 l 300 1383 l 253 1326 l 238 1297 l 229 1268 l 226 1244 q 239 1229 226 1229 l 268 1232 q 289 1228 283 1232 q 356 1122 347 1186 l 356 1026 q 242 921 328 940 l 217 921 q 203 928 211 922 l 178 932 q 149 949 157 940 l 129 961 l 115 972 l 93 1017 l 81 1051 l 67 1118 l 65 1156 l 67 1185 l 71 1218 l 82 1275 l 94 1326 l 129 1388 l 167 1440 q 204 1478 185 1460 q 222 1493 213 1485 q 289 1535 257 1521 l 308 1543 l 344 1551 m 656 1378 l 647 1379 l 656 1353 l 663 1326 q 674 1285 668 1314 q 683 1235 681 1257 l 688 1193 l 685 1163 l 675 1129 q 674 1106 671 1117 q 707 1084 679 1094 q 757 1074 735 1074 q 771 1078 767 1074 q 781 1101 781 1088 l 774 1126 l 763 1153 l 731 1243 q 681 1342 710 1301 l 658 1372 l 656 1378 m 411 1349 l 443 1353 l 472 1349 q 558 1265 544 1310 q 574 1182 574 1231 q 558 1099 574 1138 l 510 1042 q 492 1036 500 1036 l 476 1035 q 443 1065 449 1039 l 426 1114 l 367 1214 l 338 1249 l 340 1267 l 351 1289 l 375 1319 l 411 1349 m 625 819 q 610 831 621 824 q 599 822 603 831 l 588 799 l 560 729 q 533 678 549 701 l 510 642 l 485 619 l 461 604 l 460 592 l 460 567 q 531 616 469 564 q 606 685 593 668 l 656 743 q 665 768 665 754 q 625 819 665 790 m 846 642 q 879 614 879 642 q 868 575 876 593 l 846 549 l 825 528 l 801 514 l 765 499 l 735 499 q 726 515 726 507 q 735 535 726 526 l 794 599 l 819 622 q 846 642 833 636 m 625 363 l 356 304 q 607 274 478 304 l 626 279 q 647 322 647 294 q 625 363 647 354 m 650 924 q 668 965 650 947 q 710 983 686 983 q 751 965 733 983 q 769 924 769 947 q 751 882 769 900 q 710 864 733 864 q 668 882 686 864 q 650 924 650 900 m 747 329 q 769 381 747 358 q 821 403 792 403 q 872 381 850 403 q 894 329 894 358 q 872 278 894 300 q 821 256 850 256 q 769 278 792 256 q 747 329 747 300 m 268 1072 q 225 1038 263 1038 q 178 1057 196 1038 q 118 1154 118 1119 q 154 1243 125 1204 l 169 1243 l 160 1226 q 150 1188 150 1210 l 150 1179 l 153 1160 l 160 1138 q 174 1131 167 1131 l 190 1135 l 210 1139 l 226 1135 q 271 1089 271 1124 l 268 1072 z "},"3":{"ha":1092,"x_min":18,"x_max":1049,"o":"m 540 1569 q 508 1575 525 1575 l 481 1575 q 324 1553 381 1575 l 235 1518 q 154 1460 183 1497 l 115 1418 q 100 1390 101 1400 q 79 1343 92 1375 l 65 1290 l 61 1258 l 61 1236 l 64 1183 q 85 1075 68 1108 q 196 963 111 1022 l 229 946 l 256 935 l 293 914 q 324 885 324 897 l 324 853 l 314 822 l 310 807 l 324 788 l 360 719 q 374 710 365 710 q 426 726 385 710 l 481 726 l 501 715 q 533 693 531 700 q 560 615 560 664 q 553 594 557 599 l 510 561 q 478 519 478 536 q 500 489 481 499 l 525 476 q 553 461 536 471 l 563 453 q 574 425 574 443 l 578 393 l 574 374 l 561 350 l 553 333 l 524 297 l 510 283 q 486 268 497 271 q 439 254 461 257 l 407 254 l 365 268 l 365 286 l 389 340 l 403 360 q 414 383 410 367 l 422 418 l 428 454 q 414 504 428 482 l 389 553 l 363 601 q 331 631 349 619 l 308 644 l 281 658 l 211 681 l 168 693 q 139 685 158 693 l 110 672 q 18 471 18 613 q 46 313 18 399 l 57 278 l 69 254 l 129 158 l 181 111 q 232 71 210 83 l 371 14 q 439 0 404 0 l 510 0 l 599 1 q 668 14 651 8 l 749 43 l 772 54 l 851 114 q 900 178 883 139 l 922 219 q 935 247 932 238 l 956 319 l 969 354 l 989 388 l 1015 425 l 1049 454 q 1035 494 1054 471 l 1003 525 l 872 719 q 843 751 856 744 l 818 779 l 794 807 q 786 822 786 817 q 796 846 786 832 l 818 876 l 856 922 l 868 939 q 896 979 885 956 l 922 1035 l 933 1060 l 946 1085 l 969 1113 l 1003 1126 q 1010 1146 1010 1138 q 992 1180 1010 1164 q 946 1213 974 1196 l 921 1247 l 874 1332 l 843 1375 l 794 1436 q 747 1475 785 1449 q 663 1525 690 1515 q 634 1541 649 1535 q 590 1556 619 1547 l 540 1569 m 400 1561 l 426 1565 l 469 1567 l 485 1567 l 501 1564 l 558 1551 q 626 1531 607 1540 l 711 1486 q 783 1419 764 1458 l 825 1354 l 864 1286 l 882 1253 q 900 1189 904 1211 l 892 1169 l 879 1151 l 858 1121 l 851 1106 l 836 1071 l 825 1044 l 789 986 l 776 971 l 753 946 q 726 929 742 933 l 672 901 q 631 894 658 897 q 592 872 592 885 l 596 858 q 610 849 601 850 l 636 847 l 653 847 l 671 846 l 686 843 l 740 814 q 776 788 767 800 l 836 710 l 857 671 l 879 639 l 894 613 l 914 585 q 943 524 943 556 l 940 508 l 910 468 q 888 413 893 442 l 879 374 l 850 317 l 825 260 l 788 215 q 754 185 771 194 q 651 119 699 135 q 575 100 618 110 l 529 90 q 449 83 496 83 q 342 92 378 83 l 268 108 l 226 119 q 135 192 189 136 q 64 286 86 244 l 40 354 q 25 454 25 399 q 68 604 25 543 q 181 665 111 665 l 226 658 l 254 649 l 281 639 l 307 617 l 324 594 q 331 574 326 592 l 335 556 l 339 529 l 339 499 q 299 389 339 401 l 253 375 q 221 351 221 365 q 232 319 224 333 q 258 269 253 275 l 307 247 q 403 224 358 224 q 486 247 449 224 l 532 276 q 564 326 551 292 q 589 375 585 357 q 600 425 600 397 q 589 476 600 450 l 568 501 q 551 540 551 521 q 564 578 551 556 q 588 651 588 610 q 540 751 588 717 l 510 779 q 479 800 496 792 l 449 806 q 419 808 429 808 l 397 807 l 376 807 l 354 822 l 353 842 l 354 906 l 360 935 q 424 951 376 947 l 486 963 q 532 990 506 972 q 564 1044 546 1001 q 589 1110 589 1071 q 564 1168 589 1143 l 540 1199 q 539 1208 539 1203 q 540 1219 539 1214 l 564 1269 q 571 1292 571 1281 l 564 1317 q 540 1375 554 1343 l 517 1406 l 485 1424 l 446 1436 l 407 1439 l 378 1436 l 339 1422 q 307 1406 329 1419 l 283 1392 l 263 1376 l 249 1361 l 226 1332 l 221 1311 q 233 1299 221 1299 l 250 1301 l 274 1308 l 304 1306 q 324 1293 319 1301 q 358 1165 358 1242 q 347 1106 358 1136 l 324 1064 l 307 1049 l 278 1038 l 226 1017 l 192 1017 l 168 1029 q 133 1049 153 1042 l 110 1076 l 93 1108 l 83 1128 l 81 1138 q 71 1217 68 1164 l 75 1283 l 85 1331 l 111 1393 l 132 1418 l 168 1458 q 231 1504 199 1492 l 363 1553 l 400 1561 m 446 1368 l 490 1364 q 523 1353 517 1361 q 533 1332 529 1346 l 546 1301 l 546 1278 l 533 1247 l 522 1226 l 504 1213 q 493 1194 493 1201 q 504 1178 496 1186 l 531 1142 q 537 1135 532 1140 q 546 1125 542 1129 q 560 1075 560 1107 q 553 1044 557 1054 l 533 1017 l 515 994 l 501 985 l 488 981 q 429 969 450 969 q 407 978 410 969 l 414 1003 q 443 1093 435 1050 l 443 1119 q 410 1215 443 1165 l 364 1283 l 360 1307 l 365 1326 l 389 1353 q 446 1368 417 1368 m 203 531 q 175 542 192 542 q 117 508 125 533 q 99 426 99 472 q 117 346 99 382 l 164 275 l 176 263 l 158 308 l 133 354 l 128 376 l 125 401 q 181 446 126 429 q 215 482 215 457 q 203 531 215 497 m 765 425 q 736 442 757 442 q 697 417 710 442 l 672 306 l 661 286 l 639 254 l 638 236 l 642 232 l 663 247 l 690 274 l 729 307 l 747 339 l 764 369 q 772 396 772 385 q 769 408 769 399 l 765 425 m 679 536 q 697 578 679 560 q 739 596 715 596 q 781 578 763 596 q 799 536 799 560 q 781 494 799 513 q 739 476 763 476 q 697 494 715 476 q 679 536 679 513 m 658 1194 q 676 1236 658 1218 q 718 1254 694 1254 q 760 1236 742 1254 q 778 1194 778 1218 q 760 1153 778 1171 q 718 1135 742 1135 q 676 1153 694 1135 q 658 1194 658 1171 m 249 1149 q 211 1121 242 1121 q 132 1200 157 1121 q 124 1251 121 1233 q 169 1332 142 1314 l 183 1331 l 168 1311 q 153 1260 153 1288 q 158 1226 153 1235 q 171 1218 164 1218 l 199 1222 q 222 1214 211 1222 l 240 1200 q 254 1171 254 1186 l 249 1149 m 726 1081 q 693 1104 718 1104 q 642 1049 657 1100 q 617 988 626 999 q 601 969 613 978 l 586 956 l 574 946 l 569 931 q 574 924 571 926 l 596 933 l 667 978 l 693 1004 l 711 1026 q 728 1063 729 1049 l 726 1081 m 747 657 q 715 635 738 635 q 680 652 690 635 q 660 707 669 669 q 643 756 650 744 l 628 776 l 600 801 l 596 818 q 601 824 596 822 l 611 819 l 622 813 l 638 801 l 656 790 l 694 764 l 717 735 q 750 678 750 701 l 750 669 l 747 657 m 744 1299 q 713 1276 735 1276 q 677 1294 688 1276 q 657 1349 667 1311 q 640 1397 647 1386 l 625 1418 l 597 1443 l 593 1460 q 599 1465 593 1464 l 608 1461 l 619 1454 l 635 1443 l 653 1432 l 692 1406 l 714 1376 q 747 1319 747 1343 l 747 1311 l 744 1299 z "},"4":{"ha":1082,"x_min":17,"x_max":1040,"o":"m 1040 415 l 1035 458 l 1029 497 l 1031 531 l 1033 563 q 1026 584 1035 578 q 979 607 1017 590 q 960 614 975 608 l 936 607 l 868 607 l 856 621 l 844 651 l 844 703 l 860 786 q 868 831 863 800 q 869 850 869 835 l 869 883 l 868 908 q 835 970 860 944 q 786 996 811 996 q 763 989 767 993 l 669 917 l 632 864 l 613 843 q 583 835 596 835 q 556 843 571 835 l 538 853 q 519 871 524 863 l 519 886 l 538 915 l 592 974 q 639 1039 594 978 l 690 1111 l 743 1188 l 793 1268 l 818 1306 l 844 1357 l 889 1456 l 882 1465 l 868 1489 l 856 1526 q 813 1553 838 1553 q 768 1539 797 1551 l 732 1519 q 696 1508 711 1508 q 656 1528 678 1511 q 619 1549 633 1546 q 568 1533 603 1553 q 525 1514 533 1514 l 507 1519 l 469 1549 l 457 1563 q 432 1571 447 1574 q 401 1531 399 1565 l 403 1514 l 404 1485 l 401 1460 l 375 1367 l 354 1297 q 335 1239 350 1282 q 326 1217 332 1231 q 278 1103 308 1183 q 226 989 249 1028 l 208 946 l 97 728 q 17 489 17 569 q 25 439 17 457 l 38 411 l 46 388 l 60 354 q 76 336 67 336 q 96 349 85 336 l 121 378 q 174 408 140 400 q 232 419 199 418 l 313 424 l 385 419 q 439 408 417 418 l 450 394 l 450 306 q 385 267 433 267 q 339 283 356 267 l 319 313 l 311 315 q 301 313 310 315 l 288 279 q 281 250 281 263 q 290 217 282 236 l 304 167 l 326 114 l 350 75 l 364 54 q 401 26 376 36 l 429 10 q 457 1 443 1 q 492 19 478 1 l 506 33 l 519 56 q 544 69 532 69 q 563 63 558 67 l 588 35 l 601 26 l 629 8 q 656 3 638 3 q 693 26 681 3 l 718 63 q 739 71 726 71 q 763 63 753 71 l 800 26 q 829 6 817 11 l 856 0 l 897 -12 q 931 0 904 -12 l 986 26 q 1018 83 1006 46 l 1032 125 q 1039 157 1039 146 l 1033 183 q 1018 210 1028 196 l 983 258 q 954 283 963 288 q 943 264 949 281 q 907 242 931 242 q 865 258 882 242 q 849 297 849 274 q 861 338 849 318 q 885 358 874 358 q 914 361 906 361 l 951 360 l 969 361 l 979 364 l 1024 378 q 1040 415 1040 389 m 656 1463 l 649 1413 q 613 1358 640 1382 q 576 1338 594 1338 q 542 1365 556 1338 q 529 1431 529 1392 q 547 1496 529 1474 l 574 1519 l 599 1524 q 632 1517 614 1524 l 650 1488 l 656 1463 m 786 1479 q 782 1456 786 1464 l 765 1406 l 750 1372 l 717 1306 l 700 1276 l 632 1181 l 596 1125 l 581 1107 l 510 1025 l 450 951 l 401 894 l 369 863 l 351 843 l 263 736 l 233 694 l 183 629 q 206 619 188 619 l 235 622 l 260 628 q 313 631 276 632 l 408 628 q 464 619 444 626 q 467 600 467 610 l 464 557 q 457 532 460 535 l 342 532 l 303 533 l 240 529 q 192 518 225 528 l 156 507 l 100 486 q 67 478 78 478 q 40 515 40 478 q 54 589 40 553 l 78 651 q 115 733 90 679 q 163 831 138 782 l 251 1003 l 396 1394 q 410 1454 397 1399 l 421 1504 l 439 1533 l 464 1526 l 501 1497 q 508 1460 508 1474 l 504 1422 l 500 1389 q 510 1352 501 1369 q 551 1319 519 1335 l 581 1311 q 608 1325 596 1313 l 622 1335 q 642 1351 635 1340 q 660 1381 656 1361 l 679 1422 q 693 1453 690 1440 l 718 1497 q 761 1513 753 1513 q 781 1511 769 1514 l 786 1479 m 963 543 l 960 508 q 947 488 956 496 q 883 481 931 478 l 819 485 q 788 497 790 486 q 779 532 779 517 q 808 565 781 553 q 838 585 835 576 l 954 585 q 963 543 964 569 m 954 181 q 950 165 954 172 l 931 135 l 899 106 q 833 94 868 93 l 808 96 q 788 106 792 100 q 749 154 772 122 l 718 210 l 708 224 l 694 253 l 682 297 q 618 340 660 340 q 546 309 585 340 q 510 244 507 278 l 513 204 q 500 163 514 181 l 482 139 q 464 135 476 135 l 433 129 q 399 126 418 126 q 364 135 371 126 l 319 186 l 306 219 q 300 249 300 233 q 308 261 300 260 l 339 261 l 369 254 l 394 251 q 469 319 447 251 q 497 507 497 385 l 497 540 l 494 694 l 494 828 l 507 835 l 556 819 l 581 807 l 601 792 l 632 739 l 639 701 q 657 681 646 681 l 649 721 l 632 768 l 619 783 l 619 819 q 660 883 629 844 q 713 938 690 921 q 733 953 714 940 l 756 967 l 775 967 q 783 908 783 946 q 772 823 783 883 q 760 711 760 763 q 756 644 760 724 q 754 546 753 565 l 760 413 q 775 319 763 360 l 786 285 l 800 268 l 817 244 l 831 232 l 853 207 q 876 201 863 201 l 896 204 l 911 208 q 950 210 917 210 l 954 181 m 483 736 q 475 688 483 710 l 464 658 q 421 650 451 650 l 374 654 q 344 665 363 658 l 339 681 l 344 703 l 421 792 q 450 806 433 806 q 457 819 454 810 l 474 778 q 483 736 483 760 m 665 206 q 636 139 665 157 q 590 122 614 131 q 556 135 568 122 l 544 158 q 536 221 535 179 l 538 253 l 544 278 q 568 301 553 293 l 601 319 l 625 319 q 650 293 647 307 l 660 253 q 665 232 661 247 l 665 206 m 526 1240 q 511 1249 522 1246 l 494 1254 l 469 1276 q 453 1288 464 1285 q 435 1267 439 1288 l 425 1225 l 397 1135 l 376 1078 q 351 1011 356 1035 l 357 1003 q 449 1125 378 1038 q 526 1240 531 1226 m 646 454 l 636 517 l 619 578 l 613 614 q 596 596 600 607 l 592 569 l 574 511 q 560 436 560 467 q 576 394 560 403 l 601 394 q 646 454 646 394 z "},"5":{"ha":1122,"x_min":43,"x_max":1082,"o":"m 215 1585 l 242 1561 q 298 1533 260 1544 q 371 1522 336 1522 q 411 1529 394 1522 l 438 1547 q 457 1560 450 1560 q 493 1529 467 1560 l 518 1500 l 544 1485 l 569 1471 q 635 1451 604 1451 q 722 1472 682 1451 l 801 1513 l 844 1529 l 872 1543 q 897 1529 881 1540 q 947 1443 947 1479 q 922 1358 947 1410 q 789 1211 879 1269 q 746 1185 775 1200 l 722 1172 l 679 1153 q 560 1125 610 1122 l 539 1126 l 464 1135 q 414 1146 436 1138 l 415 1099 l 414 1071 l 418 1057 q 428 1054 418 1057 l 438 1056 l 494 1054 l 553 1050 q 665 1015 583 1053 q 696 999 675 1011 l 715 985 l 746 964 l 783 935 l 819 906 l 846 876 l 897 814 l 922 772 l 932 739 l 947 696 l 971 638 q 986 608 972 632 l 1024 546 q 1056 520 1031 535 q 1082 493 1082 506 q 1056 450 1082 467 l 1038 439 q 1017 413 1029 433 l 997 379 l 982 354 l 972 329 l 961 294 q 949 261 957 274 l 938 239 q 926 214 935 233 q 922 206 925 213 l 897 169 l 876 142 l 846 107 q 810 76 832 92 l 754 39 l 715 21 q 660 7 700 15 l 540 -8 l 494 -4 l 425 3 q 361 21 385 7 l 313 50 l 283 65 l 228 107 l 197 136 q 156 175 167 158 l 121 228 l 96 263 q 63 339 74 304 q 47 413 56 361 l 46 476 q 43 503 46 481 q 48 554 44 528 q 85 629 51 581 q 197 703 133 703 q 313 667 243 703 l 328 656 l 343 638 l 367 608 l 392 572 l 415 532 q 440 435 440 499 q 415 347 440 378 l 392 318 q 367 261 367 288 q 404 236 367 236 q 467 247 435 236 q 513 269 500 257 q 567 421 567 324 q 549 496 567 465 l 524 525 l 504 543 l 501 553 q 511 578 501 565 l 532 606 q 563 653 553 633 q 574 683 568 661 l 578 726 l 576 743 l 563 772 l 549 793 q 526 810 543 800 l 506 821 l 489 826 l 474 828 q 439 819 457 828 l 411 807 l 389 790 q 371 754 378 782 q 356 729 371 729 l 326 735 q 290 742 311 740 l 264 739 q 210 793 246 739 q 197 826 201 806 l 194 879 l 206 1340 l 196 1543 q 201 1585 196 1579 q 215 1585 206 1593 m 242 1538 l 232 1501 q 228 1443 228 1486 l 228 1399 l 226 1374 q 219 1168 225 1342 l 214 851 q 233 836 217 840 l 271 833 q 299 838 290 832 l 322 868 q 347 888 329 879 l 404 906 l 440 907 l 457 906 q 542 844 508 889 q 554 828 549 840 l 571 794 q 589 750 582 778 l 594 711 q 560 619 594 679 q 542 563 542 589 l 554 554 l 561 539 l 569 517 q 586 435 586 483 q 500 242 586 293 q 431 224 469 224 q 313 257 371 224 l 296 269 l 276 289 q 249 328 250 315 q 271 369 249 344 q 306 387 275 375 q 347 417 338 399 q 360 465 358 440 l 364 522 l 364 540 l 361 554 l 349 594 l 331 624 l 313 644 l 296 661 q 276 674 290 667 q 224 690 256 690 q 89 615 154 690 l 76 590 l 65 564 l 57 526 l 54 472 q 56 413 53 436 q 65 369 58 390 l 89 303 q 129 244 97 279 l 179 190 l 197 174 l 215 163 l 265 129 l 324 104 l 358 93 l 394 89 l 447 88 l 519 88 q 550 90 547 90 q 611 99 585 90 l 642 108 l 688 129 l 725 147 l 751 163 l 794 197 q 832 242 814 217 l 843 257 l 868 297 l 878 329 l 903 383 l 913 426 q 933 482 921 464 l 943 496 l 951 511 l 965 532 l 969 550 q 938 608 969 569 q 903 667 907 646 l 904 700 l 903 713 l 885 764 l 874 790 l 832 854 l 814 875 l 782 915 l 754 938 l 715 971 q 615 1022 681 1001 q 488 1042 549 1042 q 415 1032 443 1042 q 385 1017 404 1029 l 361 1004 l 338 978 q 307 1021 313 978 q 306 1054 304 1038 l 310 1118 l 317 1167 l 319 1194 l 318 1219 l 317 1238 q 324 1250 315 1250 q 367 1232 331 1250 q 424 1218 390 1221 l 508 1213 l 594 1217 q 650 1232 626 1218 l 701 1263 q 742 1290 721 1271 l 778 1324 l 803 1349 l 826 1382 l 842 1410 l 853 1436 l 865 1472 q 868 1508 872 1499 q 851 1514 864 1513 q 803 1496 831 1514 l 764 1471 l 700 1449 q 639 1442 663 1442 q 531 1479 581 1442 l 500 1508 l 483 1518 q 456 1522 474 1522 l 343 1508 q 289 1524 339 1508 l 242 1538 m 336 1419 l 349 1413 l 399 1407 l 444 1411 l 463 1396 l 482 1382 l 533 1354 q 568 1344 553 1346 l 590 1344 l 518 1331 l 478 1331 q 424 1335 436 1331 q 379 1358 401 1347 q 317 1422 325 1392 q 322 1429 318 1428 q 336 1419 331 1426 m 669 869 l 694 847 l 740 789 q 796 688 764 751 q 790 676 797 682 l 772 675 l 744 675 q 722 681 736 678 l 713 757 q 701 800 713 781 l 672 835 l 650 869 l 669 869 m 228 572 q 243 525 242 546 q 215 486 244 503 q 167 467 208 483 q 153 436 153 463 l 157 406 l 167 369 l 174 347 l 149 390 q 125 461 125 431 q 128 490 125 479 l 139 532 l 156 563 q 201 582 168 582 q 228 572 222 582 m 760 413 q 772 389 772 407 l 767 367 q 697 265 751 322 q 657 235 676 244 l 658 249 l 663 264 l 679 317 l 701 369 l 711 404 q 735 429 718 429 q 760 413 747 429 m 692 540 q 710 499 692 517 q 751 481 728 481 q 793 499 775 481 q 811 540 811 517 q 793 582 811 564 q 751 600 775 600 q 710 582 728 600 q 692 540 692 564 z "},"6":{"ha":1308,"x_min":3,"x_max":1267,"o":"m 747 1572 q 697 1578 736 1576 l 644 1579 q 442 1515 547 1582 q 271 1361 354 1460 q 231 1300 256 1343 q 204 1242 214 1272 l 172 1146 q 158 1094 167 1133 q 147 1011 154 1076 q 92 924 114 943 l 25 863 q 3 822 3 842 q 28 797 4 810 q 57 779 53 785 l 75 757 q 94 735 93 742 l 107 703 l 119 644 q 167 431 138 554 q 271 242 203 319 q 301 207 285 229 l 328 178 l 369 129 l 413 90 l 453 64 q 532 24 492 39 q 563 17 535 22 l 614 6 q 743 -8 693 -11 l 804 -4 q 861 6 826 -3 l 903 15 q 942 32 918 19 l 994 61 l 1042 94 l 1063 121 l 1074 136 l 1126 211 q 1142 242 1135 222 q 1153 271 1144 247 l 1163 299 l 1176 331 l 1196 360 l 1219 390 q 1256 419 1235 399 q 1267 444 1267 431 q 1254 471 1267 458 l 1201 525 l 1176 561 l 1167 593 l 1153 638 l 1100 743 l 1056 810 q 1000 863 1038 836 q 868 929 929 911 q 722 965 815 950 q 693 971 714 967 l 654 971 l 569 972 l 569 1049 l 576 1115 q 590 1183 579 1147 l 603 1226 l 619 1264 q 667 1318 644 1297 q 701 1332 690 1339 q 708 1307 708 1328 l 704 1275 l 701 1242 q 753 1092 694 1167 l 790 1043 q 856 989 804 1025 q 933 961 896 961 q 1025 989 974 961 q 1106 1067 1089 1024 l 1126 1146 l 1129 1167 l 1126 1213 q 1116 1256 1124 1219 q 1100 1310 1108 1293 q 1025 1431 1069 1369 l 992 1467 l 961 1489 l 856 1543 q 747 1572 799 1572 m 608 1565 q 747 1554 686 1565 q 861 1511 779 1549 l 925 1482 q 986 1446 972 1460 l 1007 1424 q 1040 1264 1040 1335 q 1019 1146 1040 1208 l 1000 1117 l 986 1100 q 936 1071 963 1076 l 900 1063 l 864 1061 q 815 1071 826 1060 l 790 1086 l 772 1100 l 747 1131 l 733 1157 l 721 1192 q 718 1235 718 1211 q 722 1289 718 1272 q 760 1342 733 1317 l 808 1376 l 833 1383 q 814 1413 831 1404 l 776 1425 q 726 1432 756 1432 q 614 1399 671 1432 l 581 1374 l 563 1354 l 542 1325 l 525 1279 l 504 1214 l 488 1154 q 476 1079 476 1115 l 475 965 q 485 924 475 938 l 511 899 l 531 876 q 536 851 536 867 q 531 831 533 833 l 500 793 l 482 772 q 475 743 478 767 q 460 589 460 679 q 475 428 460 544 l 482 375 q 501 336 489 361 l 507 324 l 518 306 l 538 285 q 617 263 558 263 q 740 308 715 263 l 760 343 l 772 375 l 778 397 l 782 421 q 772 457 779 439 l 761 483 l 740 510 l 722 532 l 772 578 q 786 635 786 596 q 772 696 786 669 l 747 743 l 729 764 l 717 772 q 657 790 697 781 l 608 801 l 590 815 l 583 844 q 562 865 581 851 q 543 885 543 879 l 543 914 l 556 928 l 590 950 q 631 956 599 956 q 816 925 699 956 q 965 869 933 894 l 1007 838 l 1019 815 l 1060 763 l 1090 690 l 1118 614 q 1128 590 1124 608 l 1139 569 l 1157 554 q 1164 525 1164 536 q 1157 501 1161 506 l 1139 489 l 1118 465 l 1106 443 q 1089 411 1099 432 l 1081 388 l 1067 328 l 1056 296 q 1049 282 1054 290 l 1036 261 l 1026 249 l 1019 233 l 1007 219 l 963 179 l 917 142 l 856 113 q 794 94 840 103 l 740 85 q 686 79 719 78 l 657 81 l 558 88 q 472 111 497 97 l 439 129 l 410 142 l 361 174 l 318 204 l 265 263 q 135 624 151 449 l 126 708 q 111 768 118 751 q 88 815 96 804 l 72 829 q 64 844 67 838 q 92 894 71 864 l 118 933 l 129 954 l 140 972 q 157 1025 153 1003 q 168 1082 160 1040 l 179 1138 l 190 1178 l 204 1211 l 228 1257 l 247 1297 l 265 1332 q 377 1454 311 1399 q 511 1540 443 1510 l 608 1565 m 936 1332 l 926 1339 q 921 1325 921 1338 l 922 1297 q 917 1272 922 1294 q 872 1275 894 1275 q 828 1236 828 1268 q 856 1197 828 1208 l 883 1190 q 899 1197 894 1193 q 924 1226 911 1203 q 943 1293 943 1254 l 943 1307 l 936 1332 m 403 1296 q 397 1313 403 1303 q 383 1297 390 1310 l 375 1282 q 325 1186 354 1254 l 288 1100 l 283 1082 l 282 1072 q 293 1056 285 1060 l 318 1056 q 367 1097 369 1056 l 364 1149 l 368 1190 l 379 1243 l 392 1289 l 403 1296 m 874 793 q 863 799 871 796 q 856 793 858 797 q 883 738 864 782 l 904 689 l 900 668 l 904 649 q 932 635 910 635 q 953 656 953 635 l 947 678 l 925 725 l 899 774 l 889 786 q 874 793 882 793 m 639 728 l 663 729 l 692 731 q 735 721 719 732 l 753 696 l 765 675 l 769 633 q 738 575 769 599 q 701 532 706 551 q 713 499 701 510 l 735 481 l 753 460 q 764 408 764 436 q 740 325 764 365 q 697 289 731 304 q 626 274 663 274 q 569 294 586 274 q 543 368 543 321 q 535 482 535 417 q 543 615 535 579 l 553 657 l 569 689 l 608 721 l 639 728 m 304 721 q 286 732 296 729 q 258 681 258 732 l 264 624 l 276 569 l 318 460 q 340 436 332 442 q 332 582 332 469 q 322 711 332 701 l 304 721 m 917 561 q 881 508 881 538 q 894 476 881 490 q 922 463 907 463 q 956 478 943 465 q 976 517 976 503 q 958 546 974 532 l 936 561 l 917 561 m 942 397 q 921 410 933 410 q 878 364 899 410 q 856 301 869 344 q 853 288 853 293 l 856 274 l 861 271 q 914 317 881 276 q 947 382 947 357 l 942 397 m 254 882 q 272 924 254 906 q 314 942 290 942 q 356 924 338 942 q 374 882 374 906 q 356 840 374 858 q 314 822 338 822 q 272 840 290 822 q 254 882 254 858 z "},"7":{"ha":1081,"x_min":57,"x_max":1039,"o":"m 101 1569 l 129 1568 l 311 1536 q 422 1526 335 1528 l 693 1522 q 854 1547 782 1522 q 918 1563 896 1563 q 999 1521 956 1564 q 1014 1497 1001 1519 l 1025 1476 q 1039 1433 1038 1454 l 1033 1406 l 1024 1367 l 1015 1328 l 999 1285 l 981 1243 l 946 1156 l 894 1039 l 815 871 q 804 807 804 838 q 815 742 804 771 l 843 693 q 828 674 847 685 l 783 656 l 760 632 l 739 603 l 724 565 l 711 538 q 696 475 704 521 l 674 343 l 671 251 l 675 85 l 682 28 q 653 -18 682 -17 q 624 -7 639 -19 l 597 14 l 554 39 q 504 53 525 53 q 479 44 492 53 l 454 14 q 415 -8 440 -8 q 369 14 389 -8 l 338 51 l 311 74 l 293 74 l 235 28 q 201 11 214 11 q 163 44 182 11 q 149 60 161 50 l 135 74 q 125 117 125 92 q 132 165 125 138 l 150 213 l 163 260 l 175 304 l 188 344 l 210 396 l 231 450 l 376 793 l 385 829 l 389 872 l 388 886 l 369 901 l 364 922 q 396 958 364 943 l 486 986 q 538 1038 510 1004 q 571 1099 571 1078 q 524 1125 571 1128 l 499 1124 l 486 1124 l 433 1125 l 400 1128 q 349 1124 361 1126 q 303 1106 336 1122 q 246 1063 265 1088 q 238 1024 238 1051 q 244 967 238 1003 l 247 938 q 235 917 247 917 q 201 932 225 917 l 169 953 q 128 994 154 963 l 121 1003 q 78 1069 111 1014 q 61 1093 68 1079 l 57 1124 l 57 1149 q 63 1167 61 1160 l 72 1203 q 83 1229 74 1213 l 97 1253 q 107 1286 106 1272 q 96 1319 107 1294 q 83 1356 85 1344 q 97 1399 83 1376 l 110 1431 q 118 1456 118 1443 l 114 1468 l 97 1499 l 79 1529 l 58 1561 q 101 1569 74 1571 m 115 1553 q 100 1539 101 1553 l 104 1521 l 115 1499 l 144 1476 l 169 1461 q 171 1453 171 1460 l 163 1446 l 126 1417 q 106 1375 106 1396 q 115 1346 106 1360 l 144 1322 q 192 1310 164 1310 q 258 1346 239 1310 l 267 1389 q 278 1399 271 1401 q 290 1381 290 1394 q 283 1358 290 1369 l 246 1300 q 223 1278 236 1283 q 188 1272 210 1272 l 158 1272 q 128 1269 139 1272 l 110 1253 q 76 1151 76 1215 q 90 1069 76 1107 q 128 1038 101 1039 q 150 1047 140 1038 l 150 1069 q 161 1106 150 1088 l 182 1140 l 194 1154 l 214 1169 q 257 1194 238 1188 l 293 1207 l 314 1211 l 328 1215 l 350 1221 l 388 1222 l 514 1218 l 571 1219 q 615 1231 582 1219 q 642 1243 628 1233 l 664 1258 l 683 1283 q 708 1308 696 1304 l 714 1293 q 690 1243 711 1269 l 661 1207 l 642 1174 l 585 1085 l 540 1022 q 493 969 519 993 q 453 956 485 963 l 414 947 q 408 929 411 944 q 411 908 408 917 l 421 886 l 422 867 q 414 838 422 858 l 401 808 l 300 567 q 214 365 274 499 l 196 317 l 163 197 q 157 144 151 156 q 174 136 161 136 q 201 146 182 136 l 226 158 q 253 185 238 164 l 278 219 q 306 272 297 246 q 389 336 326 336 l 411 333 q 454 272 435 333 l 479 235 l 500 190 q 531 144 517 154 l 544 140 q 579 226 567 140 q 590 335 579 279 l 615 458 q 625 546 625 507 q 667 671 625 604 l 692 711 l 721 742 l 746 771 l 746 808 l 733 839 q 721 881 721 863 q 740 940 721 903 l 769 996 l 875 1231 l 907 1315 l 928 1378 l 938 1418 l 951 1499 l 951 1521 l 939 1544 q 868 1535 929 1551 l 790 1514 q 593 1503 699 1503 q 311 1519 408 1503 l 115 1553 m 394 1399 l 415 1388 l 438 1382 l 485 1378 q 518 1368 518 1378 l 499 1360 l 450 1340 q 393 1328 419 1328 q 358 1342 364 1328 l 354 1365 q 378 1410 354 1408 q 394 1399 383 1410 m 707 1100 l 721 1088 l 654 968 q 640 956 647 957 q 635 967 635 961 l 638 981 l 654 1010 l 707 1100 m 479 625 l 479 585 q 468 506 475 554 q 454 450 465 490 q 442 438 451 438 l 421 443 l 378 439 q 365 449 365 439 l 369 465 q 392 499 372 476 q 429 561 403 511 l 440 582 q 479 625 450 600 m 521 836 q 539 794 521 813 q 581 776 557 776 q 622 794 604 776 q 640 836 640 813 q 622 878 640 860 q 581 896 604 896 q 539 878 557 896 q 521 836 521 860 m 358 271 l 342 260 q 324 183 324 228 q 334 117 324 147 q 367 74 344 88 l 394 67 q 415 74 404 67 q 428 85 424 75 l 439 101 q 451 163 451 121 q 439 242 451 204 q 385 276 421 276 q 358 271 367 276 z "},"8":{"ha":1103,"x_min":4,"x_max":1061,"o":"m 538 1572 q 582 1563 557 1572 l 617 1549 l 682 1517 l 707 1503 q 735 1488 719 1499 l 774 1457 l 833 1401 q 878 1326 847 1388 l 904 1272 l 915 1251 l 928 1232 l 953 1206 l 983 1178 q 994 1161 993 1171 q 981 1143 994 1151 l 954 1126 l 904 1065 l 853 971 q 840 921 840 947 q 896 806 840 871 l 982 704 l 1008 665 q 1054 551 1042 615 q 1061 474 1061 515 q 1033 314 1061 392 q 1000 243 1015 263 l 954 183 q 922 144 949 172 l 871 92 q 811 53 846 67 l 772 38 l 735 24 q 579 -8 649 -8 q 429 24 511 -8 l 390 39 l 313 81 q 208 179 261 108 l 156 250 l 103 328 q 69 361 97 340 l 33 389 q 4 429 4 411 q 33 474 4 446 l 65 504 l 83 526 l 103 560 l 125 599 l 156 657 l 189 713 l 239 774 q 249 804 247 793 q 239 833 249 819 l 169 913 l 156 926 q 136 956 151 940 q 111 1000 118 979 l 97 1043 l 89 1067 l 79 1124 l 76 1160 l 79 1181 l 88 1229 q 103 1289 93 1264 l 117 1326 q 136 1368 121 1347 l 156 1394 l 179 1428 l 192 1443 l 203 1456 q 239 1488 217 1472 l 288 1517 l 313 1533 l 343 1549 q 419 1572 365 1560 q 497 1583 472 1583 q 538 1572 526 1583 m 475 1565 l 442 1564 l 401 1558 l 372 1546 l 321 1525 q 275 1499 308 1524 l 228 1464 l 201 1442 q 176 1403 186 1422 l 149 1358 l 124 1314 q 113 1254 114 1290 l 108 1168 q 111 1079 106 1107 q 122 1026 113 1047 l 151 965 l 201 904 l 228 874 l 265 842 l 307 810 l 338 792 q 364 765 356 782 l 371 726 q 393 682 378 688 l 415 688 q 440 698 424 690 q 463 706 457 706 q 500 688 469 706 l 551 657 q 619 607 593 638 q 668 526 653 569 l 685 481 l 690 435 q 668 343 690 383 l 653 315 q 638 297 649 304 q 578 253 614 269 q 506 239 536 239 q 447 246 475 239 q 396 265 419 253 l 360 289 l 325 328 l 313 343 l 300 360 l 288 389 q 264 482 264 444 q 279 564 264 525 l 313 649 q 324 721 324 676 q 290 775 324 774 q 225 735 265 776 q 176 665 185 693 l 171 647 q 151 613 165 628 l 108 543 l 68 486 q 61 460 64 479 l 64 436 l 71 414 q 85 393 72 406 l 97 381 l 122 350 q 200 251 132 340 q 253 197 226 217 l 300 163 l 350 133 l 390 118 l 436 106 q 531 96 476 94 l 588 97 q 624 106 608 97 l 669 118 l 710 133 q 769 168 725 138 l 811 197 l 865 242 l 883 258 l 915 306 l 935 343 q 972 553 975 457 l 971 599 q 961 635 971 617 l 935 713 l 908 758 q 811 882 869 826 l 779 913 l 740 938 l 701 971 q 688 992 693 974 l 676 1026 q 654 1044 672 1044 q 629 1042 640 1044 l 607 1036 l 579 1033 q 468 1096 532 1033 l 429 1126 l 399 1153 q 376 1188 385 1169 l 358 1226 q 346 1278 346 1253 q 363 1349 346 1314 q 383 1378 371 1367 l 450 1426 q 511 1449 481 1449 q 544 1443 531 1449 l 586 1426 q 635 1386 615 1411 q 668 1326 646 1371 q 686 1276 681 1301 l 690 1225 l 686 1136 q 691 1088 685 1117 q 703 1053 697 1060 l 721 1026 q 742 1015 731 1017 q 760 1026 750 1015 l 779 1049 l 801 1093 l 831 1135 l 883 1203 l 897 1233 l 883 1264 l 864 1300 l 840 1336 l 813 1372 l 779 1410 l 767 1426 l 728 1464 q 475 1565 617 1571 m 526 1371 l 489 1344 q 461 1311 476 1336 q 453 1254 451 1285 l 456 1210 q 500 1113 458 1164 q 557 1057 532 1072 q 599 1049 574 1049 q 638 1057 621 1049 l 656 1079 l 675 1118 q 679 1174 679 1133 q 668 1275 679 1244 q 657 1310 664 1297 q 618 1349 646 1329 l 586 1371 q 558 1375 576 1375 q 526 1371 539 1375 m 239 1249 l 243 1199 l 253 1150 q 258 1138 256 1146 q 276 1104 265 1122 l 307 1056 q 326 1039 314 1046 l 349 1028 l 392 1021 q 429 975 429 1021 q 411 940 429 957 l 382 913 q 375 908 381 908 q 364 913 371 908 l 339 924 l 313 971 l 288 1004 l 269 1024 l 246 1065 l 221 1163 l 217 1207 l 221 1242 q 228 1256 222 1247 l 231 1258 l 239 1249 m 717 804 l 733 781 l 747 751 l 781 694 l 799 650 l 825 567 l 832 525 l 836 483 l 835 451 q 826 420 835 440 q 813 399 818 400 l 810 429 l 810 494 q 804 542 810 531 l 779 613 q 742 665 768 642 l 724 676 l 688 696 q 660 726 661 715 q 675 765 660 729 l 688 796 q 703 811 692 808 q 717 804 714 807 m 461 643 l 450 635 q 414 593 440 622 l 383 544 q 371 499 372 524 l 367 442 q 382 343 363 389 l 400 317 l 422 292 l 446 276 q 485 256 472 258 l 521 254 l 554 254 q 568 257 568 257 q 604 279 588 261 l 638 314 l 647 328 l 656 343 l 668 375 l 675 396 l 678 426 l 678 443 l 675 458 q 654 511 672 474 q 624 575 638 554 l 596 597 l 544 635 q 500 644 529 646 l 461 643 m 475 861 q 493 819 475 838 q 535 801 511 801 q 576 819 558 801 q 594 861 594 838 q 576 903 594 885 q 535 921 558 921 q 493 903 511 921 q 475 861 475 885 z "},"9":{"ha":1300,"x_min":3,"x_max":1260,"o":"m 644 1574 q 592 1585 633 1585 q 489 1572 563 1585 q 407 1556 425 1561 l 333 1524 q 203 1435 225 1453 q 110 1297 144 1385 l 104 1265 l 99 1240 l 25 1167 q 3 1126 3 1144 q 15 1101 3 1113 l 47 1072 l 85 1042 l 110 964 l 156 875 l 189 824 l 226 772 l 253 743 l 311 685 l 326 672 q 368 640 357 647 l 425 613 q 582 576 499 576 q 639 581 619 576 l 683 590 q 710 590 706 594 q 722 525 725 560 l 718 468 l 710 417 l 693 371 l 678 336 l 657 299 l 639 281 l 607 253 l 582 235 l 564 231 l 546 235 q 538 263 538 243 l 540 292 l 546 326 l 547 349 q 519 451 551 404 l 483 506 q 438 540 472 521 q 360 578 383 569 q 283 594 313 594 q 164 504 207 594 q 136 400 136 446 q 153 306 136 358 q 171 249 160 267 l 179 232 l 189 218 q 253 135 229 161 l 296 88 l 336 54 l 379 31 l 489 0 q 538 -6 508 -6 q 551 -8 538 -6 l 592 -8 l 638 -6 l 671 0 l 724 8 q 782 28 764 15 l 839 58 l 881 88 l 940 139 q 975 174 971 165 q 1021 242 1006 210 l 1050 301 l 1065 347 l 1079 392 l 1092 436 l 1117 533 l 1147 619 q 1177 665 1153 636 q 1217 703 1201 693 l 1247 721 q 1260 740 1260 732 q 1243 765 1260 751 l 1197 803 l 1183 824 q 1172 850 1175 836 l 1157 885 l 1147 925 q 1133 991 1139 944 q 1117 1058 1126 1038 l 1106 1096 l 1092 1125 l 1069 1188 q 1059 1211 1065 1197 q 1042 1247 1053 1225 l 1017 1294 q 990 1331 1006 1315 l 971 1357 l 963 1371 l 911 1436 q 881 1464 897 1453 l 825 1499 l 799 1513 l 775 1524 l 689 1556 l 644 1574 m 483 1565 q 544 1571 510 1574 l 619 1565 l 765 1514 q 846 1472 815 1496 l 886 1433 l 899 1417 l 928 1379 l 950 1346 q 969 1313 958 1333 l 982 1289 l 1004 1240 l 1024 1194 q 1035 1149 1028 1186 l 1049 1079 l 1078 949 q 1083 899 1079 946 l 1088 850 q 1113 836 1092 844 q 1125 825 1124 829 q 1132 806 1132 814 q 1125 788 1132 794 l 1106 772 l 1086 750 l 1058 683 l 1049 664 l 1024 525 l 1013 497 l 1004 465 l 968 378 l 944 335 l 922 297 q 895 258 907 271 q 868 235 883 246 l 828 200 l 793 174 l 743 144 l 700 125 l 654 108 q 588 97 628 99 l 489 93 l 406 97 q 351 110 374 99 l 301 144 q 235 188 269 158 q 186 243 200 218 l 171 282 l 160 321 q 149 403 146 368 l 151 444 l 160 474 q 304 579 208 579 q 408 533 363 579 l 432 518 l 451 488 q 460 446 458 465 q 463 411 463 432 q 451 357 463 383 l 432 326 l 397 299 l 358 281 q 353 265 353 275 q 393 228 353 242 l 438 213 q 492 196 467 196 q 546 213 517 196 q 619 242 572 217 l 633 253 q 651 274 646 265 l 674 308 q 715 397 706 358 q 725 436 719 410 l 732 474 q 746 590 749 560 l 742 647 l 731 694 l 718 750 l 696 758 q 688 785 688 775 l 690 804 l 703 825 l 721 858 q 731 890 724 863 q 744 982 742 933 q 750 1088 750 1018 l 750 1103 l 749 1139 q 743 1181 747 1172 q 736 1200 738 1183 l 722 1256 q 681 1347 704 1331 l 653 1368 l 619 1390 l 589 1404 q 550 1411 565 1411 l 521 1407 l 458 1382 q 431 1359 443 1374 q 417 1335 418 1344 l 407 1306 q 403 1242 403 1288 q 408 1189 403 1199 l 451 1167 l 463 1150 l 460 1115 l 451 1086 q 411 1000 411 1021 q 451 919 411 976 l 463 897 q 483 874 472 878 l 501 860 q 549 838 522 847 l 639 803 q 657 765 651 782 l 661 751 l 663 724 q 658 697 664 710 q 628 690 635 690 l 600 686 l 585 683 l 554 683 q 463 694 499 683 q 407 710 454 700 q 351 728 371 718 l 313 749 l 247 788 l 210 817 q 192 838 201 825 q 178 860 186 844 l 160 896 l 118 983 q 104 1026 107 1007 l 93 1064 q 79 1094 86 1086 l 53 1125 q 42 1147 42 1138 l 47 1158 l 72 1172 q 88 1200 81 1181 l 100 1224 q 117 1271 111 1246 q 178 1386 139 1336 l 210 1426 q 228 1442 218 1436 q 300 1493 274 1476 q 378 1532 346 1522 l 483 1565 m 339 1411 l 333 1418 l 326 1403 l 314 1393 q 308 1386 313 1392 l 296 1364 q 238 1281 236 1317 q 276 1250 239 1250 q 304 1279 300 1250 l 314 1349 l 331 1378 q 339 1411 339 1393 m 807 1349 l 800 1357 q 793 1340 800 1356 q 803 1318 796 1329 l 813 1304 q 843 1182 831 1249 q 853 1064 856 1121 l 851 1031 l 850 1006 q 860 974 849 983 q 906 964 872 964 q 939 999 940 964 q 929 1046 939 1013 l 911 1094 l 896 1156 l 886 1189 l 861 1240 l 828 1307 l 807 1342 l 807 1349 m 558 1304 l 590 1304 q 646 1294 632 1304 l 706 1222 q 721 1135 718 1189 q 726 1029 726 1103 l 726 1013 l 722 933 q 710 882 721 901 l 689 867 l 669 850 q 614 836 643 836 q 558 850 586 836 l 519 882 q 504 938 504 910 q 518 997 504 964 l 540 1050 l 551 1071 l 560 1079 l 557 1082 l 546 1094 l 519 1125 q 504 1188 504 1153 q 520 1257 504 1222 q 558 1304 536 1292 m 289 1028 q 265 1039 278 1039 q 236 1010 236 1039 l 242 988 q 271 922 261 938 l 314 867 q 342 844 318 863 l 365 839 q 350 863 364 851 l 339 874 l 314 925 l 310 972 q 289 1028 310 1014 m 906 626 q 860 635 897 635 q 813 619 828 635 l 825 567 l 826 544 l 822 463 q 811 401 821 428 l 799 367 l 800 350 l 842 419 l 861 460 l 893 514 q 913 581 915 551 l 911 597 l 906 626 m 821 803 q 839 844 821 826 q 881 863 857 863 q 922 844 904 863 q 940 803 940 826 q 922 761 940 779 q 881 743 904 743 q 839 761 857 743 q 821 803 821 779 m 196 1144 q 214 1186 196 1168 q 256 1204 232 1204 q 297 1186 279 1204 q 315 1144 315 1168 q 297 1103 315 1121 q 256 1085 279 1085 q 214 1103 232 1085 q 196 1144 196 1121 m 339 444 q 311 458 326 458 q 272 442 289 458 q 240 349 240 411 q 251 285 240 311 q 333 228 278 243 l 349 236 l 314 256 q 288 291 296 272 q 279 325 279 310 q 305 345 279 338 q 339 365 331 353 l 351 389 q 357 410 357 400 q 339 444 357 431 z "}," ":{"ha":1194,"x_min":0,"x_max":0,"o":""},"&":{"ha":1360,"x_min":13,"x_max":1318,"o":"m 711 1569 q 679 1575 701 1575 l 644 1569 l 610 1563 q 414 1372 457 1511 l 400 1328 l 386 1274 q 379 1204 379 1247 q 388 1085 379 1156 q 403 954 394 1033 q 385 914 404 925 l 344 900 q 158 740 219 842 l 128 689 q 104 635 115 668 q 89 561 93 601 l 79 464 l 63 431 l 54 410 l 40 396 l 28 374 q 13 332 13 346 q 54 296 13 317 q 92 285 67 290 q 125 274 117 279 q 183 215 150 256 l 235 151 l 251 129 l 268 114 q 317 61 297 78 l 378 25 q 425 4 397 14 l 474 0 l 549 -1 l 575 0 l 608 0 l 646 6 q 692 21 665 11 l 742 57 l 771 83 q 786 104 775 88 q 796 114 793 117 l 814 115 q 847 104 833 113 l 881 83 l 928 42 l 958 21 q 1078 0 1019 0 q 1197 21 1135 0 q 1221 39 1214 31 l 1235 53 l 1281 113 l 1288 129 q 1303 163 1299 147 l 1314 206 l 1318 235 l 1314 258 l 1289 313 q 1247 350 1272 350 q 1201 297 1228 349 q 1151 246 1174 246 q 1118 258 1138 246 l 1056 311 l 1025 346 l 1015 363 l 1003 381 l 975 425 q 964 499 964 456 q 975 586 964 549 l 982 610 q 994 632 986 624 l 1010 632 l 1093 561 q 1149 542 1125 542 q 1204 569 1178 542 l 1235 601 q 1250 631 1246 614 l 1258 671 q 1268 738 1268 701 q 1260 796 1268 768 l 1246 843 l 1235 869 l 1201 926 q 1158 968 1181 956 q 1064 993 1117 993 q 1003 982 1033 993 l 910 914 l 867 885 l 839 885 q 850 919 835 896 l 894 969 l 947 1026 q 975 1060 969 1050 l 1029 1118 l 1056 1151 q 1068 1179 1068 1167 q 1051 1208 1068 1192 l 1003 1257 l 975 1328 l 953 1372 l 938 1400 l 926 1417 l 906 1444 l 876 1481 q 778 1550 828 1529 l 711 1569 m 661 1563 q 881 1457 775 1563 l 907 1425 l 958 1319 q 974 1260 974 1288 q 951 1189 974 1219 l 875 1086 l 863 1067 l 853 1053 l 803 989 q 772 965 788 969 q 739 960 763 960 q 708 978 715 971 q 692 1001 693 993 l 688 1022 l 686 1038 l 690 1060 q 739 1169 718 1115 q 761 1281 761 1229 l 758 1307 l 750 1353 l 739 1394 q 658 1435 711 1435 q 596 1400 610 1428 l 590 1372 l 582 1333 l 578 1285 l 579 1250 l 583 1214 l 586 1185 l 594 1146 q 613 1094 599 1124 l 635 1056 l 678 965 l 693 943 l 713 913 q 742 888 725 893 l 778 876 l 803 861 q 796 767 796 819 q 804 700 796 721 l 826 643 l 853 586 l 875 542 q 907 479 888 515 l 931 439 l 958 404 q 1010 335 981 367 l 1046 296 l 1085 265 l 1115 239 q 1149 225 1132 225 l 1167 228 l 1188 250 q 1226 285 1219 285 q 1242 270 1238 283 q 1244 243 1247 257 l 1236 219 l 1231 197 l 1215 172 l 1197 151 l 1144 106 l 1099 89 l 1049 75 l 1015 75 l 956 89 q 913 106 932 94 l 861 135 l 836 156 l 797 197 l 744 258 l 733 282 l 711 326 l 669 375 q 653 394 667 379 q 635 425 646 401 l 560 583 q 500 656 538 629 l 476 664 q 454 678 458 671 l 450 693 q 461 732 453 714 l 475 778 l 471 792 l 463 817 l 449 861 l 433 901 q 425 933 428 911 l 418 981 l 408 1021 l 397 1119 l 396 1163 q 426 1355 393 1263 q 519 1503 460 1447 q 588 1543 547 1529 q 613 1551 588 1543 q 654 1563 638 1558 l 661 1563 m 681 1335 l 704 1335 q 726 1306 721 1328 q 733 1244 733 1276 q 722 1155 733 1200 q 697 1110 710 1110 q 668 1160 678 1110 l 661 1194 l 658 1226 q 681 1335 654 1271 m 506 1151 l 500 1160 q 493 1100 492 1144 l 497 1008 l 506 922 l 514 910 q 554 850 538 850 q 583 876 569 850 l 603 900 l 589 931 l 561 978 l 539 1022 l 513 1083 q 506 1117 506 1100 l 506 1151 m 1029 974 l 1053 974 l 1079 975 l 1117 971 q 1144 960 1135 968 l 1165 939 l 1186 899 q 1204 808 1204 864 q 1194 738 1204 774 q 1165 685 1185 701 l 1144 667 q 1124 656 1135 657 q 1086 647 1101 647 q 1056 656 1067 647 l 1015 685 l 1003 697 l 993 749 q 975 792 985 792 q 958 778 968 789 q 921 701 921 722 q 907 656 917 674 l 897 638 q 874 625 889 625 q 857 635 864 628 l 846 656 q 838 714 835 682 l 840 756 l 846 793 q 926 911 864 858 q 1018 971 956 936 l 1029 974 m 371 892 q 424 849 424 892 l 417 810 l 403 769 l 390 747 l 357 685 q 342 617 342 646 q 364 547 342 578 q 393 531 369 542 q 414 511 413 522 l 414 488 l 404 422 l 414 389 l 425 358 l 456 311 l 467 296 l 488 279 l 506 267 q 597 238 547 238 q 653 275 633 238 q 681 304 668 304 l 704 296 l 725 267 l 726 250 q 706 186 729 225 q 661 135 683 147 l 610 106 q 563 85 594 96 q 525 75 532 75 l 418 75 l 358 93 l 325 106 l 276 135 l 176 243 l 140 297 q 119 319 128 317 q 76 349 90 335 q 63 382 63 363 q 74 417 65 403 q 93 504 93 449 q 99 579 93 556 q 169 735 121 672 q 371 892 229 811 m 276 739 l 272 747 q 208 656 246 738 l 193 622 l 183 594 l 182 569 q 206 538 181 538 q 242 554 221 538 q 253 574 251 564 q 254 599 254 585 l 253 644 l 254 664 l 268 701 q 276 739 276 724 m 426 617 l 450 617 l 490 614 q 525 601 514 613 l 622 417 l 651 382 q 675 342 668 363 l 675 319 l 661 311 l 657 300 l 654 289 l 625 264 q 600 253 610 253 l 585 256 l 556 272 q 532 289 539 282 l 513 319 l 500 364 l 486 410 l 486 417 l 506 464 q 479 510 510 497 q 435 533 438 526 q 425 579 424 544 l 426 617 m 744 601 q 731 611 742 604 l 711 594 q 681 558 681 568 q 697 526 681 549 l 732 479 l 751 457 l 797 394 q 806 419 806 407 q 798 452 804 438 q 771 496 792 467 l 744 586 l 744 601 m 332 335 q 306 346 321 346 q 261 319 275 346 q 261 296 253 306 l 286 267 l 335 222 l 361 203 l 394 179 q 418 174 403 174 l 435 182 l 408 197 l 383 221 l 368 239 l 357 258 l 332 319 l 332 335 m 592 740 q 610 782 592 764 q 651 800 628 800 q 693 782 675 800 q 711 740 711 764 q 693 699 711 717 q 651 681 675 681 q 610 699 628 681 q 592 740 592 717 m 183 449 q 201 490 183 472 q 243 508 219 508 q 285 490 267 508 q 303 449 303 472 q 285 407 303 425 q 243 389 267 389 q 201 407 219 389 q 183 449 183 425 m 1033 828 q 1086 881 1040 881 q 1123 864 1107 881 q 1139 828 1139 847 q 1123 791 1139 807 q 1086 775 1107 775 q 1033 828 1033 779 z "},"A":{"ha":1449,"x_min":1,"x_max":1449,"o":"m 908 1563 q 876 1568 896 1568 q 803 1546 853 1568 l 753 1524 q 722 1525 731 1521 l 694 1539 l 668 1547 l 644 1553 q 610 1539 632 1551 l 578 1525 q 551 1508 561 1518 l 544 1508 q 489 1549 519 1529 q 422 1571 454 1571 q 389 1563 401 1571 l 368 1542 l 347 1513 q 318 1438 318 1481 l 318 1413 q 329 1349 318 1376 q 356 1317 340 1321 l 363 1332 l 386 1344 q 403 1347 397 1347 q 429 1317 429 1347 q 432 1293 432 1297 l 432 1274 l 428 1219 q 421 1171 425 1186 l 368 986 l 350 940 q 243 819 326 881 q 213 782 213 797 q 225 750 213 765 l 253 717 l 265 694 l 265 649 q 251 578 258 628 q 239 518 244 529 l 210 413 l 188 342 l 174 310 l 161 279 l 142 264 l 110 240 q 94 238 99 238 q 63 258 76 238 q 44 279 49 278 q 13 274 32 281 q 1 201 -3 258 l 7 121 q 24 65 15 82 l 67 14 q 126 -18 93 -18 q 174 -1 151 -18 l 178 4 l 185 11 q 215 18 203 18 l 246 11 q 310 -11 294 -11 q 338 3 324 -11 q 382 42 367 33 q 401 43 392 46 l 453 11 q 522 -7 499 -7 q 593 54 572 -7 q 610 114 596 64 q 621 161 614 131 q 611 214 621 196 q 571 249 596 240 q 511 238 551 251 q 474 231 490 231 q 440 249 450 231 l 440 326 q 451 382 442 328 l 463 440 l 474 479 l 482 503 l 493 518 q 564 542 513 533 q 676 553 629 553 l 733 547 q 766 533 754 546 q 794 426 778 519 q 813 289 813 328 l 810 268 l 801 240 q 785 218 794 218 q 747 210 764 210 q 714 218 725 210 l 675 249 q 639 192 639 251 l 643 168 l 660 126 l 676 89 l 696 51 l 714 25 q 751 -7 728 4 l 772 -17 l 794 -24 l 824 -28 q 869 -17 847 -28 l 903 0 l 947 42 l 974 43 l 996 26 l 1021 8 l 1051 -6 q 1083 -17 1076 -17 q 1126 13 1104 -17 q 1156 42 1149 42 l 1188 42 l 1217 21 l 1235 10 l 1269 0 q 1317 -7 1294 -7 q 1375 8 1344 -7 l 1411 32 q 1428 57 1418 36 q 1449 157 1449 100 q 1431 252 1449 213 q 1386 292 1413 292 q 1357 279 1372 292 l 1338 264 l 1338 249 q 1313 242 1331 242 q 1292 249 1293 244 l 1267 276 l 1246 310 l 1221 372 l 1194 457 l 1178 499 l 1168 525 q 1153 579 1156 558 q 1150 601 1153 583 q 1142 664 1146 626 q 1168 756 1150 719 l 1194 794 q 1185 820 1194 815 q 1167 829 1176 825 l 1142 833 l 1114 847 l 1090 864 l 1064 894 l 1050 922 q 1039 956 1040 940 l 1024 986 l 1013 1017 l 986 1110 q 960 1225 974 1156 l 951 1268 l 947 1325 l 949 1343 l 956 1365 q 978 1372 963 1372 l 1003 1369 l 1025 1367 q 1046 1385 1046 1369 l 1039 1417 l 1011 1488 q 960 1539 1001 1506 l 908 1563 m 843 1547 l 901 1547 l 940 1524 l 954 1501 q 940 1460 954 1465 l 901 1446 q 879 1431 882 1436 l 869 1417 q 854 1379 861 1404 l 850 1346 q 865 1271 850 1322 q 889 1192 876 1240 l 900 1142 l 915 1086 l 928 1044 l 940 1010 l 963 944 q 993 901 974 914 l 1061 861 l 1078 849 l 1083 825 q 1060 761 1069 782 q 1043 707 1043 726 q 1071 603 1043 686 q 1094 503 1082 568 l 1117 425 l 1146 349 q 1182 294 1167 313 l 1214 257 q 1314 224 1242 224 l 1338 226 l 1350 242 l 1369 233 l 1372 215 l 1367 175 l 1357 142 l 1338 113 l 1318 96 q 1267 86 1300 86 q 1221 96 1239 86 l 1103 250 q 1021 310 1057 310 q 967 279 992 310 l 954 264 l 942 218 l 919 151 q 889 96 904 106 l 811 65 l 735 86 q 700 111 711 96 q 683 182 683 128 q 688 196 683 188 l 714 196 l 738 186 l 756 179 q 778 196 768 179 l 804 226 q 833 326 833 260 q 799 485 833 381 q 778 549 793 501 l 769 589 q 753 618 765 613 q 672 643 728 631 q 597 654 622 654 l 569 654 q 453 618 485 654 l 433 596 l 414 572 l 393 529 l 382 503 q 353 372 360 450 l 353 343 l 350 326 l 350 294 l 339 290 l 314 300 q 292 311 299 311 l 282 313 q 213 242 231 313 l 199 186 q 188 157 193 165 q 117 111 154 111 q 25 188 64 111 l 25 203 l 44 226 q 89 215 57 228 l 103 218 l 122 226 l 147 240 l 168 257 l 181 272 q 197 306 193 288 l 207 349 l 232 425 q 247 472 239 439 q 258 518 249 481 l 285 625 l 294 660 l 304 701 q 288 747 304 715 q 271 790 271 779 q 278 810 272 799 l 304 832 q 336 871 328 849 l 363 940 q 406 1060 381 986 l 414 1094 q 429 1140 422 1111 l 440 1186 l 457 1253 q 465 1332 465 1286 q 401 1432 465 1432 l 381 1432 q 349 1460 349 1436 l 358 1496 q 424 1546 383 1546 q 482 1530 451 1546 q 525 1493 513 1514 l 576 1383 q 665 1303 614 1303 q 739 1356 701 1303 q 749 1378 749 1365 q 751 1388 750 1381 l 751 1414 l 750 1440 l 750 1467 l 753 1486 q 843 1547 790 1532 m 753 1240 q 739 1249 746 1247 l 714 1232 q 678 1200 678 1213 l 685 1181 l 707 1147 l 785 1007 q 818 964 801 976 q 753 1232 792 1089 l 753 1240 m 590 1193 q 574 1204 583 1204 q 539 1157 553 1204 q 515 1049 535 1143 l 474 849 l 460 814 q 474 794 461 804 l 486 779 q 589 756 531 756 q 694 817 682 756 l 696 835 q 686 879 697 851 q 675 910 675 907 l 663 961 l 649 1001 q 622 1078 639 1019 l 608 1126 l 596 1163 l 590 1193 m 615 1010 l 629 1001 l 646 958 l 654 933 q 661 881 660 917 l 664 817 l 661 786 l 544 786 l 544 849 l 560 897 l 581 967 q 596 1001 589 992 l 615 1010 m 896 664 l 901 471 q 915 379 903 403 q 928 374 918 376 l 928 379 q 981 394 956 394 q 1011 411 1011 399 q 986 479 1011 428 l 896 664 m 265 288 q 295 270 278 288 q 317 240 313 253 q 322 196 322 226 q 317 150 322 163 q 271 111 294 111 l 243 115 q 232 126 235 118 q 221 203 221 165 l 224 233 l 232 257 l 249 275 l 265 288 m 1000 279 q 1071 257 1063 279 l 1092 206 q 1099 161 1100 178 l 1097 142 q 1046 83 1075 83 l 1031 86 l 1013 94 q 960 157 975 113 q 950 200 950 178 q 1000 279 950 253 m 389 211 l 429 201 q 465 194 458 194 q 479 196 478 194 l 497 201 q 538 203 536 214 l 542 179 q 506 96 542 121 q 464 88 493 88 q 428 94 439 88 l 406 122 l 389 149 l 381 185 l 389 211 m 790 810 q 808 851 790 833 q 850 869 826 869 q 892 851 874 869 q 910 810 910 833 q 892 768 910 786 q 850 750 874 750 q 808 768 826 750 q 790 810 790 786 m 332 749 q 350 790 332 772 q 392 808 368 808 q 433 790 415 808 q 451 749 451 772 q 433 707 451 725 q 392 689 415 689 q 350 707 368 689 q 332 749 332 725 m 600 1519 q 632 1525 610 1525 l 660 1519 l 685 1496 q 701 1435 701 1471 q 686 1366 701 1396 q 651 1336 671 1336 q 614 1358 632 1339 q 576 1433 576 1399 q 575 1465 576 1453 q 586 1499 578 1486 l 600 1519 z "},"B":{"ha":1367,"x_min":7,"x_max":1367,"o":"m 175 1542 l 150 1543 q 76 1522 108 1546 q 35 1482 57 1508 q 7 1388 7 1449 q 21 1308 7 1339 l 38 1272 q 67 1256 53 1250 l 83 1288 l 99 1308 q 133 1324 118 1324 q 168 1305 156 1324 q 188 1256 181 1286 q 200 1082 203 1182 l 197 989 q 188 932 196 949 l 175 894 l 161 872 l 136 850 l 115 835 l 92 815 q 81 797 81 803 q 92 782 82 789 l 111 767 l 146 735 q 188 676 188 696 q 196 526 196 610 q 182 353 196 431 q 164 285 179 335 q 161 278 164 283 q 129 268 151 268 q 106 271 118 271 l 76 272 q 50 265 57 269 q 42 239 42 257 l 46 215 q 53 190 50 208 q 93 60 82 75 q 144 19 110 36 q 208 1 178 1 q 246 14 226 1 l 268 28 q 296 43 285 40 l 328 43 l 344 32 q 374 13 356 24 q 404 1 393 1 q 429 14 419 1 l 463 43 l 486 74 q 500 79 492 79 l 518 75 l 569 43 q 604 29 582 36 l 653 15 q 719 1 678 6 l 800 0 q 889 4 853 -1 l 939 17 l 1015 43 q 1111 104 1093 83 l 1168 169 l 1200 210 l 1225 254 l 1238 274 l 1251 300 q 1269 338 1257 313 q 1321 403 1300 392 l 1351 419 q 1367 438 1367 431 q 1353 457 1365 444 l 1322 489 l 1303 511 l 1292 525 l 1276 547 l 1251 600 l 1228 644 l 1200 690 l 1188 708 l 1175 728 l 1149 753 l 1124 782 q 1117 807 1117 799 l 1124 826 l 1149 857 l 1178 885 l 1200 918 q 1228 965 1219 946 l 1251 1015 l 1271 1046 l 1296 1075 l 1322 1104 l 1303 1121 l 1271 1150 l 1225 1211 l 1200 1256 l 1190 1276 l 1175 1301 l 1129 1369 q 1072 1422 1115 1390 l 1040 1446 q 990 1482 1018 1467 q 847 1535 933 1513 q 697 1554 756 1558 l 628 1550 l 531 1515 q 472 1504 500 1504 q 436 1511 454 1504 l 390 1535 q 349 1547 367 1547 q 301 1526 322 1547 l 296 1511 l 268 1503 q 245 1513 261 1503 q 208 1531 229 1524 l 175 1542 m 118 1526 q 144 1529 129 1529 q 194 1519 174 1529 l 221 1496 q 244 1467 224 1493 q 258 1443 254 1454 l 265 1424 q 276 1390 269 1413 l 289 1368 l 315 1339 q 360 1315 336 1315 q 408 1336 385 1315 l 438 1361 q 463 1407 453 1374 l 474 1443 l 488 1475 l 500 1489 q 589 1522 556 1518 q 676 1533 629 1538 l 746 1528 l 831 1517 l 949 1488 q 1008 1458 985 1478 l 1042 1429 l 1078 1385 l 1111 1346 l 1131 1315 l 1182 1204 l 1207 1165 l 1207 1150 l 1192 1121 l 1182 1104 q 1149 1036 1165 1075 l 1131 993 l 1100 950 l 1079 925 l 1053 896 l 1029 876 l 1007 864 l 990 850 l 978 842 l 1008 826 l 1038 808 q 1067 797 1042 806 l 1111 767 l 1131 743 l 1156 707 l 1169 675 l 1183 650 q 1196 617 1192 635 q 1213 586 1200 599 l 1271 504 l 1257 488 q 1233 457 1242 472 l 1194 414 l 1182 382 l 1163 329 l 1131 278 l 1103 236 l 1079 210 q 1039 175 1058 186 l 1008 157 q 975 139 997 146 l 939 128 q 893 111 915 115 l 822 99 q 732 92 783 92 l 699 92 l 633 94 q 575 108 626 100 q 544 118 565 111 q 513 128 522 125 l 488 150 q 472 193 482 160 l 461 232 l 451 253 l 436 276 l 419 294 l 404 307 q 378 318 385 318 q 356 321 367 321 q 315 300 331 321 q 276 247 289 274 l 275 208 l 272 188 l 264 172 q 222 146 250 154 q 158 136 189 136 q 99 157 113 136 l 79 186 l 79 225 q 99 233 88 233 l 136 232 q 163 247 143 239 l 181 265 l 190 283 l 204 319 q 207 353 207 339 q 211 436 211 374 l 211 528 l 208 668 q 200 743 208 700 l 165 772 q 156 788 158 779 l 154 804 q 178 872 153 829 q 207 932 203 915 q 224 1094 224 1004 q 207 1264 224 1192 l 204 1286 l 206 1326 l 200 1364 q 183 1389 196 1379 l 160 1407 q 124 1422 140 1422 l 83 1410 l 61 1404 q 42 1436 42 1407 q 51 1471 43 1453 l 72 1504 l 92 1519 l 118 1526 m 335 1526 q 403 1432 403 1526 q 372 1361 403 1374 l 335 1361 l 318 1376 l 310 1390 q 300 1439 300 1415 q 314 1485 301 1461 l 335 1526 m 743 1407 q 690 1421 729 1421 q 625 1411 664 1421 q 582 1390 592 1403 l 551 1361 q 532 1329 540 1350 l 518 1293 q 494 1178 511 1276 l 494 1121 l 500 1015 l 507 978 q 510 964 510 975 l 510 947 q 560 889 510 908 q 642 875 596 875 q 757 894 708 875 q 825 947 806 913 l 844 983 q 858 1035 858 1010 q 843 1090 858 1056 l 829 1113 l 818 1136 l 818 1165 l 836 1199 q 843 1218 843 1211 q 857 1256 851 1250 l 843 1286 l 808 1353 q 764 1394 790 1378 l 743 1407 m 932 1399 q 915 1407 926 1407 q 904 1397 904 1404 l 907 1383 l 926 1376 q 946 1321 939 1364 l 958 1271 q 992 1246 971 1246 q 1019 1279 1019 1246 q 996 1332 1019 1307 l 932 1399 m 679 1324 q 711 1326 694 1326 l 747 1328 l 794 1322 q 832 1235 832 1311 q 825 1196 832 1207 q 790 1165 803 1171 q 786 1150 786 1161 l 785 1114 q 788 1106 786 1113 q 806 1097 796 1106 l 825 1075 q 839 1018 839 1049 q 788 931 839 965 q 692 901 751 907 l 675 900 l 651 899 q 615 910 625 897 q 593 954 597 928 l 589 1025 l 589 1143 l 599 1215 q 615 1286 606 1267 l 633 1308 q 657 1317 644 1315 l 679 1324 m 1015 1045 q 1013 1047 1015 1045 q 1000 1056 1011 1049 q 988 1043 992 1054 l 978 1029 l 961 1014 l 957 1001 l 963 982 q 958 969 963 974 l 949 954 l 951 949 q 995 974 968 949 q 1022 1025 1022 1000 q 1015 1045 1019 1042 m 767 775 q 724 779 750 781 l 632 774 q 569 758 576 764 l 546 747 l 532 729 l 518 700 q 494 524 492 613 l 496 476 l 500 436 l 506 374 l 517 317 q 551 285 525 303 l 578 267 l 603 254 q 715 226 658 226 q 767 235 739 226 q 814 254 794 243 l 860 285 q 908 386 908 317 q 894 443 907 400 l 868 489 l 868 525 l 894 571 q 913 622 913 603 q 894 668 913 639 l 860 724 q 813 758 843 742 l 767 775 m 983 743 q 967 750 979 750 q 958 743 957 749 l 978 721 l 986 700 q 993 672 988 690 q 1015 624 1001 642 q 1040 615 1022 615 q 1065 636 1065 615 q 1049 681 1065 654 l 1028 714 q 983 743 1006 743 m 743 690 l 776 690 l 825 688 q 856 676 849 683 q 881 642 872 660 q 889 600 889 624 q 876 564 889 579 l 839 528 q 815 483 815 500 q 838 450 818 468 q 876 443 854 450 l 889 414 l 886 374 q 875 335 883 360 q 839 285 849 294 q 776 257 819 267 l 736 247 l 713 243 q 636 264 674 243 q 589 322 593 288 l 589 571 l 606 635 q 630 678 615 671 q 683 686 644 685 q 743 690 731 688 m 1060 382 q 1040 393 1053 393 q 996 357 1015 393 q 983 300 976 321 q 996 289 986 294 q 1022 315 1022 296 l 1047 346 l 1060 357 l 1064 365 l 1060 382 m 986 503 q 1004 546 986 528 q 1047 564 1022 564 q 1090 546 1072 564 q 1108 503 1108 528 q 1090 460 1108 478 q 1047 442 1072 442 q 1004 460 1022 442 q 986 503 986 478 m 940 1154 q 958 1197 940 1179 q 1001 1215 976 1215 q 1044 1197 1026 1215 q 1063 1154 1063 1179 q 1044 1111 1063 1129 q 1001 1093 1026 1093 q 958 1111 976 1093 q 940 1154 940 1129 m 286 825 q 304 868 286 850 q 347 886 322 886 q 390 868 372 886 q 408 825 408 850 q 390 783 408 801 q 347 765 372 765 q 304 783 322 765 q 286 825 286 801 m 339 286 q 363 292 349 292 q 418 197 418 292 l 415 167 l 408 146 l 400 132 q 388 121 397 125 l 371 117 l 346 121 q 311 214 311 147 q 325 278 311 256 l 339 286 m 347 947 q 378 1147 364 1046 l 390 1240 q 354 1257 390 1257 q 303 1247 317 1257 l 347 947 m 338 686 q 307 486 321 588 l 294 393 q 331 376 294 376 q 382 386 368 376 l 338 686 z "},"C":{"ha":1283,"x_min":14,"x_max":1257,"o":"m 724 1571 l 840 1533 l 892 1503 l 944 1503 q 1014 1546 971 1511 q 1076 1574 1049 1574 q 1149 1551 1114 1574 q 1190 1488 1190 1525 q 1183 1435 1193 1460 l 1165 1388 l 1165 1196 q 1142 1135 1161 1165 q 1113 1081 1118 1096 q 1075 1013 1097 1036 l 1013 947 q 1006 939 1007 939 l 976 957 l 964 972 q 946 994 951 982 l 936 1021 l 929 1053 l 928 1097 l 928 1160 q 926 1189 928 1168 q 911 1232 925 1210 q 876 1283 897 1263 q 836 1324 858 1311 q 790 1336 819 1336 q 756 1333 768 1336 q 724 1328 736 1332 q 696 1313 711 1324 l 671 1294 l 647 1269 l 619 1233 l 593 1172 l 583 1110 l 579 1017 q 582 938 576 961 q 593 889 583 907 l 646 829 q 671 789 667 806 q 651 756 675 771 l 618 742 l 606 729 l 593 713 l 579 672 l 568 628 l 568 611 q 565 582 568 607 l 565 510 l 569 472 q 578 396 569 451 q 593 328 586 340 l 614 292 q 632 275 621 279 l 656 258 l 682 246 q 738 239 699 239 q 808 244 785 239 l 849 258 l 890 274 q 915 289 906 279 l 938 306 q 979 358 956 315 q 1015 428 993 385 q 1035 483 1031 465 q 1051 561 1044 515 l 1068 674 l 1074 690 l 1081 704 q 1101 711 1086 710 q 1124 708 1114 711 l 1139 704 l 1164 688 l 1190 674 l 1200 663 l 1243 613 q 1257 582 1256 596 l 1253 561 l 1242 529 l 1233 481 q 1217 413 1229 456 l 1190 321 l 1165 260 l 1140 218 l 1113 175 q 1064 114 1090 140 q 1003 67 1049 99 l 940 33 l 879 6 q 717 -19 800 -19 q 581 6 636 -19 l 543 22 q 510 36 515 31 l 476 57 l 408 113 l 392 129 l 324 193 q 263 282 301 214 l 236 328 l 221 360 l 171 488 l 157 531 l 146 594 q 132 665 142 647 l 107 713 q 79 732 99 721 l 63 742 q 44 757 54 744 l 26 775 q 14 810 14 788 q 63 897 14 844 l 132 972 l 143 1008 l 158 1072 l 196 1181 l 213 1222 l 232 1260 l 250 1300 l 269 1333 l 321 1403 l 353 1439 l 392 1472 l 431 1503 l 483 1533 l 532 1550 l 579 1563 l 629 1569 l 696 1572 l 724 1571 m 607 1556 q 536 1540 585 1556 q 464 1510 488 1525 l 386 1449 q 332 1392 360 1428 l 282 1326 l 268 1301 l 229 1211 l 204 1150 l 179 1063 l 164 1006 l 153 974 l 144 954 l 126 926 l 100 896 q 61 826 61 861 q 63 814 63 821 l 133 740 q 154 694 144 728 q 165 658 164 660 q 175 606 175 642 q 178 567 175 571 l 204 458 l 226 394 q 256 328 242 350 l 360 213 l 399 182 l 442 147 q 489 121 460 132 q 543 103 503 115 l 593 90 q 710 79 638 79 q 797 88 771 79 l 850 104 l 892 121 l 944 151 l 1015 206 l 1068 267 l 1092 304 l 1119 358 l 1147 456 q 1156 504 1154 482 l 1158 571 l 1158 617 q 1156 636 1156 636 q 1146 681 1156 660 l 1088 681 l 1088 654 l 1089 629 l 1088 613 q 1061 504 1083 567 q 1050 471 1060 494 q 1035 435 1049 464 l 1017 396 q 996 358 1006 372 q 965 315 981 331 l 926 283 l 896 263 l 872 251 q 738 219 804 219 q 607 251 671 219 l 579 269 l 549 297 q 510 358 521 328 l 493 406 l 490 417 l 469 504 q 453 597 453 553 q 464 675 453 635 q 496 758 474 708 l 510 789 l 549 850 l 549 865 l 529 896 l 513 914 l 496 942 q 475 996 481 967 q 468 1063 468 1031 q 471 1111 468 1096 l 479 1157 l 493 1211 l 510 1264 l 526 1296 l 554 1340 l 581 1372 l 601 1392 l 626 1410 q 710 1440 661 1440 q 760 1432 731 1440 q 835 1394 807 1418 l 875 1360 q 906 1318 885 1354 l 913 1310 l 944 1249 q 956 1204 953 1232 l 958 1172 l 957 1121 l 957 1086 q 954 1069 954 1071 l 957 1035 l 969 1026 q 989 1035 976 1026 l 1015 1065 l 1029 1088 q 1036 1103 1029 1096 l 1049 1118 l 1068 1157 l 1081 1218 l 1093 1288 l 1093 1303 q 1079 1342 1083 1318 l 1078 1383 l 1081 1456 l 1085 1503 q 1063 1549 1085 1549 q 1022 1533 1049 1549 l 969 1503 q 957 1476 957 1490 q 967 1439 957 1458 l 989 1396 q 976 1388 989 1388 l 964 1403 l 947 1419 q 860 1510 922 1451 l 824 1525 l 776 1542 q 721 1551 754 1550 l 650 1556 l 607 1556 m 411 1318 l 399 1296 l 385 1261 q 372 1204 374 1235 l 368 1135 l 369 1094 q 372 1056 371 1068 l 378 1018 q 379 996 382 1004 q 340 986 368 986 l 297 990 q 257 1001 279 992 l 264 1044 q 279 1104 268 1071 l 293 1146 q 340 1242 306 1185 l 357 1269 l 392 1318 q 406 1329 396 1328 q 411 1318 411 1324 m 282 697 l 347 697 q 363 625 364 685 l 361 525 q 358 507 358 508 q 361 471 358 488 l 371 440 l 396 367 q 411 336 400 349 l 450 290 l 439 281 l 433 276 q 425 290 426 285 l 392 328 l 354 386 l 315 461 l 306 492 q 289 542 297 529 l 275 581 l 263 619 q 250 692 250 649 q 260 715 250 714 q 267 710 263 714 q 282 697 272 707 m 246 850 q 264 808 246 826 q 306 790 282 790 q 347 808 329 790 q 365 850 365 826 q 347 892 365 874 q 306 910 329 910 q 264 892 282 910 q 246 850 246 874 z "},"D":{"ha":1501,"x_min":14,"x_max":1501,"o":"m 781 1550 l 754 1551 l 671 1546 l 608 1535 l 526 1504 l 508 1499 l 490 1496 q 461 1506 474 1496 q 431 1524 449 1517 l 407 1536 l 386 1546 q 367 1551 376 1551 q 339 1535 350 1551 l 315 1504 q 285 1496 301 1496 q 256 1504 268 1496 q 147 1546 194 1546 q 106 1538 126 1546 l 76 1521 q 53 1501 58 1511 l 36 1474 q 14 1399 14 1436 q 26 1322 14 1358 q 86 1256 50 1256 q 103 1271 97 1258 l 114 1289 q 128 1301 122 1300 l 150 1301 l 186 1271 l 210 1188 q 219 1096 219 1153 q 197 939 219 1011 q 139 839 172 860 l 103 817 q 86 794 86 807 q 110 756 89 776 l 128 742 l 161 726 q 186 685 174 721 l 210 619 q 215 569 215 611 l 217 471 l 215 408 q 210 346 214 357 q 179 279 190 296 q 133 250 160 250 q 92 264 114 251 l 51 311 q 29 267 29 311 q 42 178 29 225 l 57 121 q 161 3 89 38 q 218 -14 196 -14 q 268 3 226 -12 l 321 38 l 344 31 q 417 -7 393 -7 l 432 -3 l 450 3 l 492 31 q 532 42 508 42 q 575 31 557 39 l 646 3 q 790 -25 717 -25 q 967 3 842 -25 l 1026 25 q 1100 60 1089 49 l 1143 96 l 1171 121 l 1229 182 l 1251 213 l 1281 257 q 1308 315 1294 279 l 1332 379 l 1357 454 l 1393 594 l 1408 635 l 1433 694 l 1450 714 l 1458 726 l 1485 756 l 1501 786 q 1490 797 1499 794 l 1472 810 l 1433 839 l 1419 853 l 1407 869 l 1397 890 l 1381 924 l 1371 949 l 1357 982 l 1306 1126 l 1281 1188 l 1229 1263 l 1186 1319 l 1126 1383 l 1094 1415 q 1053 1450 1071 1439 l 1013 1475 l 961 1504 q 781 1550 890 1544 m 692 1535 l 732 1535 l 775 1536 l 847 1531 q 903 1513 874 1526 l 967 1483 l 1013 1454 l 1056 1422 l 1133 1347 q 1158 1313 1142 1338 q 1174 1288 1164 1306 l 1196 1249 l 1236 1181 l 1293 1031 q 1297 990 1297 1019 l 1297 964 l 1299 932 q 1313 907 1303 913 l 1368 857 l 1389 832 l 1389 825 l 1356 788 q 1338 749 1349 776 l 1313 688 l 1286 531 l 1261 447 l 1236 372 l 1206 314 l 1185 279 l 1140 229 l 1103 193 l 1071 165 l 1043 146 q 1017 126 1033 136 l 993 113 l 914 85 q 844 67 892 76 l 765 63 l 699 65 l 650 69 l 597 75 q 556 85 563 79 q 486 203 529 110 q 403 297 450 281 l 371 303 q 349 294 361 303 l 331 279 l 314 256 q 299 204 311 251 l 289 167 l 263 133 l 235 111 q 183 97 218 97 q 121 113 140 97 l 92 153 q 69 185 83 161 q 63 221 50 217 q 85 224 72 224 l 106 221 l 138 219 q 179 243 171 225 l 204 271 q 229 357 222 294 q 238 500 239 438 l 236 579 l 232 635 q 226 688 229 669 q 204 735 219 724 l 192 749 l 168 786 q 149 822 149 810 l 196 876 q 232 954 221 906 q 238 1039 238 971 l 238 1056 q 231 1208 238 1122 q 204 1347 221 1331 l 179 1383 q 126 1413 154 1413 q 74 1383 94 1413 l 63 1383 l 50 1413 l 44 1439 q 65 1486 44 1453 q 79 1504 75 1501 q 163 1529 117 1529 l 196 1525 q 226 1513 214 1522 l 263 1468 l 286 1428 l 315 1369 q 339 1331 333 1333 q 382 1313 361 1313 q 425 1329 403 1313 q 440 1346 436 1336 l 451 1367 l 465 1408 l 486 1451 l 494 1467 q 513 1483 501 1474 l 558 1501 l 590 1513 l 643 1526 l 692 1535 m 768 1399 l 750 1400 l 692 1394 l 646 1382 l 603 1363 q 569 1324 583 1347 q 553 1256 557 1290 l 544 1188 q 532 1100 532 1136 q 526 1038 526 1061 l 526 992 q 532 929 526 946 q 574 872 539 907 q 604 829 604 840 q 569 749 604 808 l 547 725 q 529 625 529 713 l 529 597 q 528 558 529 583 q 526 518 526 532 l 526 490 l 528 413 l 532 369 l 535 354 l 550 308 l 569 279 q 633 213 603 228 q 751 185 694 181 l 785 188 l 814 196 l 850 215 q 885 243 871 226 l 908 264 q 979 401 949 300 q 1006 594 1006 490 q 974 749 1006 694 l 960 765 l 947 779 q 896 825 926 794 l 890 839 l 918 865 q 968 964 957 903 q 975 1046 975 1004 q 947 1225 975 1147 l 932 1268 l 922 1286 l 896 1324 l 871 1354 l 847 1376 q 817 1388 847 1376 l 797 1394 l 768 1399 m 1013 1331 q 997 1332 1003 1336 l 993 1324 l 1013 1294 l 1032 1271 l 1056 1210 l 1074 1140 q 1076 1124 1076 1129 l 1076 1107 l 1078 1025 q 1094 982 1082 999 q 1136 974 1103 974 q 1175 999 1175 974 q 1164 1044 1175 1018 l 1151 1074 l 1139 1121 q 1126 1157 1132 1147 l 1100 1203 l 1075 1249 l 1056 1278 q 1024 1308 1042 1299 l 1013 1324 l 1013 1331 m 731 1301 l 747 1304 l 768 1304 l 800 1301 l 840 1288 q 881 1268 871 1276 q 903 1240 885 1265 l 928 1194 q 942 1128 940 1172 l 946 1024 l 943 956 l 935 914 q 888 865 929 900 q 846 807 846 831 q 864 771 847 788 l 908 756 l 942 735 l 961 711 l 972 688 q 983 614 983 668 l 983 583 q 969 431 983 514 q 928 311 957 357 l 890 264 l 871 247 l 851 236 q 792 221 818 222 l 719 217 q 668 221 692 215 q 638 236 644 226 q 629 283 632 246 l 626 325 l 626 417 l 629 564 q 640 651 631 633 l 650 674 q 667 694 657 690 l 703 711 q 725 744 725 725 q 700 793 725 764 l 640 863 q 631 946 631 890 l 631 1040 l 633 1146 l 642 1224 q 667 1271 647 1250 q 700 1294 679 1290 l 731 1301 m 1171 674 q 1136 686 1157 686 q 1081 651 1088 679 l 1089 560 l 1093 476 l 1090 422 l 1081 379 l 1100 393 q 1121 421 1118 411 l 1131 461 l 1156 544 l 1168 592 q 1175 635 1175 618 l 1171 674 m 303 799 q 321 840 303 822 q 363 858 339 858 q 404 840 386 858 q 422 799 422 822 q 404 757 422 775 q 363 739 386 739 q 321 757 339 739 q 303 799 303 775 m 1072 815 q 1090 857 1072 839 q 1132 875 1108 875 q 1174 857 1156 875 q 1192 815 1192 839 q 1174 774 1192 792 q 1132 756 1156 756 q 1090 774 1108 756 q 1072 815 1072 792 m 358 268 q 382 274 368 274 q 438 179 438 274 l 435 149 l 428 128 l 419 114 q 407 103 417 107 l 390 99 l 365 103 q 331 196 331 129 q 344 260 331 238 l 358 268 m 365 658 q 335 458 349 560 l 322 365 q 358 349 322 349 q 410 358 396 349 l 365 658 m 375 947 q 406 1147 392 1046 l 418 1240 q 382 1257 418 1257 q 331 1247 344 1257 l 375 947 m 356 1514 q 379 1519 364 1519 q 439 1414 439 1519 l 436 1386 l 425 1356 l 407 1333 q 388 1328 397 1328 l 363 1333 q 324 1433 324 1357 q 339 1503 324 1479 l 356 1514 z "},"E":{"ha":1267,"x_min":7,"x_max":1263,"o":"m 165 1575 l 192 1561 l 228 1543 l 249 1531 l 288 1531 l 293 1546 q 374 1574 333 1574 q 414 1561 399 1574 l 453 1531 q 492 1517 475 1518 q 538 1533 503 1517 q 590 1553 572 1550 l 653 1561 l 718 1565 q 874 1531 799 1571 l 931 1500 q 963 1492 946 1492 l 999 1500 q 1053 1532 1013 1504 q 1104 1556 1088 1556 q 1167 1531 1128 1556 l 1176 1519 l 1194 1497 q 1204 1472 1203 1483 l 1200 1454 l 1193 1432 l 1193 1229 l 1197 1204 l 1200 1193 l 1197 1175 l 1193 1154 l 1182 1100 q 1144 1013 1172 1051 l 1090 935 l 1058 906 l 1021 950 q 1005 974 1013 957 q 997 1025 997 990 l 997 1050 l 999 1078 l 999 1103 q 993 1122 997 1111 l 982 1171 q 969 1214 979 1186 l 950 1251 l 940 1267 l 918 1296 q 901 1311 915 1303 l 879 1328 q 840 1344 865 1338 l 790 1357 l 733 1357 l 686 1340 q 650 1326 671 1336 l 632 1304 l 617 1271 l 606 1236 q 590 1086 590 1189 q 606 957 590 1006 l 618 943 l 640 943 q 664 950 660 946 l 674 972 q 678 1017 679 994 l 674 1076 q 664 1131 672 1100 l 650 1154 q 667 1165 654 1165 q 690 1157 676 1165 l 721 1139 q 769 1108 760 1117 q 807 1075 793 1093 q 861 981 826 1051 q 874 936 874 956 q 871 911 874 921 l 861 875 l 850 831 q 835 785 849 819 l 835 776 l 861 717 l 871 688 l 874 660 q 872 627 874 638 q 863 589 871 617 q 851 549 860 574 l 835 513 l 817 472 q 785 422 813 461 l 758 393 l 754 386 l 746 393 q 697 485 704 442 l 697 510 l 696 538 q 689 581 693 554 l 676 633 l 650 664 q 625 672 640 672 q 594 629 601 672 l 592 525 l 592 475 q 594 385 592 408 q 642 256 594 285 q 711 240 665 240 q 851 276 778 240 q 950 354 924 313 l 969 400 l 994 506 l 1021 565 q 1068 654 1035 599 q 1143 696 1101 696 q 1179 686 1160 696 q 1238 574 1240 656 l 1236 524 l 1236 504 q 1233 474 1236 499 l 1235 436 q 1243 407 1235 422 q 1263 288 1263 353 q 1254 244 1263 269 l 1243 219 l 1218 136 q 1175 43 1201 82 q 1142 10 1157 10 l 1085 68 l 1051 93 q 1017 104 1035 103 q 982 92 1003 104 q 947 64 974 85 l 903 29 q 844 10 886 15 q 794 0 824 7 l 763 -1 l 743 -1 l 726 0 l 663 8 q 593 31 631 13 l 561 46 q 535 62 553 50 q 500 75 518 74 q 464 60 483 75 l 428 31 l 397 15 q 369 31 388 15 l 332 61 l 315 71 l 293 76 l 263 56 l 236 31 q 181 8 213 8 q 115 31 150 8 l 86 54 l 51 106 l 13 174 l 10 226 q 13 289 8 264 q 19 325 14 321 q 47 315 31 331 l 71 294 q 110 285 85 285 q 183 321 168 285 q 197 390 196 349 l 201 532 q 196 636 201 607 q 179 724 193 699 q 174 728 176 725 q 156 740 161 739 l 133 754 q 68 806 68 775 q 128 864 68 832 q 179 926 158 881 l 204 1003 l 206 1035 l 207 1082 l 207 1099 q 205 1187 207 1153 q 185 1258 203 1221 q 151 1325 172 1294 l 121 1326 l 96 1297 q 79 1289 92 1289 q 18 1338 40 1289 q 7 1401 7 1371 q 68 1547 7 1493 q 140 1579 104 1579 l 165 1575 m 96 1553 l 79 1540 l 64 1531 q 38 1467 38 1504 q 64 1433 38 1433 q 97 1444 72 1433 q 133 1454 114 1453 q 175 1425 161 1454 l 197 1379 q 228 1131 228 1317 l 228 1114 q 222 1010 228 1036 q 206 932 219 961 q 172 885 197 910 q 147 853 158 871 l 147 829 q 154 820 150 826 q 171 800 158 814 l 197 769 q 218 694 221 743 l 217 664 l 217 633 l 219 436 q 197 317 217 401 q 99 247 181 267 q 65 224 65 239 q 71 204 65 214 l 121 144 q 163 125 138 125 q 217 144 190 125 q 249 169 228 147 l 279 203 q 293 238 288 218 l 306 288 l 317 306 l 332 322 q 358 332 339 329 q 389 325 375 332 l 428 294 l 440 278 l 453 256 l 464 228 l 478 189 l 497 136 q 512 123 499 128 q 532 111 525 118 q 583 104 550 106 l 676 101 l 754 101 q 785 104 782 104 q 844 113 826 104 l 876 128 l 928 157 l 950 174 l 982 204 l 1001 228 l 1021 257 q 1036 311 1026 290 q 1053 317 1042 321 q 1054 296 1057 313 l 1039 257 l 1031 219 l 1028 185 q 1081 126 1024 126 q 1122 144 1108 126 l 1122 167 l 1147 235 q 1160 365 1160 289 l 1160 397 q 1157 431 1160 408 q 1146 471 1157 446 q 1133 540 1135 503 l 1129 625 l 1129 679 l 1135 686 l 1122 679 l 1103 664 l 1069 625 q 1038 576 1046 597 l 1017 525 l 989 426 q 963 350 981 396 l 913 294 q 732 222 847 222 q 542 272 642 222 q 507 333 515 285 l 501 418 l 501 454 l 503 486 l 510 656 l 518 751 q 567 790 526 790 q 632 776 590 790 q 664 757 656 768 l 681 718 l 694 682 l 708 618 l 726 528 q 735 519 728 521 l 744 526 l 757 543 l 765 558 l 779 592 l 789 625 l 794 657 l 800 707 q 778 785 800 757 l 753 801 q 736 824 736 813 q 746 853 736 839 l 765 882 q 778 929 776 897 l 782 993 q 778 1040 783 1015 l 765 1063 q 717 1107 742 1104 q 693 1045 700 1107 q 682 972 686 983 q 597 882 650 882 q 536 906 572 882 q 514 935 522 915 l 508 981 l 508 1006 l 510 1033 l 504 1206 l 508 1296 q 529 1364 510 1328 q 554 1390 538 1381 q 586 1410 579 1403 q 614 1426 601 1421 l 644 1440 q 701 1454 675 1454 q 765 1442 729 1454 l 818 1424 l 849 1410 l 864 1396 l 881 1379 l 913 1350 l 926 1332 l 942 1311 l 981 1246 q 996 1213 989 1229 q 1010 1117 1007 1183 q 1014 1049 1011 1089 q 1033 1036 1021 1036 q 1053 1049 1044 1036 l 1071 1078 l 1097 1139 q 1111 1221 1114 1176 l 1107 1296 l 1097 1424 q 1103 1478 1094 1454 l 1122 1515 l 1110 1522 l 1093 1525 q 1007 1485 1033 1525 l 1004 1471 q 1025 1422 1004 1454 q 1040 1397 1031 1415 q 1046 1388 1043 1392 q 1039 1385 1040 1385 l 1026 1388 l 994 1432 l 976 1456 q 950 1478 964 1472 l 899 1508 l 871 1521 l 817 1538 q 736 1551 788 1551 q 621 1538 686 1551 q 526 1510 550 1522 q 492 1490 499 1494 q 469 1458 472 1475 l 465 1431 q 458 1407 463 1417 l 444 1386 q 421 1356 432 1363 q 383 1338 393 1339 q 338 1357 374 1338 l 326 1365 l 306 1388 l 281 1417 q 265 1443 274 1425 l 256 1478 l 236 1508 l 204 1536 q 171 1550 189 1544 l 125 1556 q 96 1553 104 1556 m 296 840 q 314 799 296 817 q 356 781 332 781 q 397 799 379 781 q 415 840 415 817 q 397 882 415 864 q 356 900 379 900 q 314 882 332 900 q 296 840 296 864 m 339 296 l 325 288 q 311 224 311 265 q 346 131 311 157 l 371 126 l 388 131 q 400 142 397 135 l 408 156 l 415 176 l 418 207 q 363 301 418 301 q 339 296 349 301 m 356 689 l 400 389 q 349 379 386 379 q 313 396 313 379 l 325 489 q 356 689 339 590 m 351 981 l 307 1281 q 358 1290 321 1290 q 394 1274 394 1290 l 382 1181 q 351 981 368 1079 m 336 1550 l 319 1539 q 304 1469 304 1515 q 343 1369 304 1393 l 368 1364 q 388 1369 378 1364 l 406 1392 l 417 1422 l 419 1450 q 360 1556 419 1556 q 336 1550 344 1556 z "},"F":{"ha":1228,"x_min":31,"x_max":1229,"o":"m 217 1546 l 224 1539 l 257 1521 l 288 1508 l 332 1508 q 349 1522 340 1510 l 363 1538 q 403 1553 381 1551 q 451 1538 424 1553 l 481 1513 q 515 1493 501 1494 l 560 1508 l 642 1542 q 719 1553 683 1553 q 878 1508 800 1553 l 985 1447 l 992 1447 q 1132 1544 1071 1544 q 1169 1531 1157 1544 l 1214 1478 q 1229 1438 1229 1463 q 1222 1400 1229 1429 l 1214 1365 l 1214 1253 q 1218 1235 1218 1249 l 1213 1181 l 1203 1100 q 1189 1021 1201 1083 l 1176 989 l 1163 960 q 1129 911 1150 935 l 1100 885 q 1058 864 1076 864 q 1024 889 1043 864 l 997 922 q 986 946 988 935 q 992 968 986 958 q 999 1040 999 1007 q 967 1222 999 1169 l 947 1246 l 931 1258 l 915 1275 l 872 1290 l 819 1306 l 775 1306 q 706 1292 733 1301 q 656 1275 674 1285 l 629 1200 l 622 1133 l 619 1028 q 629 900 617 932 l 649 878 l 674 878 l 693 893 l 704 917 l 711 938 l 715 971 l 717 1014 q 713 1081 718 1058 l 693 1103 l 688 1128 q 706 1146 688 1144 q 747 1133 721 1146 l 774 1118 q 792 1104 782 1115 l 807 1088 l 838 1060 q 858 1028 843 1054 l 883 983 q 903 915 903 949 l 903 890 q 897 872 900 883 l 883 825 l 858 772 l 853 736 q 858 697 853 708 q 883 594 883 649 q 858 503 883 540 l 833 465 l 819 447 l 807 435 l 778 408 q 767 415 771 413 l 744 435 q 721 471 729 446 q 717 528 717 492 l 717 603 q 704 631 717 613 l 693 646 q 657 669 678 667 q 615 596 624 669 l 604 503 l 601 454 q 604 428 600 442 q 614 344 604 393 q 629 278 615 324 l 642 263 l 656 247 l 675 243 l 686 247 l 713 271 q 744 278 717 278 q 781 253 760 278 l 807 210 q 811 176 811 197 l 807 135 q 782 60 799 93 l 760 32 l 744 15 q 678 -15 717 -15 q 592 15 636 -15 l 547 46 l 528 53 q 503 31 518 53 q 446 -14 472 -14 q 382 15 431 -14 l 372 25 l 356 46 l 349 50 l 342 51 q 315 39 331 51 l 288 15 q 231 -4 256 -4 q 201 0 217 -4 l 164 17 q 125 53 146 25 l 97 104 l 65 172 l 63 225 l 64 272 q 71 293 64 289 q 97 279 82 299 l 122 247 l 160 247 q 204 278 182 256 q 219 326 214 290 q 231 371 225 361 l 238 406 l 240 456 q 229 563 243 511 l 204 721 l 185 750 l 167 765 q 111 811 111 790 q 143 847 111 821 l 179 878 l 192 890 l 204 908 q 219 978 215 924 l 229 1088 l 229 1140 l 221 1208 l 204 1290 q 179 1308 201 1299 q 147 1313 157 1318 q 133 1269 142 1307 q 110 1215 125 1231 q 103 1213 106 1213 q 51 1313 88 1213 l 33 1343 l 31 1367 q 46 1447 31 1404 q 90 1515 64 1496 l 132 1539 q 182 1549 146 1549 l 200 1549 l 217 1546 m 140 1522 l 122 1515 l 96 1493 l 76 1447 q 64 1389 64 1418 q 71 1372 64 1375 l 115 1388 l 143 1399 q 176 1406 156 1404 q 233 1344 215 1406 q 249 1253 240 1322 l 256 1197 l 258 1164 q 250 1104 260 1147 q 242 1010 242 1067 q 224 900 242 944 q 208 874 224 896 q 186 825 190 847 q 199 788 186 808 l 224 758 q 244 688 243 742 q 249 608 247 615 l 256 551 l 258 454 q 253 357 258 400 q 236 285 246 307 q 176 239 221 250 l 122 225 l 110 210 q 108 199 108 204 q 110 185 108 192 l 121 160 l 142 140 l 167 128 q 219 114 186 114 q 281 128 254 114 q 306 158 290 133 q 328 222 311 164 q 399 310 353 310 q 439 300 421 310 l 464 286 q 483 271 472 282 l 503 218 l 514 190 l 528 158 q 557 124 538 140 l 599 97 q 639 90 621 90 q 671 94 661 89 q 710 143 689 104 q 732 211 732 182 q 725 233 732 224 l 693 225 q 656 214 672 215 q 540 331 560 214 q 535 378 540 351 q 525 431 526 414 q 521 499 521 464 q 535 622 521 560 q 546 674 536 638 q 560 713 549 689 l 572 728 q 592 740 576 736 l 626 746 q 675 735 658 746 q 696 711 692 725 l 706 683 l 721 657 l 731 631 l 746 574 q 775 544 754 544 l 789 547 l 814 608 l 814 660 l 800 678 q 783 744 789 700 l 775 810 q 785 838 782 835 l 813 868 q 824 897 815 874 l 826 933 q 814 1021 829 976 l 804 1042 l 789 1065 l 750 1096 l 744 1096 l 731 1081 l 731 975 l 722 931 q 706 893 719 919 l 693 871 l 674 856 q 629 833 651 833 q 608 836 617 833 l 572 856 l 560 872 l 540 908 l 536 938 l 535 993 q 543 1197 533 1068 q 560 1290 549 1265 l 572 1328 q 700 1388 585 1388 l 718 1388 q 871 1358 815 1388 l 889 1344 l 908 1328 q 989 1231 969 1288 q 1000 1118 1000 1194 q 1011 997 1000 1038 l 1024 983 q 1044 982 1029 979 q 1068 997 1054 986 l 1081 1021 l 1100 1050 l 1118 1088 q 1133 1151 1126 1106 l 1138 1231 l 1136 1300 l 1131 1410 l 1131 1515 q 1121 1521 1129 1521 q 1068 1493 1096 1521 l 1039 1457 l 1024 1433 q 1036 1381 1021 1426 l 1049 1343 q 1011 1378 1038 1338 l 979 1425 l 958 1443 l 940 1456 q 819 1515 885 1494 q 772 1525 800 1524 l 706 1528 q 592 1515 638 1531 q 571 1501 583 1514 l 554 1485 l 528 1456 l 515 1432 l 503 1396 q 422 1315 475 1315 q 357 1335 397 1315 q 332 1364 349 1339 l 317 1400 l 306 1440 q 281 1485 301 1457 l 258 1503 l 235 1515 l 213 1524 l 182 1526 l 140 1522 m 394 683 l 439 383 q 388 374 425 374 q 351 390 351 374 l 364 483 q 394 683 378 585 m 329 815 q 347 774 329 792 q 389 756 365 756 q 431 774 413 756 q 449 815 449 792 q 431 857 449 839 q 389 875 413 875 q 347 857 365 875 q 329 815 329 839 m 381 286 l 367 278 q 353 214 353 256 q 388 121 353 147 l 413 117 l 429 121 q 442 132 439 125 l 450 146 l 457 167 l 460 197 q 404 292 460 292 q 381 286 390 292 m 382 938 l 338 1238 q 389 1247 351 1247 q 425 1231 425 1247 l 413 1138 q 382 938 399 1036 m 378 1519 l 361 1508 q 346 1439 346 1485 q 385 1339 346 1363 l 410 1333 q 429 1339 419 1333 l 447 1361 l 458 1392 l 461 1419 q 401 1525 461 1525 q 378 1519 386 1525 z "},"G":{"ha":1360,"x_min":21,"x_max":1360,"o":"m 1074 1558 l 1079 1550 l 1122 1526 q 1147 1453 1150 1511 l 1144 1408 q 1125 1124 1139 1303 l 1115 1090 q 1100 1057 1114 1083 q 1046 971 1069 1001 l 972 899 l 968 892 l 960 899 l 915 922 q 894 957 894 933 q 904 999 894 960 q 914 1075 914 1039 q 903 1154 914 1114 l 878 1244 l 858 1274 l 839 1296 q 719 1338 788 1338 q 643 1319 678 1338 l 592 1258 l 576 1219 l 567 1176 q 556 1000 556 1128 l 556 940 q 565 876 556 903 q 599 842 569 868 q 622 807 622 818 q 615 783 622 800 l 603 754 l 592 733 l 567 689 q 554 626 556 669 l 550 531 l 554 422 q 592 292 557 357 l 617 261 q 679 246 640 246 q 789 283 760 246 l 813 321 l 826 351 q 835 465 835 385 q 826 599 835 553 l 818 615 q 774 646 807 646 q 728 640 753 646 q 693 629 703 635 l 676 617 l 656 599 l 640 593 q 635 603 635 599 q 649 651 635 618 l 656 668 l 674 696 l 688 711 q 793 783 732 783 q 839 771 814 783 q 868 764 849 765 q 924 785 881 764 q 985 801 963 806 q 1033 769 1008 797 q 1074 733 1061 738 q 1104 739 1086 729 l 1150 771 l 1172 774 q 1239 740 1207 774 l 1296 682 q 1328 636 1304 668 l 1349 596 l 1353 583 l 1360 564 q 1349 558 1360 556 l 1324 568 l 1289 579 l 1253 585 q 1226 576 1238 585 q 1201 367 1201 493 l 1201 300 q 1226 142 1206 251 l 1243 83 l 1250 44 q 1226 14 1250 14 l 1207 29 l 1168 38 l 1122 40 q 1069 38 1099 42 l 1011 29 l 865 0 l 765 -15 l 697 -21 l 635 -17 q 589 -7 599 -10 q 529 19 554 3 l 472 57 l 435 86 l 401 119 l 369 149 l 343 176 l 319 208 l 293 239 l 268 276 l 249 307 l 232 336 q 217 367 226 350 q 189 419 208 372 l 119 593 l 90 683 q 71 726 86 699 q 49 746 69 732 l 26 764 l 21 794 q 47 844 21 818 q 115 921 110 907 l 167 1086 l 176 1133 q 192 1188 178 1147 l 213 1239 l 246 1306 l 297 1379 q 357 1446 326 1421 q 633 1550 485 1550 q 794 1521 706 1550 l 883 1492 l 928 1492 l 951 1513 q 1008 1536 964 1518 l 1043 1551 l 1061 1568 q 1074 1558 1072 1561 m 611 1536 q 364 1424 482 1513 l 293 1340 l 261 1296 l 236 1236 l 211 1169 l 176 1040 q 160 974 171 1014 q 140 921 151 939 q 110 869 135 906 l 83 839 q 75 813 75 829 q 83 785 75 803 l 97 756 l 110 732 l 133 669 l 146 622 l 160 576 l 211 457 q 243 394 219 436 l 313 292 l 338 261 l 382 232 l 433 201 l 465 186 q 507 168 496 178 l 549 153 l 588 140 l 639 132 l 710 128 l 767 128 q 782 131 781 131 q 833 142 807 131 l 894 156 l 986 178 l 1060 192 q 1106 254 1093 204 l 1111 317 l 1106 471 q 1113 532 1104 504 l 1119 556 l 1139 613 q 1189 651 1150 624 l 1206 654 l 1239 650 l 1271 651 q 1261 690 1278 664 l 1233 726 q 1175 746 1210 746 q 1135 740 1154 746 q 1093 719 1115 735 q 1078 694 1086 717 l 1061 651 q 990 600 1031 600 q 951 613 972 600 q 910 644 929 625 q 876 706 897 669 l 863 722 l 839 749 q 804 764 828 764 q 758 753 782 764 q 718 733 739 749 l 706 719 l 685 690 q 672 660 676 679 l 700 651 q 761 675 721 675 q 821 651 801 675 l 836 619 l 846 576 l 846 389 q 838 336 842 363 q 807 283 833 315 l 789 261 q 747 229 775 244 q 694 221 725 221 l 650 225 q 604 239 628 226 l 557 256 q 503 299 524 267 l 489 319 l 471 354 l 457 404 l 446 464 q 433 554 433 531 q 446 643 433 586 l 471 757 l 510 824 l 503 854 l 465 883 q 446 972 446 919 q 453 1056 446 1008 q 471 1146 458 1090 l 490 1229 q 522 1311 504 1289 l 547 1342 q 569 1360 556 1354 l 599 1371 q 682 1392 639 1392 l 708 1392 q 782 1371 728 1388 q 808 1361 793 1368 l 833 1342 l 851 1322 l 871 1296 l 896 1251 l 926 1158 l 935 1139 q 939 1082 938 1126 l 940 1026 q 951 1022 947 1022 l 979 1042 l 994 1060 l 1011 1086 l 1029 1124 l 1043 1169 l 1056 1221 l 1056 1349 l 1043 1514 l 1029 1529 q 986 1514 1015 1529 l 957 1499 q 943 1458 943 1492 l 947 1432 l 972 1396 q 985 1357 994 1364 l 928 1424 l 904 1449 l 878 1469 l 826 1499 q 726 1525 797 1515 q 611 1536 647 1536 m 453 1417 l 439 1394 l 428 1372 l 414 1349 l 400 1308 l 388 1263 l 374 1200 l 363 1144 l 360 1118 l 358 1092 l 358 1068 l 360 1046 q 353 1002 361 1021 q 313 958 344 983 l 294 944 l 285 942 q 269 961 276 942 l 267 996 q 275 1054 265 1018 l 311 1183 q 339 1256 317 1204 l 369 1311 l 390 1347 l 421 1394 l 429 1415 q 440 1425 432 1422 l 453 1417 m 947 779 q 940 769 947 776 q 922 749 939 769 l 922 674 l 932 658 q 960 621 954 622 l 979 621 l 1004 651 q 1011 685 1010 664 q 967 779 1011 749 l 947 779 m 313 653 l 313 607 l 322 547 l 338 486 l 353 431 l 364 396 l 376 382 l 344 389 l 332 404 l 319 426 l 303 457 l 293 479 l 268 554 l 239 618 q 224 689 218 664 q 265 707 233 707 q 313 653 313 707 m 1011 517 q 1017 486 1015 513 l 1018 453 l 1018 438 q 1013 326 1018 364 q 1000 243 1010 265 l 996 233 l 993 231 l 988 242 l 979 269 l 964 343 l 935 517 l 1011 517 m 214 840 q 232 799 214 817 q 274 781 250 781 q 315 799 297 781 q 333 840 333 817 q 315 882 333 864 q 274 900 297 900 q 232 882 250 900 q 214 840 214 864 z "},"H":{"ha":1528,"x_min":17,"x_max":1528,"o":"m 1528 1283 q 1518 1349 1528 1303 q 1501 1397 1510 1386 l 1489 1421 l 1476 1442 l 1446 1483 l 1421 1501 q 1388 1521 1401 1515 q 1363 1532 1383 1525 l 1325 1538 l 1314 1535 l 1301 1531 l 1268 1518 l 1229 1500 q 1206 1493 1214 1493 q 1186 1501 1196 1493 l 1165 1519 l 1140 1532 q 1111 1538 1129 1538 q 1068 1524 1096 1536 q 1014 1497 1025 1497 l 997 1501 l 940 1526 q 899 1536 918 1536 q 815 1501 863 1536 l 800 1488 l 789 1472 q 782 1417 782 1442 q 792 1344 782 1390 q 821 1286 804 1307 q 838 1279 824 1286 q 866 1300 847 1281 q 890 1319 885 1319 q 908 1308 903 1317 q 928 1269 924 1285 l 935 1161 q 938 1140 935 1158 l 938 1060 l 935 993 l 928 950 q 768 886 865 879 l 711 890 l 647 899 q 617 908 635 901 l 614 1033 l 618 1069 l 618 1121 l 632 1250 q 636 1297 635 1274 q 667 1324 643 1324 q 718 1299 681 1324 q 768 1275 756 1275 q 782 1283 778 1275 l 786 1308 q 740 1438 786 1358 q 651 1532 694 1518 l 615 1538 q 529 1515 589 1538 l 474 1494 q 442 1513 464 1494 q 414 1532 421 1531 l 394 1540 l 378 1544 q 347 1532 364 1544 l 315 1507 q 282 1496 301 1496 l 260 1501 l 201 1531 l 165 1546 l 138 1543 q 101 1532 119 1542 l 76 1515 l 51 1494 l 21 1450 q 17 1417 17 1442 q 22 1338 17 1385 q 44 1269 32 1274 l 83 1256 l 96 1278 q 129 1311 106 1294 q 154 1322 146 1322 q 171 1308 167 1322 l 185 1260 l 196 1211 q 208 1085 208 1157 q 196 958 208 1008 l 183 908 l 171 869 l 153 844 l 121 817 l 94 799 q 85 786 89 793 q 108 763 86 776 q 179 693 174 719 l 196 621 q 203 525 203 590 l 203 467 l 197 397 l 189 333 q 171 278 183 296 q 135 257 153 257 q 86 285 115 258 q 44 310 57 311 q 24 263 24 301 q 41 170 24 228 q 72 93 58 113 q 104 46 93 57 q 153 19 115 35 l 185 1 l 193 0 q 229 19 207 4 q 301 54 282 54 q 332 44 318 51 l 381 19 q 408 7 388 15 q 413 6 410 7 q 443 19 421 7 l 474 44 q 504 57 489 57 q 531 47 518 56 l 556 32 l 582 19 q 638 4 614 4 q 682 19 663 4 l 703 32 q 719 47 715 40 l 746 79 q 776 165 776 117 q 753 235 776 197 q 699 272 729 272 q 651 250 690 271 l 644 250 l 625 278 l 618 306 q 614 367 614 319 l 613 465 q 618 611 611 588 q 644 660 626 640 l 658 675 q 703 689 683 688 l 760 693 q 789 690 785 690 l 807 690 l 872 689 l 903 685 q 922 678 908 683 q 928 675 925 678 q 939 571 938 625 l 943 444 l 939 356 q 928 297 935 331 l 908 264 l 890 250 l 876 246 l 860 244 l 839 250 l 825 275 q 799 297 813 297 q 774 242 774 297 q 810 113 774 179 q 903 19 849 42 l 939 4 q 979 0 960 0 l 1004 4 l 1046 58 q 1061 75 1053 69 q 1065 78 1063 76 q 1067 79 1067 79 l 1093 63 l 1111 47 l 1125 32 q 1149 18 1135 24 l 1175 14 q 1186 19 1181 14 l 1215 43 l 1224 54 l 1242 57 q 1282 47 1268 57 l 1332 19 q 1372 7 1354 7 q 1413 19 1389 7 l 1469 50 q 1501 108 1485 65 l 1519 156 q 1525 185 1525 167 q 1476 250 1525 206 l 1446 278 l 1421 283 q 1411 276 1417 282 l 1414 261 q 1407 250 1413 253 l 1389 250 l 1376 264 q 1353 371 1356 319 l 1351 392 l 1351 621 l 1365 676 l 1376 711 l 1407 746 l 1425 763 q 1440 790 1440 776 q 1413 832 1440 808 q 1376 869 1381 860 q 1361 917 1365 885 l 1351 986 l 1351 1121 l 1365 1231 q 1408 1286 1372 1286 q 1464 1269 1429 1286 l 1483 1253 l 1496 1242 q 1528 1283 1528 1235 m 431 1419 l 424 1386 l 417 1365 l 408 1351 q 396 1340 406 1344 l 379 1336 l 354 1340 q 319 1433 319 1367 q 333 1497 319 1475 l 347 1506 q 371 1511 357 1511 q 408 1475 397 1511 q 431 1419 431 1433 m 1458 1383 q 1447 1372 1456 1372 q 1413 1383 1428 1375 l 1383 1394 l 1372 1396 q 1343 1383 1361 1396 l 1325 1371 q 1307 1353 1313 1363 l 1282 1308 q 1256 1165 1253 1256 l 1258 1082 l 1263 986 l 1261 940 l 1264 914 q 1282 883 1272 896 l 1307 853 l 1325 835 l 1332 824 l 1332 808 l 1307 786 l 1282 756 q 1253 582 1247 704 l 1257 486 l 1263 419 l 1263 303 l 1278 269 q 1300 242 1292 249 l 1332 228 l 1350 218 l 1376 210 l 1389 213 l 1394 228 l 1411 232 l 1432 228 q 1439 188 1439 203 q 1433 164 1438 169 l 1424 147 l 1413 129 l 1374 100 q 1340 92 1363 92 q 1293 100 1314 92 q 1224 182 1242 131 l 1217 214 q 1199 250 1213 233 l 1175 278 q 1115 308 1149 308 q 1054 250 1075 308 q 1044 219 1050 242 l 1036 182 l 1029 161 q 983 114 1024 132 q 915 100 950 100 q 879 113 904 100 l 846 129 l 821 161 l 817 182 l 814 210 q 815 228 814 224 l 831 229 l 871 226 l 899 232 q 922 257 908 236 l 935 276 q 949 307 946 288 q 960 386 958 328 l 964 528 l 960 646 q 947 711 958 693 q 888 774 918 761 q 810 789 847 790 l 739 786 l 725 783 l 706 786 l 690 785 l 658 785 q 635 783 638 785 q 575 756 597 781 l 560 742 q 549 728 551 733 q 521 549 518 656 l 525 364 q 554 257 525 278 l 583 236 l 600 228 l 633 217 l 664 228 l 688 228 q 696 199 696 215 q 688 161 696 174 l 678 142 l 664 129 q 578 111 633 111 l 539 115 q 513 129 525 119 l 492 161 q 468 242 488 189 l 456 261 l 443 278 l 426 296 l 410 310 q 381 325 392 325 q 354 310 369 322 l 338 296 q 322 278 326 289 l 299 250 l 271 189 l 247 161 l 226 146 l 196 129 q 165 121 181 121 q 126 129 142 121 l 90 161 l 63 204 l 63 213 l 78 228 l 157 244 q 214 303 201 260 q 224 406 222 329 l 225 524 q 226 667 226 664 q 175 792 219 769 q 163 808 163 797 q 190 883 163 821 q 208 943 200 899 l 217 986 q 226 1042 224 1010 q 229 1074 229 1057 l 229 1101 l 225 1181 l 208 1340 q 147 1435 199 1428 q 106 1423 131 1435 q 78 1411 81 1411 l 57 1428 l 57 1451 l 63 1479 l 83 1508 q 101 1518 93 1518 l 126 1525 l 181 1521 q 222 1508 206 1517 l 243 1492 q 271 1457 267 1468 l 294 1392 q 322 1346 308 1354 l 335 1331 l 360 1315 q 390 1310 369 1310 q 446 1350 425 1310 q 468 1404 457 1361 l 478 1440 l 492 1479 q 532 1504 508 1496 q 582 1517 567 1517 l 600 1517 q 636 1510 626 1517 l 656 1496 l 676 1479 l 700 1450 l 704 1429 q 649 1404 704 1407 q 575 1383 586 1401 l 549 1353 q 521 1149 515 1296 l 526 1014 q 543 928 535 956 q 575 892 557 899 l 606 881 q 696 864 626 878 l 746 864 q 857 876 814 864 q 940 951 933 899 l 949 986 q 961 1069 961 1014 q 967 1115 963 1082 l 967 1208 l 965 1254 q 960 1301 964 1289 l 943 1349 q 922 1383 936 1369 l 885 1411 l 869 1415 q 826 1406 858 1414 q 808 1442 808 1407 l 808 1479 q 910 1521 858 1521 q 1008 1431 969 1521 q 1054 1360 1032 1376 l 1093 1331 q 1115 1317 1101 1324 q 1119 1315 1117 1317 q 1143 1331 1129 1317 l 1165 1347 l 1175 1360 l 1199 1397 q 1214 1442 1206 1407 l 1224 1479 q 1265 1507 1236 1497 q 1326 1517 1293 1517 q 1369 1508 1356 1517 l 1432 1464 q 1446 1435 1442 1454 l 1458 1397 l 1458 1383 m 1175 190 l 1172 160 l 1165 139 l 1157 125 q 1144 114 1154 118 l 1128 110 l 1103 114 q 1068 207 1068 140 q 1082 271 1068 249 l 1096 279 q 1119 285 1106 285 q 1175 190 1175 285 m 433 206 l 431 175 l 424 154 l 415 140 q 403 129 413 133 l 386 125 l 361 129 q 326 222 326 156 q 340 286 326 264 l 354 294 q 378 300 364 300 q 433 206 433 300 m 1129 1238 q 1093 1254 1129 1254 q 1042 1244 1056 1254 l 1086 944 q 1117 1144 1103 1043 l 1129 1238 m 1165 803 q 1147 844 1165 826 q 1106 863 1129 863 q 1064 844 1082 863 q 1046 803 1046 826 q 1064 761 1046 779 q 1106 743 1082 743 q 1147 761 1129 743 q 1165 803 1165 779 m 1157 375 l 1113 675 q 1082 475 1096 576 l 1069 382 q 1106 365 1069 365 q 1157 375 1143 365 m 404 1226 q 368 1243 404 1243 q 317 1233 331 1243 l 361 933 q 392 1133 378 1032 l 404 1226 m 419 815 q 401 857 419 839 q 360 875 383 875 q 318 857 336 875 q 300 815 300 839 q 318 774 300 792 q 360 756 336 756 q 401 774 383 756 q 419 815 419 792 m 396 369 l 351 669 q 321 469 335 571 l 308 376 q 344 360 308 360 q 396 369 382 360 m 1167 1419 l 1160 1386 l 1153 1365 l 1144 1351 q 1132 1340 1142 1344 l 1115 1336 l 1090 1340 q 1056 1433 1056 1367 q 1069 1497 1056 1475 l 1083 1506 q 1107 1511 1093 1511 q 1144 1475 1133 1511 q 1167 1419 1167 1433 z "},"I":{"ha":804,"x_min":44,"x_max":806,"o":"m 411 1563 q 451 1541 421 1563 q 496 1515 482 1519 l 514 1514 l 519 1514 q 563 1525 544 1514 q 629 1550 613 1550 l 658 1546 q 743 1494 707 1539 q 782 1425 765 1468 q 806 1304 806 1365 l 801 1275 q 781 1267 797 1263 l 721 1321 q 689 1332 707 1331 q 649 1297 663 1332 q 633 1170 633 1258 q 622 1040 633 1082 l 622 861 l 636 854 l 689 783 l 707 750 q 694 729 707 742 l 672 701 l 649 675 l 635 631 l 622 574 q 614 413 613 529 l 615 308 q 622 254 615 276 l 636 229 q 651 221 643 221 l 685 246 q 722 260 703 260 q 754 254 739 260 q 767 243 765 247 l 782 221 l 797 192 l 803 161 q 794 119 803 146 l 781 76 q 753 14 764 25 q 701 -17 747 8 q 665 -28 678 -26 q 633 -18 651 -28 l 604 -3 l 576 14 l 557 28 l 538 44 l 513 49 l 497 44 l 476 25 l 456 0 l 438 -8 q 399 15 424 -12 l 379 38 l 360 53 l 333 68 q 315 57 326 68 l 299 36 l 247 -17 q 228 -31 236 -28 l 164 -3 l 135 14 q 118 31 126 19 l 103 53 q 65 128 85 71 q 44 214 44 186 q 69 254 44 249 q 103 240 82 256 q 129 222 124 224 q 188 253 164 222 l 207 286 q 217 351 215 300 l 219 513 q 217 539 217 538 q 214 629 217 585 l 213 651 l 213 694 q 188 747 213 739 l 161 761 q 128 806 128 779 q 160 847 128 824 q 208 893 197 875 q 226 990 225 921 q 233 1096 228 1075 l 233 1218 q 226 1265 231 1242 q 208 1321 221 1296 q 179 1336 201 1335 l 153 1332 l 103 1322 q 50 1414 50 1322 q 89 1518 50 1479 q 181 1554 124 1554 q 267 1531 226 1554 l 300 1515 l 315 1517 q 340 1532 322 1518 l 367 1553 q 399 1567 382 1564 l 411 1563 m 386 1546 l 353 1524 q 336 1465 336 1503 q 351 1399 336 1431 q 386 1360 365 1368 l 401 1357 q 450 1449 450 1357 q 444 1492 450 1478 l 432 1524 l 418 1539 q 386 1546 407 1540 m 161 1539 l 125 1522 q 96 1492 108 1515 l 89 1460 q 89 1429 83 1436 l 101 1425 q 126 1432 108 1426 l 157 1439 q 226 1378 196 1439 q 260 1133 260 1313 q 228 893 260 956 l 194 853 q 175 807 174 826 l 201 783 q 249 701 251 756 l 247 669 l 247 499 q 243 410 247 438 q 228 310 240 353 q 218 276 224 285 l 200 244 q 181 217 188 222 q 153 210 174 213 l 108 208 l 89 200 q 82 186 83 194 q 117 133 82 167 q 161 99 136 114 q 181 94 169 94 q 293 154 236 94 l 304 196 l 319 247 q 381 307 335 300 q 419 294 397 307 l 444 278 q 471 247 454 274 l 486 211 l 499 174 l 518 131 l 543 92 l 583 68 q 617 61 593 63 q 656 68 638 60 q 707 117 681 72 q 733 189 733 161 q 715 215 733 210 l 689 215 l 653 204 l 618 201 q 557 224 572 208 q 528 329 531 249 l 522 461 l 526 594 q 538 683 528 621 l 576 753 l 586 767 l 603 783 q 610 807 608 793 q 589 854 610 828 l 563 876 q 532 953 533 900 l 531 994 q 536 1131 528 1071 q 551 1243 539 1192 l 576 1344 l 589 1375 q 638 1403 594 1396 l 665 1401 q 692 1399 682 1400 q 721 1425 721 1399 q 708 1476 721 1439 l 694 1492 l 682 1515 q 626 1533 658 1533 q 517 1476 557 1533 q 506 1431 508 1464 q 458 1351 504 1399 q 413 1328 436 1329 q 357 1363 386 1326 l 313 1429 l 306 1446 l 293 1476 l 260 1515 q 218 1533 250 1526 l 161 1539 m 319 799 q 338 757 319 775 q 379 739 356 739 q 421 757 403 739 q 439 799 439 775 q 421 840 439 822 q 379 858 403 858 q 338 840 356 858 q 319 799 319 822 m 364 278 l 350 269 q 336 206 336 247 q 371 113 336 139 l 396 108 l 413 113 q 425 124 422 117 l 433 138 l 440 158 l 443 189 q 388 283 443 283 q 364 278 374 283 m 382 644 l 426 344 q 375 335 413 335 q 339 351 339 335 l 351 444 q 382 644 365 546 m 378 950 l 333 1250 q 385 1260 347 1260 q 421 1243 421 1260 l 408 1150 q 378 950 394 1049 z "},"J":{"ha":1040,"x_min":28,"x_max":1042,"o":"m 632 1542 q 658 1531 646 1539 l 683 1519 q 729 1508 708 1508 q 788 1520 747 1508 q 851 1531 829 1532 l 875 1529 q 899 1519 886 1529 l 950 1490 q 989 1454 981 1472 l 1013 1400 q 1032 1340 1017 1390 q 1042 1271 1042 1303 l 1042 1256 l 1039 1242 l 1025 1213 l 994 1242 l 982 1256 l 956 1288 q 915 1301 938 1301 q 864 1178 867 1301 l 860 961 q 857 931 860 956 l 861 888 l 871 857 l 886 822 q 913 789 893 807 q 963 732 957 747 q 947 713 963 726 l 911 688 l 886 657 q 871 518 871 621 q 863 383 871 424 l 851 329 q 836 271 844 294 l 825 239 l 810 207 q 738 103 781 146 q 676 57 715 81 q 619 25 657 38 l 543 -1 l 504 -10 l 457 -12 q 360 -1 408 -15 l 257 28 l 238 38 l 206 57 l 164 97 l 111 154 l 68 213 q 43 276 50 244 l 31 339 l 28 382 l 31 431 l 38 483 q 79 575 43 531 l 103 599 l 132 621 q 168 639 146 632 l 207 644 q 296 619 244 644 q 344 590 310 614 q 378 544 360 575 l 404 500 l 429 439 l 435 403 q 429 365 435 388 q 410 308 418 321 q 365 267 401 296 q 349 246 358 263 q 340 222 340 229 q 367 206 344 206 q 410 220 385 206 q 449 253 436 235 l 457 271 l 461 290 l 461 365 l 474 581 q 467 657 476 631 q 385 747 446 715 q 360 778 375 751 l 353 790 l 351 804 q 385 844 351 825 l 436 875 l 449 901 l 461 942 l 471 986 l 474 1043 l 469 1122 l 461 1204 l 449 1272 l 435 1294 q 407 1306 424 1304 q 351 1258 368 1306 q 329 1233 343 1233 q 296 1265 319 1233 l 283 1288 q 265 1318 269 1304 l 256 1353 l 251 1388 l 256 1418 q 268 1453 257 1433 l 283 1482 q 379 1544 307 1544 q 425 1538 407 1544 q 474 1519 438 1536 l 499 1508 l 525 1504 q 550 1513 538 1504 l 564 1532 q 610 1546 582 1546 l 632 1542 m 390 1513 q 356 1511 368 1513 q 328 1497 343 1510 l 301 1467 l 292 1432 l 286 1388 l 289 1369 l 301 1364 l 315 1369 l 321 1385 q 363 1399 343 1397 q 417 1376 389 1399 q 481 1217 467 1335 q 490 1067 492 1113 l 486 972 q 457 885 485 938 q 426 813 429 833 l 429 800 l 454 769 q 479 732 465 760 q 493 671 488 706 l 499 557 q 493 449 499 485 q 479 357 490 388 l 474 306 q 418 201 474 233 q 381 193 403 193 l 353 196 l 311 208 q 261 233 286 217 q 231 278 231 256 q 257 319 231 299 l 285 336 l 315 350 l 333 372 q 347 406 342 383 l 350 451 l 346 508 q 333 553 344 531 l 317 575 l 296 597 l 265 614 l 232 628 l 214 629 q 185 626 200 631 l 154 614 q 124 597 135 606 l 99 567 l 74 522 q 60 475 64 497 l 56 410 q 70 276 50 328 q 142 176 90 224 q 239 110 183 138 l 278 96 l 347 76 l 367 74 l 439 74 l 461 79 q 507 90 476 82 l 563 110 l 590 124 l 624 142 l 642 153 l 664 169 l 689 192 l 718 226 l 740 260 q 772 407 756 296 l 793 556 l 794 576 l 792 629 l 789 671 q 803 740 786 706 l 829 775 q 849 817 846 797 q 842 838 849 831 l 803 867 l 790 882 q 769 1014 769 903 q 778 1175 769 1092 q 789 1257 781 1203 q 800 1303 790 1272 q 864 1372 817 1372 q 906 1358 888 1372 l 935 1340 l 950 1335 l 968 1340 q 975 1364 975 1344 q 972 1385 975 1376 l 968 1407 l 956 1438 l 943 1453 l 906 1497 q 849 1517 882 1517 q 780 1497 811 1517 q 733 1444 749 1478 l 710 1357 q 694 1335 706 1346 l 676 1317 q 626 1293 657 1293 q 575 1317 599 1293 l 538 1363 q 515 1401 528 1371 l 486 1475 l 461 1497 q 424 1508 447 1506 l 390 1513 m 244 515 q 274 460 274 515 q 229 393 274 399 l 185 399 q 161 371 161 399 l 163 357 l 175 290 l 193 260 q 210 224 210 232 l 204 221 l 182 238 l 156 267 l 136 306 l 126 351 l 121 390 l 124 407 l 131 432 q 217 526 157 526 q 244 515 233 526 m 558 813 q 576 771 558 789 q 618 753 594 753 q 660 771 642 753 q 678 813 678 789 q 660 854 678 836 q 618 872 642 872 q 576 854 594 872 q 558 813 558 836 m 624 669 l 668 369 q 617 360 654 360 q 581 376 581 360 l 593 469 q 624 669 607 571 m 611 947 l 567 1247 q 618 1257 581 1257 q 654 1240 654 1257 l 642 1147 q 611 947 628 1046 m 592 1510 l 578 1501 q 561 1431 561 1475 q 599 1336 561 1364 l 624 1332 l 640 1336 q 653 1347 650 1340 l 660 1360 q 675 1417 675 1388 l 671 1451 l 660 1486 q 615 1517 650 1517 q 592 1510 603 1517 z "},"K":{"ha":1675,"x_min":19,"x_max":1635,"o":"m 224 1579 q 193 1585 214 1585 q 128 1574 147 1585 l 90 1547 l 57 1511 l 46 1486 l 33 1464 q 19 1421 19 1439 l 26 1390 l 33 1371 l 40 1324 q 81 1286 65 1286 q 100 1294 90 1286 l 118 1310 q 181 1342 156 1342 q 203 1332 193 1342 l 218 1317 l 218 1301 q 222 1218 222 1279 l 222 1165 q 224 1111 222 1151 q 225 1053 225 1071 l 225 976 l 222 949 l 211 903 q 197 861 201 865 l 178 844 l 158 831 l 119 810 q 100 786 100 800 q 125 753 100 772 l 157 735 q 183 715 174 726 l 214 665 l 222 639 q 231 585 231 613 q 233 560 231 585 l 233 481 l 229 354 q 218 283 228 293 q 153 254 197 254 q 106 267 122 254 l 74 299 l 65 313 q 51 235 51 281 q 86 89 51 150 l 104 57 l 126 25 l 144 10 l 165 0 l 208 -22 q 251 -32 228 -32 q 315 0 286 -32 l 340 28 l 361 35 q 386 10 378 22 q 456 -15 407 -15 q 490 0 475 -15 l 511 28 l 536 50 l 543 50 l 583 19 l 635 -6 l 675 -21 q 697 -24 686 -24 q 733 -7 718 -24 l 786 51 l 808 160 q 800 186 808 165 l 786 221 q 771 243 778 240 l 739 267 q 710 238 729 265 q 682 211 690 211 q 642 290 656 218 q 635 353 635 313 l 633 490 l 636 599 l 640 665 l 649 685 q 661 699 651 690 l 726 699 q 763 638 742 688 l 779 599 l 924 353 l 940 306 q 951 261 951 274 q 942 243 950 243 l 929 242 q 885 258 907 243 q 857 274 864 272 q 832 226 832 281 l 839 157 q 851 113 847 119 l 883 65 l 896 50 l 936 19 q 1014 -10 975 -10 q 1086 19 1056 -10 l 1111 50 l 1131 58 l 1151 50 l 1193 10 q 1244 -12 1224 -12 q 1276 0 1260 -12 l 1308 43 q 1333 57 1318 57 q 1354 50 1349 54 l 1386 19 q 1474 -10 1417 -10 q 1556 19 1526 -10 l 1569 33 l 1582 50 l 1608 89 q 1635 179 1635 128 q 1614 243 1635 218 q 1597 251 1610 250 l 1582 258 l 1557 289 q 1526 313 1538 313 q 1503 288 1514 313 q 1472 257 1489 257 q 1464 258 1468 257 l 1440 272 q 1426 290 1431 281 l 1386 354 l 1347 413 l 1085 839 q 1058 876 1069 865 q 1049 928 1049 894 q 1058 976 1049 956 l 1086 1024 l 1113 1063 l 1139 1100 l 1243 1239 l 1294 1301 l 1322 1332 l 1342 1350 q 1371 1358 1354 1358 q 1407 1350 1392 1358 l 1439 1332 l 1458 1317 l 1471 1286 q 1488 1268 1472 1283 q 1504 1354 1504 1268 q 1492 1426 1504 1407 l 1451 1488 l 1436 1508 q 1418 1526 1428 1521 l 1378 1553 q 1332 1567 1357 1567 l 1315 1564 q 1276 1536 1306 1563 q 1236 1525 1257 1518 q 1178 1561 1222 1529 q 1119 1589 1140 1589 q 1086 1572 1099 1589 l 1078 1544 q 1043 1511 1068 1511 q 996 1526 1029 1511 q 918 1556 933 1556 q 843 1478 876 1556 q 838 1432 838 1465 l 843 1371 q 882 1324 856 1321 l 917 1326 q 940 1319 938 1324 q 949 1294 949 1314 q 765 1015 949 1256 l 733 961 q 700 915 708 919 l 681 915 q 650 1039 650 953 l 650 1089 q 653 1133 653 1111 l 653 1161 l 654 1247 l 661 1308 q 688 1349 671 1343 l 733 1349 q 754 1333 735 1346 l 779 1317 l 786 1301 q 799 1376 799 1339 q 771 1478 799 1432 q 647 1569 715 1569 q 576 1557 617 1569 l 539 1536 q 504 1525 515 1522 l 490 1540 l 469 1560 q 446 1572 458 1569 l 410 1585 l 393 1588 q 361 1572 375 1586 l 321 1540 q 308 1538 319 1540 q 268 1550 293 1538 l 232 1572 l 224 1579 m 381 1564 q 438 1533 417 1564 q 460 1456 460 1501 l 454 1414 l 442 1381 q 426 1356 435 1361 l 368 1356 l 340 1386 q 331 1446 331 1404 l 336 1507 q 354 1547 347 1539 l 381 1564 m 1106 1564 l 1156 1554 q 1198 1530 1190 1542 q 1206 1479 1206 1518 q 1196 1425 1206 1442 l 1176 1393 l 1151 1371 q 1125 1364 1140 1364 q 1076 1383 1099 1364 q 1053 1425 1053 1401 l 1058 1471 l 1092 1557 l 1106 1564 m 621 1557 q 713 1539 688 1557 q 753 1471 732 1524 l 753 1425 l 726 1425 l 693 1433 l 661 1433 l 613 1410 q 571 1290 571 1378 q 568 1249 568 1260 l 568 1211 l 571 1054 q 579 960 572 985 q 628 915 592 929 l 661 903 l 686 897 q 714 907 704 899 q 831 1068 744 938 l 949 1247 q 982 1353 982 1297 q 949 1418 982 1401 q 931 1421 940 1421 l 901 1421 q 871 1425 888 1421 q 868 1440 868 1436 q 877 1493 868 1463 q 894 1526 886 1524 l 914 1531 l 938 1532 q 1026 1503 989 1535 l 1040 1488 l 1040 1433 q 1124 1350 1056 1350 q 1183 1379 1158 1350 l 1217 1408 q 1232 1444 1221 1413 l 1243 1478 q 1342 1544 1281 1544 q 1431 1471 1404 1544 q 1443 1422 1443 1436 q 1419 1396 1443 1396 l 1393 1401 l 1357 1407 l 1333 1410 q 1258 1361 1292 1404 l 1221 1313 l 1171 1258 q 1114 1182 1142 1226 l 1107 1171 l 1092 1147 l 988 993 q 964 935 964 956 l 971 913 l 988 885 l 1210 514 q 1326 336 1256 443 l 1354 299 l 1379 267 q 1439 231 1413 231 q 1500 264 1457 231 q 1524 275 1511 275 q 1544 228 1549 275 l 1542 196 l 1536 158 l 1531 140 l 1524 128 q 1428 88 1483 88 q 1318 158 1364 88 l 1296 193 l 1268 249 q 1236 290 1256 274 l 1210 313 l 1204 313 q 1165 325 1183 325 q 1113 268 1126 325 l 1092 182 l 1074 135 l 1036 101 l 1001 75 l 949 75 q 896 110 917 92 q 864 167 871 132 q 861 185 861 182 l 861 206 q 871 236 861 236 l 901 225 q 933 219 922 219 q 942 221 939 219 q 968 271 968 238 q 953 326 965 300 l 929 375 l 858 499 q 746 707 781 635 q 702 763 731 739 q 649 786 674 786 q 596 753 618 786 q 581 718 586 738 l 571 683 q 554 621 563 663 l 550 556 l 557 460 q 572 338 560 444 q 586 258 579 274 q 654 204 606 213 l 669 199 l 685 196 l 706 204 l 731 231 q 753 236 744 244 q 761 201 761 224 q 753 151 761 168 l 732 111 q 706 75 715 78 q 649 63 685 63 q 603 75 619 63 l 563 104 l 536 135 l 511 197 l 506 231 l 499 267 q 425 314 465 314 q 346 235 363 314 l 336 189 q 321 144 329 154 l 296 113 l 250 82 q 217 75 232 75 q 121 117 150 75 l 86 167 q 75 201 75 185 l 74 243 l 100 243 q 169 225 149 225 q 236 278 211 232 l 250 303 l 260 415 q 263 443 261 428 l 263 521 q 243 699 263 636 q 208 757 239 713 q 182 821 182 796 q 190 844 182 835 l 224 876 q 242 933 238 896 q 247 1026 247 979 l 247 1042 l 236 1310 l 225 1364 q 210 1386 219 1376 l 178 1418 q 150 1433 158 1433 q 118 1418 136 1431 l 99 1410 l 65 1401 q 53 1408 60 1401 l 53 1456 q 88 1509 61 1476 q 132 1547 114 1542 l 164 1551 q 239 1526 206 1551 q 268 1503 265 1510 q 289 1450 276 1492 l 301 1408 l 318 1378 l 335 1356 q 397 1325 357 1325 q 460 1345 429 1325 q 499 1393 490 1365 q 503 1456 501 1404 q 511 1510 504 1500 q 568 1538 525 1528 l 621 1557 m 1001 583 l 994 592 l 986 596 q 974 583 978 596 l 985 572 q 1040 425 1015 504 q 1067 375 1056 379 l 1124 419 l 1139 429 q 1113 463 1131 444 q 1089 483 1106 468 q 1058 507 1081 492 l 1014 560 l 1001 583 m 413 299 q 468 250 447 299 q 486 172 486 211 q 426 88 486 88 q 381 110 403 88 q 356 153 358 133 l 351 185 l 351 201 q 364 258 351 240 q 413 299 376 276 m 346 819 q 364 861 346 843 q 406 879 382 879 q 447 861 429 879 q 465 819 465 843 q 447 778 465 796 q 406 760 429 760 q 364 778 382 760 q 346 819 346 796 m 817 799 q 835 840 817 822 q 876 858 853 858 q 918 840 900 858 q 936 799 936 822 q 918 757 936 775 q 876 739 900 739 q 835 757 853 739 q 817 799 817 775 m 397 675 q 367 475 381 576 l 354 382 q 390 365 354 365 q 442 375 428 365 l 397 675 m 397 964 q 428 1164 414 1063 l 440 1257 q 404 1274 440 1274 q 353 1264 367 1274 l 397 964 m 1168 281 q 1239 258 1231 281 l 1260 207 q 1267 163 1268 179 l 1265 143 q 1214 85 1243 85 l 1199 88 l 1181 96 q 1128 158 1143 114 q 1118 201 1118 179 q 1168 281 1118 254 z "},"L":{"ha":1307,"x_min":28,"x_max":1267,"o":"m 193 1563 l 225 1556 l 286 1535 l 319 1526 q 338 1536 328 1526 l 357 1556 q 392 1571 375 1569 l 413 1567 l 463 1546 q 482 1526 472 1543 l 494 1496 l 507 1496 l 526 1526 q 590 1560 543 1560 q 628 1554 613 1560 l 665 1540 l 693 1531 q 728 1511 715 1525 l 753 1482 l 778 1451 q 794 1421 792 1438 l 800 1382 l 800 1356 l 803 1325 l 803 1310 l 799 1286 q 792 1267 799 1269 q 772 1288 790 1268 l 760 1310 l 726 1326 l 696 1340 q 654 1313 669 1340 l 640 1251 q 626 1110 626 1190 l 621 1058 l 618 1007 l 619 972 l 624 940 q 633 906 625 926 l 658 857 q 693 831 674 850 l 728 797 l 747 782 q 733 763 747 775 l 696 746 l 665 715 l 653 700 q 636 654 640 682 l 626 597 l 626 367 l 639 314 q 653 276 646 288 l 665 263 l 696 244 l 728 232 l 757 228 q 885 292 813 228 l 910 314 q 936 376 922 331 q 956 460 940 390 l 974 551 q 1035 669 996 617 q 1138 739 1085 739 q 1200 708 1165 739 l 1225 686 l 1226 679 l 1226 668 l 1225 558 q 1222 540 1222 542 q 1231 463 1222 490 l 1235 457 q 1256 367 1240 440 l 1264 325 l 1267 288 q 1256 210 1268 264 l 1246 169 l 1231 128 q 1210 82 1218 94 l 1175 32 q 1157 26 1158 26 q 1131 39 1142 26 q 1113 64 1114 51 q 1093 92 1113 76 q 1064 99 1082 99 q 1039 96 1047 99 l 1022 90 l 1003 74 l 988 58 l 958 43 q 929 32 938 38 l 881 14 l 838 0 l 808 -6 l 776 -8 q 744 -6 761 -10 l 715 1 l 621 32 l 599 47 l 583 61 q 549 75 561 74 q 527 70 535 75 q 501 46 519 65 l 489 32 q 449 7 472 7 q 403 26 425 7 l 363 61 l 344 68 l 325 61 l 313 47 l 300 32 q 232 0 274 0 q 156 32 197 0 l 118 61 l 106 76 q 90 99 100 79 l 79 121 q 46 256 46 188 q 61 336 46 303 l 67 321 l 99 292 l 113 283 l 136 281 q 217 329 203 281 l 221 367 l 219 388 l 219 408 l 221 471 l 228 604 l 228 647 l 225 671 l 185 721 l 156 753 l 131 782 q 107 815 108 801 q 129 840 107 829 l 161 857 q 178 872 172 863 l 194 893 l 211 935 l 225 976 l 218 1101 l 206 1281 l 218 1310 l 206 1325 l 182 1332 q 156 1325 169 1332 l 111 1303 l 99 1288 l 88 1268 l 81 1265 q 67 1288 74 1265 l 58 1315 q 43 1358 57 1326 l 32 1390 l 28 1411 q 42 1451 28 1426 l 67 1496 q 97 1531 81 1517 l 131 1554 q 171 1565 151 1564 l 193 1563 m 375 1549 l 350 1533 q 333 1494 339 1521 l 328 1435 q 338 1378 328 1396 l 363 1347 l 419 1347 q 432 1363 429 1353 l 446 1406 q 453 1446 453 1428 q 431 1518 453 1488 q 375 1549 408 1549 m 614 1540 l 553 1519 q 501 1467 521 1508 l 497 1451 l 494 1392 q 457 1341 490 1363 q 389 1319 424 1319 q 338 1340 357 1319 l 319 1385 l 293 1436 l 268 1489 l 206 1533 l 165 1539 q 136 1533 146 1539 q 63 1451 103 1525 q 56 1418 57 1439 q 79 1390 56 1396 q 104 1396 94 1390 l 124 1407 q 149 1419 133 1413 l 181 1407 l 200 1400 l 213 1378 l 238 1340 l 240 1322 q 238 1303 240 1311 q 231 1228 229 1260 l 235 1151 l 244 1021 l 244 985 q 232 925 243 968 q 213 897 226 913 q 193 872 199 882 l 176 842 l 169 815 q 181 789 169 800 l 196 767 l 218 729 l 239 693 q 246 654 244 683 l 249 592 l 251 500 q 222 307 256 368 q 149 256 193 253 l 128 257 l 92 269 l 67 269 l 63 247 l 61 225 q 107 150 58 183 l 158 114 q 196 106 175 106 l 217 108 l 238 114 l 258 126 l 282 143 q 333 272 313 165 q 383 321 343 321 q 451 307 411 321 q 467 285 458 304 l 476 263 l 489 238 l 518 156 q 551 116 531 129 q 600 97 572 103 l 678 83 l 721 83 q 864 113 814 83 l 917 143 q 953 166 946 160 q 992 203 961 172 l 1014 238 q 1058 303 1033 269 l 1056 289 l 1042 254 l 1029 218 l 1029 194 l 1051 168 l 1081 143 q 1114 129 1097 131 q 1181 317 1181 129 l 1181 374 q 1169 456 1176 410 q 1161 493 1169 464 l 1150 554 q 1138 600 1147 571 q 1126 622 1132 621 l 1124 626 l 1135 657 l 1143 690 q 1143 715 1146 704 q 1132 724 1140 724 q 1096 707 1119 724 l 1074 686 q 979 503 999 593 l 954 389 l 915 297 l 872 263 q 754 213 810 213 q 714 218 735 213 l 676 228 q 640 242 668 229 l 608 260 l 589 285 l 571 314 q 560 342 563 326 l 556 372 q 543 493 543 464 q 544 554 543 540 q 558 619 546 568 l 558 715 q 592 771 563 742 q 633 819 628 807 l 633 842 l 582 903 q 546 976 571 917 l 540 1000 l 539 1035 l 543 1110 q 557 1181 547 1133 q 564 1242 563 1203 q 567 1303 567 1300 q 643 1403 567 1403 q 703 1392 667 1403 l 719 1389 q 736 1396 729 1389 l 742 1415 q 710 1494 742 1463 q 665 1524 700 1507 q 614 1540 629 1540 m 331 815 q 349 774 331 792 q 390 756 367 756 q 432 774 414 756 q 450 815 450 792 q 432 857 450 839 q 390 875 414 875 q 349 857 367 875 q 331 815 331 839 m 389 675 l 433 375 q 382 365 419 365 q 346 382 346 365 l 358 475 q 389 675 372 576 m 386 944 l 342 1244 q 393 1254 356 1254 q 429 1238 429 1254 l 417 1144 q 386 944 403 1043 m 403 306 q 354 265 367 283 q 342 208 342 247 l 342 192 l 346 160 q 371 117 349 140 q 417 94 393 94 q 476 179 476 94 q 458 257 476 218 q 403 306 438 306 z "},"M":{"ha":1688,"x_min":14,"x_max":1646,"o":"m 131 1572 q 111 1575 119 1575 q 29 1526 51 1575 q 14 1458 14 1494 q 42 1353 14 1406 l 64 1300 q 81 1293 72 1286 q 113 1346 94 1318 q 131 1353 119 1353 q 157 1346 149 1350 l 178 1299 q 196 1255 193 1264 q 200 1161 199 1246 l 201 967 q 194 939 194 943 l 176 876 l 157 858 l 136 846 l 103 828 q 82 803 82 817 q 106 769 85 788 q 142 746 113 763 l 164 733 q 189 679 183 710 q 196 606 196 642 l 189 529 q 176 411 176 397 l 179 331 q 169 281 181 299 l 151 250 q 113 240 138 240 q 75 250 89 240 q 40 265 51 265 q 19 231 19 265 l 29 168 l 42 114 l 49 78 q 67 46 54 60 l 93 15 q 122 0 106 0 q 157 15 135 3 l 176 38 l 192 46 l 208 50 q 238 35 221 49 q 258 15 256 17 q 296 3 288 3 q 321 19 307 3 q 356 46 335 36 l 381 46 l 400 33 q 433 15 421 17 l 457 13 l 469 15 l 503 44 q 521 76 515 56 q 536 142 538 117 q 521 204 536 158 l 504 257 q 496 271 503 261 l 481 263 l 457 250 l 432 250 l 418 264 l 393 446 l 393 536 l 400 590 q 420 681 411 674 q 442 688 429 688 q 464 681 450 686 l 476 650 l 492 610 q 503 575 501 593 l 571 203 l 568 156 l 571 129 l 579 103 l 590 78 l 604 53 l 629 15 q 647 1 632 10 q 650 0 649 1 q 668 14 658 1 l 700 46 l 726 76 l 740 81 l 757 76 l 790 46 l 808 26 l 824 14 l 851 -1 l 858 -4 q 882 16 869 -3 q 896 64 894 35 l 900 140 l 899 188 l 899 235 l 900 282 l 904 318 l 929 450 l 968 636 l 979 679 q 1032 700 992 700 q 1044 694 1039 700 q 1060 638 1060 667 q 1063 614 1060 636 l 1063 563 l 1057 378 q 1046 275 1054 307 q 992 218 1031 218 q 956 228 978 219 l 925 250 q 911 221 911 249 q 928 136 911 193 l 938 103 l 946 82 l 963 53 l 988 15 q 1065 -25 1040 -25 q 1096 -11 1071 -24 l 1122 3 l 1136 15 l 1156 43 q 1176 54 1167 54 q 1199 46 1186 54 l 1218 24 q 1271 -8 1239 -8 q 1303 0 1283 -8 l 1339 15 q 1379 31 1375 31 q 1410 15 1390 31 l 1435 0 l 1457 -10 l 1490 -19 q 1519 -25 1503 -25 q 1556 -11 1542 -25 l 1575 0 l 1594 15 l 1619 53 q 1646 140 1646 93 q 1619 204 1646 182 l 1607 219 q 1581 236 1590 231 l 1558 242 l 1536 239 l 1518 236 l 1503 239 q 1479 257 1489 247 l 1467 264 l 1467 604 q 1486 669 1471 624 q 1513 718 1503 707 l 1535 732 q 1556 756 1554 744 q 1499 851 1556 771 q 1467 915 1468 894 q 1456 967 1456 950 l 1456 1033 l 1461 1126 l 1465 1168 l 1493 1300 q 1540 1328 1521 1328 q 1583 1310 1557 1326 q 1624 1293 1610 1293 q 1640 1314 1640 1293 q 1619 1382 1640 1340 l 1601 1429 q 1569 1482 1586 1469 l 1554 1496 l 1531 1518 q 1504 1533 1514 1531 l 1474 1549 l 1457 1553 l 1442 1549 l 1394 1535 q 1365 1518 1385 1532 l 1346 1504 q 1301 1524 1329 1504 q 1263 1549 1269 1547 l 1219 1561 q 1206 1549 1213 1560 q 1146 1518 1188 1518 q 1097 1547 1129 1518 q 1039 1572 1065 1576 q 1003 1554 1024 1569 q 974 1539 982 1539 l 938 1546 l 908 1558 q 892 1564 903 1564 q 874 1550 876 1564 l 869 1531 l 892 1496 q 896 1461 894 1486 l 897 1414 l 893 1306 l 886 1232 l 872 1143 l 861 1081 l 835 990 l 821 960 l 808 938 l 789 935 q 751 967 763 935 q 731 1060 739 1036 l 726 1067 l 710 1231 q 700 1271 707 1264 l 700 1465 q 650 1547 692 1503 q 593 1582 617 1582 q 579 1579 593 1582 q 551 1553 561 1571 q 535 1526 539 1531 q 513 1517 525 1517 q 480 1533 499 1519 q 456 1549 461 1547 l 436 1553 l 393 1546 q 367 1543 376 1543 l 342 1549 l 308 1574 q 286 1579 299 1579 q 251 1567 271 1579 q 201 1542 214 1542 l 179 1547 l 154 1561 l 131 1572 m 81 1557 l 99 1558 q 176 1522 115 1560 l 194 1511 q 206 1467 201 1497 q 221 1421 211 1447 q 294 1371 258 1371 q 368 1443 342 1371 l 381 1489 l 393 1526 q 431 1542 413 1542 q 503 1450 472 1542 q 518 1469 511 1450 l 526 1492 l 561 1532 q 608 1563 588 1563 q 629 1533 625 1563 l 629 1472 q 626 1439 626 1453 l 626 1397 l 629 1303 l 638 1208 l 656 1099 q 681 999 667 1033 l 708 931 q 732 817 732 872 l 732 786 q 735 750 735 767 l 739 718 l 747 683 l 751 658 l 757 636 q 785 594 767 594 q 790 597 788 594 l 790 658 l 796 811 q 803 892 799 886 q 867 1067 850 990 l 904 1246 l 904 1533 q 963 1511 949 1536 l 975 1482 q 989 1471 976 1478 q 996 1496 994 1471 q 1001 1526 997 1521 q 1042 1549 1022 1549 q 1068 1542 1060 1546 l 1096 1526 l 1115 1511 l 1142 1465 l 1161 1421 l 1186 1360 q 1233 1342 1204 1342 q 1314 1390 1290 1342 q 1329 1440 1317 1393 l 1339 1465 l 1358 1496 q 1450 1532 1390 1532 q 1538 1496 1508 1532 q 1564 1414 1571 1454 l 1550 1397 l 1543 1397 l 1513 1411 q 1489 1418 1497 1418 q 1449 1397 1469 1418 l 1435 1381 q 1424 1360 1429 1375 q 1394 1235 1408 1321 q 1389 1185 1393 1228 l 1379 1090 q 1378 1038 1379 1076 q 1376 986 1376 1006 l 1378 947 l 1383 906 q 1411 879 1388 896 q 1438 858 1435 863 l 1454 835 q 1461 810 1461 825 l 1454 786 l 1426 747 q 1378 460 1368 689 l 1382 358 q 1396 288 1390 304 l 1407 256 l 1424 233 l 1447 204 q 1479 196 1460 196 l 1506 196 q 1551 185 1539 196 q 1564 164 1564 175 q 1551 131 1564 144 l 1518 93 q 1488 69 1499 72 q 1446 58 1457 58 q 1417 69 1426 58 l 1365 128 l 1339 204 l 1314 250 l 1294 296 q 1251 317 1274 317 q 1179 264 1197 310 l 1167 213 l 1149 165 q 1128 128 1139 140 l 1115 114 l 1096 99 q 1032 86 1069 86 l 1004 89 q 981 99 994 93 l 956 121 q 943 158 943 142 l 943 213 l 975 210 l 1000 204 q 1032 219 1019 207 q 1085 426 1092 281 l 1081 513 l 1078 636 l 1079 661 l 1074 714 q 1057 756 1071 738 l 1043 774 q 1032 794 1035 782 l 1032 839 l 1043 857 l 1057 876 q 1078 951 1071 903 q 1085 1050 1086 1014 l 1081 1140 l 1078 1281 q 1076 1301 1078 1294 q 1057 1356 1076 1356 q 1043 1322 1046 1356 l 1039 1271 q 1024 1189 1035 1261 l 1014 1125 l 999 1079 l 988 1028 l 971 981 l 963 950 l 960 926 l 971 835 q 956 779 971 811 q 931 719 935 738 l 911 643 l 886 568 q 867 493 882 558 l 856 433 q 842 344 846 404 l 836 265 l 831 211 l 826 161 q 815 128 825 138 l 790 128 l 768 143 l 751 160 l 726 189 l 714 219 l 706 182 l 688 151 l 668 128 l 639 113 l 617 99 l 611 99 l 599 114 l 585 171 q 582 201 582 193 l 582 232 l 567 296 l 551 396 l 521 536 q 500 650 514 583 l 496 658 l 444 786 l 444 847 l 457 896 l 453 910 l 443 933 q 432 987 438 946 q 418 1050 426 1028 l 403 1106 l 393 1149 q 378 1204 388 1163 l 368 1247 l 360 1301 q 344 1324 351 1324 q 329 1314 338 1322 l 329 1165 l 332 1028 q 349 922 333 971 l 360 888 l 369 861 q 376 847 369 861 l 381 839 l 385 815 q 369 780 385 800 q 349 740 354 760 l 349 704 q 332 622 338 675 q 324 463 322 521 l 326 381 q 336 325 328 342 l 342 310 l 350 271 q 399 228 369 228 l 438 232 q 457 228 449 232 l 476 213 q 479 199 479 204 q 482 182 482 188 l 476 160 l 464 144 l 451 128 l 431 122 l 396 121 q 368 128 374 119 q 350 161 356 146 l 340 188 l 331 221 q 317 250 324 243 q 247 288 276 288 q 215 240 225 288 q 194 160 203 176 l 169 128 q 129 110 156 110 q 88 128 106 110 l 61 160 l 47 190 q 49 213 44 207 l 61 228 l 67 228 l 94 221 l 111 219 q 138 228 126 218 l 172 257 q 181 275 181 264 q 194 344 181 296 q 206 426 207 392 l 203 482 l 200 560 q 207 636 199 594 l 218 672 q 225 706 225 694 q 208 754 225 729 l 176 801 l 160 824 l 165 833 q 194 892 182 854 l 211 929 q 221 967 221 947 l 215 1211 q 201 1329 214 1281 q 194 1349 194 1336 q 178 1399 185 1372 q 107 1433 163 1433 q 60 1417 89 1433 q 43 1411 57 1415 l 29 1421 q 24 1446 24 1431 q 42 1509 24 1471 q 81 1557 60 1547 m 1219 944 q 1250 1144 1236 1043 l 1263 1238 q 1226 1254 1263 1254 q 1175 1244 1189 1254 l 1219 944 m 1150 815 q 1168 857 1150 839 q 1210 875 1186 875 q 1251 857 1233 875 q 1269 815 1269 839 q 1251 774 1269 792 q 1210 756 1233 756 q 1168 774 1186 756 q 1150 815 1150 792 m 1208 675 q 1178 475 1192 576 l 1165 382 q 1201 365 1165 365 q 1253 375 1239 365 l 1208 675 m 539 815 q 557 857 539 839 q 599 875 575 875 q 640 857 622 875 q 658 815 658 839 q 640 774 658 792 q 599 756 622 756 q 557 774 575 756 q 539 815 539 792 m 828 815 q 876 864 835 864 q 925 815 925 857 q 876 767 918 767 q 828 815 828 774 m 217 815 q 265 864 224 864 q 314 815 314 857 q 265 767 307 767 q 217 815 217 774 m 543 1253 q 531 1263 538 1258 l 506 1246 l 471 1240 q 440 1222 440 1235 q 451 1190 442 1208 l 501 1093 l 547 1000 q 553 1039 553 1004 l 553 1085 q 543 1253 553 1188 m 642 656 l 633 665 q 628 649 632 665 q 629 638 629 644 q 631 626 629 631 l 639 561 q 644 503 644 518 q 654 451 644 488 q 661 421 661 440 q 660 388 661 386 q 667 354 663 372 l 669 324 l 685 336 l 719 347 q 739 358 731 351 q 771 388 765 374 q 746 426 774 407 l 729 447 l 685 528 l 649 603 q 639 638 638 633 l 642 656 m 257 236 l 275 233 l 294 231 q 301 225 297 229 q 306 218 304 221 l 315 206 l 335 124 l 321 97 q 283 79 303 74 q 251 110 258 88 q 235 156 243 133 l 226 178 l 225 211 l 240 231 l 257 236 m 271 1556 l 289 1553 l 308 1550 q 315 1544 311 1549 q 319 1538 318 1540 l 329 1525 l 349 1443 l 335 1417 q 297 1399 317 1393 q 265 1430 272 1407 q 249 1475 257 1453 l 240 1497 l 239 1531 l 254 1550 l 271 1556 m 1215 1528 l 1233 1525 l 1253 1522 q 1259 1517 1256 1521 q 1264 1510 1263 1513 l 1274 1497 l 1293 1415 l 1279 1389 q 1242 1371 1261 1365 q 1209 1402 1217 1379 q 1193 1447 1201 1425 l 1185 1469 l 1183 1503 l 1199 1522 l 1215 1528 z "},"N":{"ha":1499,"x_min":10,"x_max":1458,"o":"m 1146 1571 q 1129 1582 1139 1582 q 1103 1565 1118 1582 l 1081 1540 q 1044 1528 1060 1528 q 1006 1542 1028 1531 q 946 1567 957 1567 l 929 1564 q 879 1528 890 1547 l 857 1471 l 846 1439 l 842 1421 l 846 1404 q 858 1369 851 1396 l 875 1311 q 906 1272 886 1272 q 917 1276 911 1272 l 957 1331 q 990 1351 972 1351 q 1042 1301 1021 1346 l 1063 1190 q 1065 1167 1063 1189 l 1065 1117 l 1067 1051 l 1065 1029 l 1057 975 l 1049 935 q 1022 919 1040 919 q 994 932 1008 921 l 969 951 l 944 975 l 922 1003 l 904 1036 l 878 1099 q 851 1161 860 1129 l 799 1292 l 772 1378 q 760 1429 764 1396 q 747 1478 754 1468 q 631 1567 685 1567 q 571 1536 599 1567 q 550 1524 560 1524 q 510 1540 538 1524 l 479 1558 q 433 1572 456 1572 q 399 1564 418 1572 l 357 1524 q 339 1510 351 1518 l 261 1556 q 217 1567 240 1564 l 181 1571 q 78 1515 117 1571 q 43 1399 43 1465 q 69 1308 43 1354 l 86 1279 q 96 1269 86 1279 l 117 1285 l 144 1310 q 169 1319 158 1319 q 182 1315 176 1319 q 206 1201 206 1292 q 215 1014 218 1089 l 214 967 l 203 926 l 186 881 l 169 860 l 149 842 l 111 821 q 92 799 92 810 q 117 765 92 781 l 147 746 q 175 725 171 735 q 204 671 185 715 l 214 649 q 219 551 219 621 q 176 292 219 342 q 106 256 133 256 q 64 268 81 256 l 36 299 l 25 299 q 10 224 10 271 q 39 96 10 161 q 124 0 72 22 q 160 -12 151 -12 q 193 0 171 -12 l 239 26 q 267 35 258 35 l 285 29 l 308 15 l 333 0 q 399 29 378 0 l 411 47 q 425 60 417 54 l 471 29 q 554 0 514 0 q 640 39 606 0 q 675 136 675 78 q 640 238 675 193 l 625 257 l 615 268 l 582 299 q 553 274 575 299 q 519 249 531 249 q 497 261 508 249 l 483 283 l 468 343 q 465 379 465 363 l 465 431 l 474 674 l 483 718 l 503 742 q 514 776 514 761 q 481 838 514 794 q 458 882 463 861 q 436 915 443 897 q 431 932 436 919 l 431 954 l 433 989 l 461 981 q 490 960 479 975 l 524 863 q 546 750 546 797 l 543 724 l 528 693 l 522 678 q 536 664 524 672 l 569 647 l 608 629 l 628 618 l 653 589 q 674 560 671 568 l 683 533 l 694 508 q 715 467 711 483 l 728 432 l 760 351 l 799 260 q 822 190 815 219 l 844 89 l 857 74 q 860 56 860 60 l 860 38 q 888 -1 860 11 q 921 -12 915 -12 l 957 0 l 1008 29 l 1042 29 l 1067 11 q 1094 0 1086 0 q 1117 -7 1111 -7 q 1142 0 1126 -7 l 1169 13 l 1185 28 q 1200 35 1192 35 l 1225 29 l 1251 11 q 1281 0 1265 0 l 1317 -11 q 1347 -18 1339 -18 q 1367 0 1367 -18 q 1351 60 1365 22 l 1331 119 l 1324 144 q 1313 250 1313 185 l 1313 281 q 1311 332 1313 294 q 1310 386 1310 369 l 1310 429 l 1314 600 q 1324 694 1315 681 l 1350 742 l 1376 772 q 1392 806 1390 796 q 1379 817 1392 813 l 1363 828 l 1344 847 l 1324 871 q 1304 915 1311 889 q 1296 957 1300 936 q 1292 1064 1289 1000 l 1297 1199 l 1311 1296 q 1356 1346 1319 1354 l 1368 1343 q 1396 1331 1390 1338 l 1418 1288 q 1443 1276 1429 1272 q 1458 1324 1458 1283 q 1448 1398 1458 1346 q 1428 1463 1438 1450 l 1376 1526 q 1306 1569 1342 1569 q 1225 1540 1274 1569 l 1213 1540 q 1169 1565 1174 1560 q 1146 1571 1164 1571 m 149 1556 q 236 1539 201 1556 l 314 1501 l 333 1486 l 386 1408 q 426 1363 403 1386 q 468 1347 446 1347 q 510 1361 488 1349 q 550 1404 542 1385 l 561 1460 q 583 1513 565 1483 q 622 1549 604 1549 l 647 1533 q 656 1481 656 1511 l 661 1429 l 678 1386 l 707 1324 l 732 1268 l 753 1219 l 806 1099 l 832 1044 l 860 1000 l 897 961 l 936 928 l 957 914 l 963 904 l 963 874 l 946 821 l 943 807 q 963 757 946 789 l 988 693 q 1042 578 1007 658 l 1068 525 l 1074 508 q 1085 603 1085 535 l 1085 622 q 1083 642 1085 635 q 1078 713 1083 671 q 1061 781 1071 767 l 1035 819 q 1026 854 1026 839 q 1042 894 1028 867 l 1061 935 l 1069 982 q 1079 1090 1082 1028 l 1075 1175 l 1061 1254 q 1050 1347 1051 1308 q 996 1417 1042 1393 q 950 1431 969 1431 q 897 1417 935 1429 l 878 1417 q 868 1456 868 1431 q 944 1540 868 1540 q 1014 1522 996 1535 q 1044 1458 1040 1506 q 1068 1408 1056 1418 l 1081 1393 q 1154 1358 1115 1358 q 1217 1422 1203 1358 l 1232 1492 q 1299 1556 1246 1556 l 1314 1556 q 1338 1549 1333 1553 l 1364 1517 q 1383 1486 1378 1500 q 1389 1440 1389 1481 q 1383 1417 1389 1417 l 1350 1417 l 1315 1425 q 1290 1417 1304 1425 q 1242 1361 1253 1396 l 1225 1285 q 1203 1110 1199 1164 l 1208 1036 q 1225 975 1211 1024 l 1239 928 q 1263 897 1244 917 l 1278 881 q 1283 849 1283 869 q 1279 829 1283 833 l 1263 811 l 1251 796 q 1225 699 1228 753 l 1218 522 l 1225 246 q 1243 194 1229 221 l 1278 129 q 1281 106 1281 118 q 1267 72 1281 81 l 1246 82 q 1204 119 1228 90 l 1168 164 l 1140 207 l 1114 238 l 1089 260 l 1074 268 q 1033 285 1043 285 q 1001 268 1018 285 q 968 168 968 235 q 963 136 968 144 q 908 94 935 94 q 876 111 889 94 l 851 160 l 825 229 q 799 292 817 253 l 750 413 q 721 474 736 446 q 688 554 714 494 l 668 594 l 640 640 l 624 657 q 603 672 619 664 l 583 682 q 563 703 564 692 l 563 781 l 564 804 l 564 811 l 563 819 l 536 882 l 483 1004 l 458 1067 l 431 1129 l 404 1204 q 386 1246 394 1232 l 372 1254 q 364 1175 364 1244 l 364 1144 q 363 1102 364 1133 q 361 1057 361 1071 l 361 1026 q 365 928 361 940 l 418 850 l 438 819 l 442 803 l 438 788 l 418 757 q 385 686 389 711 l 372 615 l 368 550 q 386 408 364 493 l 404 297 q 479 219 428 219 q 556 246 513 219 l 575 246 l 582 221 l 578 176 l 569 144 q 500 104 550 104 q 443 124 469 104 q 406 176 417 144 l 379 253 q 296 322 343 322 q 233 261 253 315 l 232 238 l 226 206 l 215 174 l 201 143 l 182 125 l 160 115 l 138 108 l 118 104 q 89 114 103 106 l 64 136 l 46 165 q 38 199 38 185 l 43 219 q 57 229 49 229 l 86 225 l 121 222 q 169 246 149 219 l 194 276 q 250 460 256 350 l 247 521 l 244 600 l 244 633 l 246 665 l 243 701 l 233 735 l 186 792 q 172 825 172 806 q 208 890 172 854 q 221 913 217 899 q 242 1101 246 990 l 236 1239 l 221 1343 q 194 1411 215 1385 q 147 1438 172 1438 q 97 1417 122 1438 q 88 1414 92 1414 q 64 1440 74 1414 l 64 1463 q 107 1533 81 1515 l 149 1556 m 1114 1556 q 1175 1517 1167 1553 q 1181 1440 1183 1482 l 1178 1403 l 1174 1386 l 1153 1371 q 1114 1378 1133 1367 q 1089 1406 1093 1394 l 1081 1444 l 1076 1493 q 1081 1525 1075 1511 l 1114 1556 m 588 1285 q 572 1296 582 1293 q 557 1281 564 1293 l 543 1261 q 499 1233 532 1250 l 492 1226 q 511 1204 494 1219 l 543 1176 l 596 1114 l 618 1064 q 647 1029 636 1025 q 661 1046 661 1035 q 653 1067 661 1054 l 640 1092 l 615 1183 l 607 1239 q 588 1285 603 1269 m 838 649 l 828 657 q 825 640 825 654 q 832 618 829 621 l 857 556 q 871 501 858 551 l 883 450 q 910 354 886 425 l 917 324 l 929 339 l 963 356 l 982 369 q 1007 404 1007 388 q 976 439 1006 422 l 957 456 l 901 529 l 853 599 q 838 631 838 621 l 838 649 m 1035 261 l 1058 256 l 1081 246 l 1121 199 q 1129 154 1129 176 q 1115 96 1129 119 q 1079 72 1101 72 q 1008 139 1036 76 q 989 218 989 183 q 1017 256 994 251 l 1035 261 m 683 844 q 701 886 683 868 q 743 904 719 904 q 785 886 767 904 q 803 844 803 868 q 785 803 803 821 q 743 785 767 785 q 701 803 719 785 q 683 844 683 821 m 418 1556 l 442 1553 l 464 1549 q 479 1533 475 1542 l 490 1518 l 515 1417 l 499 1385 q 451 1361 476 1354 q 410 1403 419 1372 q 392 1456 394 1451 l 381 1483 l 379 1525 l 399 1549 l 418 1556 m 293 264 l 317 261 l 339 257 q 354 242 350 250 l 365 226 l 390 125 l 374 93 q 326 69 351 63 q 285 111 294 81 q 267 164 269 160 l 256 192 l 254 233 l 274 257 l 293 264 m 239 831 q 257 872 239 854 q 299 890 275 890 q 340 872 322 890 q 358 831 358 854 q 340 789 358 807 q 299 771 322 771 q 257 789 275 771 q 239 831 239 807 m 1086 858 q 1104 900 1086 882 q 1146 918 1122 918 q 1188 900 1169 918 q 1206 858 1206 882 q 1188 817 1206 835 q 1146 799 1169 799 q 1104 817 1122 799 q 1086 858 1086 835 z "},"O":{"ha":1454,"x_min":8,"x_max":1404,"o":"m 719 1579 l 647 1576 l 594 1567 q 433 1504 493 1536 q 304 1390 346 1458 l 271 1336 l 236 1271 q 221 1235 226 1253 l 211 1204 l 200 1176 q 182 1126 185 1138 q 168 1076 178 1110 q 144 997 163 1060 q 115 924 133 960 l 96 900 l 65 878 l 25 863 q 8 828 8 846 q 115 710 8 785 q 132 667 126 689 l 142 625 l 158 564 l 167 542 l 172 519 l 206 419 l 215 400 l 226 371 l 246 335 l 260 307 l 271 288 l 286 265 l 322 221 l 342 196 l 356 182 q 414 124 374 163 l 454 88 l 494 56 l 543 29 l 576 13 l 614 0 q 746 -21 676 -21 q 879 0 796 -21 l 924 11 q 964 29 950 21 l 1015 58 l 1042 75 l 1061 90 l 1093 119 l 1115 138 q 1133 158 1129 149 l 1161 200 l 1171 213 l 1197 250 l 1211 276 l 1224 304 q 1238 335 1231 315 l 1247 368 l 1263 411 l 1275 457 l 1300 579 l 1314 632 l 1326 671 l 1404 763 q 1375 811 1404 776 q 1299 908 1301 899 l 1286 956 l 1275 1015 l 1249 1107 l 1225 1163 l 1197 1215 l 1146 1299 l 1129 1328 l 1113 1353 l 1079 1390 l 1042 1429 q 890 1539 942 1511 q 735 1579 814 1579 l 719 1579 m 660 1567 q 854 1533 772 1567 q 1015 1421 936 1500 q 1032 1413 1021 1415 l 1047 1406 l 1075 1375 l 1100 1344 l 1129 1281 q 1147 1253 1138 1263 q 1179 1176 1167 1213 l 1204 1100 l 1228 981 q 1256 915 1244 928 l 1307 856 l 1314 832 l 1307 808 l 1283 783 q 1256 740 1263 761 l 1242 714 q 1210 633 1210 665 l 1210 592 l 1208 561 l 1204 533 l 1178 450 l 1151 374 l 1133 326 l 1100 282 l 1081 258 q 1042 211 1061 228 l 997 174 l 974 157 l 951 144 l 875 110 q 788 86 836 92 q 750 81 778 86 l 696 81 l 672 82 l 536 113 l 496 125 l 458 143 l 435 160 l 414 174 l 385 189 l 363 204 l 310 260 q 264 319 275 297 l 236 379 q 214 435 217 419 q 196 483 203 454 l 186 526 q 174 568 179 543 l 163 624 q 154 690 158 657 q 136 747 147 735 l 110 786 l 83 817 l 78 839 l 83 863 l 138 939 q 161 993 149 954 l 186 1100 l 194 1121 q 201 1149 197 1139 l 217 1197 l 239 1253 l 265 1308 q 317 1390 288 1357 q 467 1506 378 1464 l 651 1567 l 660 1567 m 750 1444 q 707 1458 736 1458 q 596 1431 651 1458 l 565 1415 q 543 1397 553 1408 l 511 1368 l 497 1349 l 478 1321 l 458 1276 q 432 1179 435 1224 l 422 1053 l 425 992 l 432 942 q 458 900 440 915 l 478 885 l 492 863 l 504 839 l 504 832 l 478 786 l 446 747 q 439 718 439 728 l 440 688 l 432 561 l 436 490 q 453 426 439 471 l 476 347 q 492 319 485 326 l 504 304 l 524 285 l 543 272 l 608 243 q 715 219 661 219 q 811 238 768 219 q 914 407 893 272 q 926 557 926 488 l 926 592 q 917 725 926 685 l 904 757 q 878 797 896 779 q 858 815 860 814 q 844 856 844 838 q 854 885 846 874 q 928 1074 933 1001 l 924 1125 l 914 1176 l 901 1235 q 886 1292 894 1261 l 861 1336 l 832 1382 q 776 1429 817 1406 l 750 1444 m 976 1360 q 967 1367 975 1361 q 964 1358 964 1364 l 969 1344 l 997 1299 l 1010 1207 l 1022 1199 q 1029 1156 1031 1176 l 1024 1072 q 1031 1025 1022 1056 q 1076 1004 1039 1004 l 1101 1010 q 1113 1028 1113 1017 l 1107 1056 l 1093 1085 l 1078 1138 l 1068 1167 l 1054 1206 l 1042 1238 l 1017 1283 l 990 1329 l 976 1360 m 679 1329 l 706 1329 l 735 1331 q 815 1314 781 1333 l 854 1283 l 874 1260 l 893 1222 q 906 1065 910 1156 l 903 996 q 893 954 901 968 l 874 924 l 854 900 l 828 878 q 792 867 822 874 q 768 854 768 861 q 785 814 768 844 q 811 778 803 783 l 854 763 l 893 732 q 908 671 908 710 l 908 654 l 906 572 q 901 426 901 460 q 868 299 890 325 q 690 247 824 247 q 594 265 621 247 l 568 289 q 549 319 560 300 l 526 410 q 524 442 524 429 l 524 526 l 549 679 l 588 715 q 613 758 613 739 q 601 786 610 778 l 576 817 q 544 886 567 831 l 524 961 l 524 985 q 532 1069 529 1007 q 549 1176 535 1132 q 560 1213 551 1179 q 576 1253 567 1239 l 597 1288 q 626 1314 611 1306 l 679 1329 m 356 1299 l 346 1304 q 328 1288 336 1304 l 313 1247 l 286 1185 l 265 1124 l 243 1076 q 232 1024 226 1042 q 249 1008 236 1013 l 283 1004 l 313 1007 l 329 1015 q 339 1096 339 1025 l 339 1231 l 342 1258 l 356 1299 m 317 701 q 282 715 303 715 q 232 679 236 715 l 239 619 l 251 565 l 294 454 l 306 435 l 322 403 l 336 372 q 356 349 346 351 l 372 347 l 368 349 l 353 385 l 340 424 q 333 567 333 447 q 317 693 333 675 l 317 701 m 1113 671 q 1068 682 1101 682 l 1038 676 q 1022 664 1025 672 l 1022 642 q 1028 617 1024 635 l 1028 581 l 1029 503 l 1029 457 l 1026 435 l 1026 419 q 1035 403 1026 403 l 1042 426 l 1056 454 l 1068 488 l 1106 622 q 1113 671 1113 646 m 225 850 q 243 892 225 874 q 285 910 261 910 q 326 892 308 910 q 344 850 344 874 q 326 808 344 826 q 285 790 308 790 q 243 808 261 790 q 225 850 225 826 m 1008 854 q 1026 896 1008 878 q 1068 914 1044 914 q 1110 896 1092 914 q 1128 854 1128 878 q 1110 813 1128 831 q 1068 794 1092 794 q 1026 813 1044 794 q 1008 854 1008 831 z "},"P":{"ha":1383,"x_min":11,"x_max":1342,"o":"m 789 1567 q 549 1519 619 1567 l 524 1503 l 497 1490 l 479 1490 l 465 1506 l 444 1522 l 421 1535 q 375 1549 394 1549 q 339 1535 357 1549 l 300 1504 q 283 1501 289 1501 q 240 1517 269 1501 l 206 1535 q 153 1547 168 1547 q 110 1535 133 1547 l 76 1517 q 39 1472 53 1504 l 21 1431 q 11 1379 11 1397 l 21 1340 l 28 1303 q 96 1274 47 1274 q 124 1281 119 1276 l 136 1303 q 163 1311 151 1311 q 186 1303 176 1311 l 199 1288 q 208 1182 206 1265 l 213 1010 l 201 956 q 186 918 190 922 q 163 899 174 906 l 149 890 l 104 868 q 94 854 94 864 q 117 815 94 840 q 149 792 132 799 l 174 778 q 213 703 206 747 l 214 661 l 207 436 q 193 275 203 301 l 181 250 q 149 231 161 228 l 94 272 q 65 282 76 286 q 49 213 49 275 l 54 163 l 65 131 l 86 100 l 115 51 l 140 28 l 165 8 l 197 -1 q 231 -11 217 -11 q 257 0 242 -8 l 332 43 l 371 28 q 436 -1 419 -1 q 467 25 442 0 q 504 57 492 50 l 529 57 l 554 42 l 574 28 q 644 4 607 4 q 771 118 736 4 l 776 136 l 776 161 q 752 248 776 210 q 701 286 728 286 l 688 282 l 675 260 q 643 253 664 253 q 617 260 624 256 q 607 293 607 269 q 604 322 604 313 l 604 356 l 607 444 l 613 568 q 618 597 614 593 q 667 606 635 604 q 714 613 700 608 q 929 651 863 636 l 942 657 l 1018 688 l 1046 701 l 1075 718 l 1119 749 q 1151 785 1133 758 l 1165 806 l 1178 821 l 1278 988 l 1314 1029 q 1342 1078 1344 1064 q 1324 1089 1340 1083 q 1303 1101 1308 1094 l 1289 1121 q 1275 1143 1283 1129 l 1253 1175 l 1228 1219 l 1201 1268 l 1176 1310 l 1100 1400 q 955 1521 1036 1475 q 789 1567 874 1567 m 707 1550 q 853 1535 769 1550 q 986 1490 953 1518 l 1063 1406 l 1107 1363 l 1119 1347 l 1158 1288 l 1171 1257 l 1190 1217 l 1214 1182 l 1228 1158 l 1240 1131 l 1260 1115 l 1240 1085 l 1231 1075 q 1221 1063 1225 1069 l 1208 1040 l 1189 1010 q 1171 978 1181 999 l 1158 950 l 1139 908 l 1122 881 l 1108 861 l 1093 846 l 1071 831 l 1046 817 l 967 769 l 919 753 l 868 740 l 835 738 l 814 738 l 692 740 q 549 710 590 743 l 529 694 l 524 681 q 510 610 511 650 l 506 501 q 511 372 503 439 q 549 253 522 276 l 561 238 q 617 211 596 211 q 669 238 631 213 l 682 238 l 700 215 q 703 192 703 204 q 692 147 703 178 q 672 125 682 132 l 646 107 q 585 99 622 96 l 553 101 l 536 110 l 510 135 l 490 163 l 476 200 l 464 232 l 453 249 l 415 279 q 393 292 403 292 l 386 292 l 376 290 l 351 282 l 325 261 l 307 239 q 301 200 301 229 q 294 163 297 165 q 243 110 268 128 q 185 99 225 97 l 157 100 q 136 110 142 104 q 106 144 117 128 l 85 185 l 104 207 q 142 215 124 215 l 168 213 q 192 229 185 213 l 213 275 q 228 349 221 294 q 233 449 235 404 l 232 488 l 231 507 l 229 529 l 236 679 q 238 704 233 694 l 243 724 q 232 760 242 738 l 215 800 q 192 838 206 824 q 172 868 172 861 q 183 899 172 879 l 206 922 l 218 957 q 229 1003 229 988 q 232 1021 229 1001 l 232 1063 l 228 1138 l 225 1228 l 226 1250 l 229 1282 q 218 1318 228 1304 l 193 1356 l 175 1374 l 161 1385 l 129 1394 l 108 1386 l 79 1372 l 57 1368 q 40 1378 46 1371 l 40 1422 l 67 1472 q 100 1500 68 1476 l 117 1513 l 147 1517 l 186 1513 l 219 1493 q 251 1463 246 1478 l 267 1422 q 301 1363 275 1401 l 326 1318 q 379 1299 346 1299 q 434 1313 406 1299 q 472 1345 463 1326 q 483 1406 481 1364 q 492 1465 485 1449 q 589 1518 508 1490 q 707 1550 657 1542 m 358 1528 q 414 1497 392 1528 q 436 1425 436 1467 q 428 1378 436 1401 l 418 1350 q 403 1325 411 1331 l 346 1325 l 319 1356 q 310 1413 310 1374 l 315 1474 q 332 1513 321 1500 l 358 1528 m 853 1468 l 847 1475 l 840 1475 l 833 1468 l 840 1460 l 847 1453 l 860 1453 l 865 1460 l 860 1468 l 853 1468 m 885 1444 q 872 1450 882 1450 q 865 1444 868 1449 q 896 1401 876 1413 l 936 1378 l 949 1367 q 956 1353 953 1363 l 969 1315 l 981 1294 l 999 1257 q 1015 1250 1006 1250 q 1032 1279 1032 1250 q 1025 1310 1031 1290 l 1001 1351 l 974 1369 l 936 1400 q 915 1411 932 1404 l 897 1422 l 885 1444 m 732 1406 q 700 1418 722 1418 l 664 1411 l 599 1385 q 574 1368 582 1378 l 549 1339 q 529 1306 531 1318 l 524 1264 q 514 1225 519 1246 q 513 1210 514 1225 q 510 1179 511 1196 l 506 1090 l 510 993 l 513 964 l 521 894 q 640 825 536 825 q 772 847 708 825 q 872 926 853 875 q 900 1031 900 1001 q 881 1067 899 1046 q 860 1099 864 1089 q 865 1128 857 1114 l 878 1151 q 893 1229 893 1189 q 847 1339 893 1300 q 786 1378 814 1367 l 732 1399 l 732 1406 m 694 1318 l 776 1318 l 825 1290 l 853 1272 q 868 1199 868 1244 l 865 1175 l 853 1153 l 828 1131 q 793 1089 793 1100 q 808 1069 794 1076 l 853 1047 l 865 1025 l 868 1007 l 868 989 l 864 946 q 853 913 857 919 q 774 858 826 872 l 682 844 l 643 846 q 618 853 633 849 q 606 972 604 892 l 611 1168 l 610 1189 l 610 1214 l 611 1246 l 618 1265 q 656 1294 631 1279 l 694 1318 m 1018 994 q 1003 1003 1011 1000 q 982 986 988 1003 l 968 943 l 953 903 q 942 892 950 896 q 924 876 933 888 l 914 857 q 928 847 915 847 l 949 851 l 967 860 q 1001 904 989 878 l 1025 957 l 1036 972 l 1032 974 l 1025 981 l 1018 994 m 313 806 q 331 847 313 829 q 372 865 349 865 q 414 847 396 865 q 432 806 432 829 q 414 764 432 782 q 372 746 396 746 q 331 764 349 746 q 313 806 313 782 m 979 1111 q 997 1153 979 1135 q 1039 1171 1015 1171 q 1081 1153 1063 1171 q 1099 1111 1099 1135 q 1081 1069 1099 1088 q 1039 1051 1063 1051 q 997 1069 1015 1051 q 979 1111 979 1088 m 364 692 q 333 492 347 593 l 321 399 q 357 382 321 382 q 408 392 394 382 l 364 692 m 364 936 q 394 1136 381 1035 l 407 1229 q 371 1246 407 1246 q 319 1236 333 1246 l 364 936 m 386 256 q 442 207 421 256 q 460 129 460 168 q 400 44 460 44 q 354 67 376 44 q 329 110 332 90 l 325 142 l 325 158 q 338 215 325 197 q 386 256 350 233 z "},"Q":{"ha":1454,"x_min":21,"x_max":1413,"o":"m 721 1583 l 649 1578 l 599 1571 q 435 1506 488 1536 q 306 1400 351 1458 l 289 1374 l 243 1289 q 221 1233 236 1275 l 213 1210 l 201 1183 l 149 1004 q 118 929 135 954 l 100 907 l 71 883 l 26 858 q 21 843 21 853 q 29 807 21 831 l 39 779 q 49 767 43 775 l 50 765 q 53 764 51 765 l 72 768 q 88 761 85 765 q 99 744 96 756 q 106 715 103 740 q 113 654 113 686 l 133 575 l 160 501 l 183 426 l 194 397 l 208 371 q 228 342 213 367 l 261 288 l 293 243 q 326 211 300 233 l 415 119 l 440 106 l 471 86 l 497 72 l 528 60 q 578 39 549 47 l 622 26 l 681 13 q 700 10 681 13 l 742 10 l 860 15 q 929 -7 894 17 l 985 -60 l 1038 -86 l 1089 -108 q 1136 -117 1117 -117 q 1213 -87 1179 -117 l 1258 -47 q 1289 4 1264 -40 q 1307 51 1296 17 q 1314 93 1314 74 l 1308 128 q 1289 157 1297 147 l 1267 182 q 1244 200 1261 190 q 1218 172 1232 197 l 1206 157 l 1193 143 l 1147 143 l 1129 157 l 1135 188 l 1161 231 q 1185 274 1171 246 q 1238 371 1208 311 q 1264 438 1253 401 l 1289 517 l 1314 608 l 1328 644 l 1343 678 l 1360 708 l 1386 725 q 1413 753 1413 742 q 1363 833 1413 775 q 1303 914 1307 899 l 1290 969 l 1278 1019 l 1250 1114 l 1225 1171 l 1200 1218 l 1153 1303 l 1124 1344 l 1114 1356 q 1086 1393 1100 1381 l 1044 1432 q 729 1583 882 1583 l 721 1583 m 663 1571 q 858 1538 776 1571 q 1018 1425 939 1506 q 1075 1379 1061 1401 l 1103 1349 l 1154 1258 l 1206 1107 l 1219 1006 q 1257 921 1226 954 l 1283 892 l 1308 860 l 1314 838 l 1308 815 l 1275 788 q 1261 761 1265 778 l 1250 729 l 1240 706 l 1232 679 l 1218 646 q 1206 585 1215 629 l 1194 532 l 1158 447 l 1140 401 l 1132 382 l 1119 354 l 1110 338 q 1069 321 1097 321 q 1019 336 1040 321 l 992 357 l 954 386 l 926 417 q 915 446 918 431 l 914 483 l 926 599 q 932 638 928 610 l 932 668 q 922 738 932 701 q 896 783 917 760 q 863 824 868 814 q 849 864 849 847 q 856 892 851 885 q 881 915 869 914 q 901 936 893 917 q 933 1107 933 996 q 926 1172 933 1147 l 903 1257 l 889 1294 l 863 1342 l 832 1388 q 769 1437 813 1417 q 689 1457 726 1457 q 599 1432 647 1457 l 569 1421 q 546 1404 556 1415 l 531 1386 l 514 1372 l 490 1344 l 481 1328 l 463 1281 q 436 1181 436 1229 q 426 1114 432 1156 q 425 1090 425 1104 l 425 1058 l 422 1035 l 429 997 l 449 932 l 463 907 q 493 867 485 882 l 508 844 l 508 838 l 492 814 l 481 790 l 458 767 l 444 754 q 410 600 410 699 q 468 364 410 442 l 481 333 q 515 293 493 304 l 557 274 q 694 231 649 231 l 742 235 l 765 242 l 779 225 l 779 157 q 743 132 771 138 q 707 126 735 132 l 663 126 l 569 132 l 510 142 l 472 154 l 393 186 q 357 206 365 197 l 342 218 l 326 235 l 288 274 q 254 317 268 293 l 231 371 l 201 433 l 161 536 l 153 571 l 139 621 l 124 683 l 117 717 l 114 742 q 118 761 114 753 q 110 790 118 774 l 89 824 l 82 844 l 89 867 l 133 928 q 178 1051 164 979 l 189 1107 l 243 1258 l 278 1329 q 319 1396 296 1367 q 528 1532 393 1469 q 583 1553 561 1547 l 656 1571 l 663 1571 m 979 1363 q 969 1369 978 1364 l 967 1365 q 974 1349 969 1353 l 999 1303 l 1014 1229 q 1022 1210 1015 1221 q 1031 1161 1032 1181 l 1025 1074 l 1031 1039 q 1079 1008 1047 1008 q 1114 1038 1114 1008 q 1107 1065 1114 1054 l 1096 1089 l 1085 1121 l 1069 1174 l 1044 1240 l 1018 1290 l 992 1335 l 979 1363 m 682 1335 l 708 1335 l 736 1336 q 783 1332 761 1338 l 818 1319 l 856 1288 l 876 1265 l 888 1240 l 896 1226 q 908 1069 913 1161 l 906 1001 q 896 961 904 986 l 876 929 l 856 907 l 831 883 q 794 872 822 878 q 772 861 772 867 q 793 814 772 846 q 828 775 814 782 q 882 761 843 768 l 896 761 q 917 636 917 707 q 896 508 917 561 l 889 478 q 882 479 886 479 q 853 493 874 483 l 836 501 l 776 517 q 711 525 744 525 q 586 440 610 525 l 582 408 q 597 337 582 369 q 631 304 611 304 l 650 310 l 663 333 q 704 343 676 343 q 742 333 728 343 l 760 310 l 764 285 l 760 264 q 685 247 731 247 q 550 310 600 247 q 501 435 504 367 l 497 536 l 501 622 q 514 678 503 656 l 543 724 q 574 761 563 754 q 599 765 581 765 q 615 774 606 768 q 604 790 613 782 l 578 824 q 547 893 567 842 q 528 968 542 908 l 528 989 q 539 1113 539 1008 q 551 1183 543 1160 l 564 1221 l 576 1256 l 600 1288 l 629 1319 q 658 1329 632 1324 l 682 1335 m 360 1303 l 350 1308 q 335 1289 339 1306 l 326 1251 l 288 1186 l 279 1153 l 272 1121 l 250 1078 q 236 1031 233 1046 q 253 1014 240 1018 l 289 1010 q 331 1021 322 1010 q 340 1093 340 1032 l 340 1188 q 344 1265 340 1243 l 360 1293 l 360 1303 m 267 715 q 250 725 258 725 q 230 710 238 725 q 225 678 222 694 l 232 639 l 243 592 l 264 528 l 289 483 l 299 460 l 314 433 l 325 393 q 338 379 331 376 q 357 396 357 388 q 344 411 357 406 l 332 417 l 319 499 l 308 540 l 308 554 l 322 613 q 329 664 329 642 q 267 715 329 715 m 1108 669 q 1061 682 1099 682 l 1029 676 q 1011 661 1013 667 l 1014 613 l 1025 508 q 1022 471 1022 489 l 1022 432 l 1025 408 l 1031 433 l 1056 493 l 1083 563 l 1101 615 q 1108 669 1108 636 m 714 517 q 817 488 763 517 q 908 426 863 463 l 935 394 q 967 364 944 383 l 1004 325 q 1024 318 1014 322 q 1039 292 1039 311 l 1047 203 q 1154 128 1054 128 l 1169 128 q 1193 132 1185 128 l 1206 143 l 1218 157 q 1249 138 1239 153 q 1258 104 1258 124 q 1244 67 1256 81 l 1219 36 q 1174 -7 1190 0 l 1131 -25 l 1096 -37 l 1056 -37 l 1013 -25 l 975 -8 l 949 3 l 926 19 l 901 53 q 840 92 881 74 l 797 111 q 790 132 790 118 l 793 149 l 797 172 l 799 199 q 790 257 800 226 l 771 317 q 754 356 761 346 l 721 386 q 671 413 692 413 l 657 408 l 639 406 l 631 406 q 622 408 629 407 q 600 432 600 421 q 633 474 600 450 q 714 517 667 497 m 836 401 l 825 410 q 811 401 817 407 q 817 381 804 393 l 831 371 l 843 326 q 858 314 851 314 q 876 325 871 317 q 864 367 886 339 l 836 401 m 999 128 q 978 135 992 135 q 944 117 944 135 q 946 111 944 114 q 967 103 953 106 l 985 89 l 997 75 q 1011 67 1001 69 q 1025 74 1021 69 q 1024 78 1024 75 q 1014 99 1019 93 q 999 128 999 118 m 229 856 q 247 897 229 879 q 289 915 265 915 q 331 897 313 915 q 349 856 349 879 q 331 814 349 832 q 289 796 313 796 q 247 814 265 796 q 229 856 229 832 m 1013 851 q 1031 893 1013 875 q 1072 911 1049 911 q 1114 893 1096 911 q 1132 851 1132 875 q 1114 810 1132 828 q 1072 792 1096 792 q 1031 810 1049 792 q 1013 851 1013 828 m 854 222 q 872 264 854 246 q 914 282 890 282 q 956 264 938 282 q 974 222 974 246 q 956 181 974 199 q 914 163 938 163 q 872 181 890 163 q 854 222 854 199 z "},"R":{"ha":1389,"x_min":0,"x_max":1349,"o":"m 731 1586 q 615 1571 679 1586 q 531 1542 550 1556 l 507 1531 q 481 1511 492 1524 l 461 1489 l 449 1518 l 403 1549 l 381 1558 l 358 1564 q 321 1549 338 1561 l 289 1533 l 282 1518 q 221 1535 264 1517 q 183 1549 207 1542 l 157 1556 l 133 1558 q 92 1549 113 1557 l 61 1528 q 17 1466 33 1508 q 0 1386 0 1424 q 28 1300 0 1335 l 40 1278 l 53 1263 l 65 1240 q 97 1278 82 1244 q 117 1315 104 1290 q 142 1324 129 1324 q 168 1315 156 1324 l 193 1293 l 190 910 q 181 878 189 886 l 142 849 l 104 828 q 86 806 86 818 q 110 772 89 790 l 138 756 q 167 735 161 742 q 190 696 172 728 q 207 631 207 664 q 213 601 208 624 l 213 547 q 215 517 213 547 l 215 440 q 178 235 215 272 q 135 214 157 214 q 92 231 113 214 l 65 260 q 54 233 54 257 q 63 171 54 208 l 78 125 l 92 88 l 96 71 l 104 57 l 129 26 q 175 0 160 0 l 200 -10 l 217 -14 q 244 -1 225 -14 l 289 26 q 339 43 315 43 q 365 35 354 43 l 401 8 q 432 0 417 0 q 456 7 447 3 q 481 35 474 21 l 499 57 l 525 57 l 569 26 l 617 7 q 643 1 624 7 l 658 1 q 722 24 696 1 q 761 94 749 46 l 772 138 q 775 167 775 157 q 761 207 775 186 l 735 246 q 700 272 717 274 q 675 257 690 272 q 647 228 660 242 q 638 219 644 226 q 603 265 618 222 q 590 325 592 299 q 589 349 590 331 q 588 376 588 367 l 588 436 l 582 503 l 579 575 l 579 606 l 582 629 l 601 660 q 686 669 614 672 l 754 667 q 793 660 788 665 l 806 644 l 824 614 q 836 590 836 597 l 840 578 l 840 565 q 828 508 840 538 l 806 456 l 793 442 q 782 414 782 422 q 800 399 782 403 l 824 389 l 843 365 l 871 283 q 946 147 892 221 l 985 94 q 1022 57 999 76 l 1040 39 l 1063 26 l 1113 10 q 1169 1 1138 1 l 1204 7 q 1232 26 1218 13 l 1264 57 l 1283 76 l 1294 90 l 1308 110 q 1324 138 1321 126 l 1339 176 q 1349 217 1349 196 q 1319 258 1349 250 q 1246 276 1297 267 q 1213 336 1213 292 q 1228 408 1213 379 q 1243 449 1243 436 l 1250 486 l 1244 501 l 1210 540 q 1182 585 1199 557 l 1111 704 l 1090 731 l 1067 765 l 1067 788 l 1086 810 l 1118 840 q 1194 931 1161 869 l 1219 976 l 1244 1029 l 1264 1058 l 1290 1089 l 1315 1119 l 1296 1135 l 1244 1194 l 1208 1261 q 1168 1315 1192 1292 l 1143 1346 l 1118 1375 q 951 1515 1057 1447 q 789 1581 851 1581 l 731 1586 m 690 1571 q 847 1546 782 1571 q 996 1458 925 1517 l 1078 1392 l 1111 1360 q 1139 1318 1114 1358 l 1150 1300 l 1178 1247 l 1213 1210 l 1226 1199 q 1232 1188 1229 1196 l 1188 1119 l 1150 1014 q 1117 965 1143 994 l 1079 924 l 1047 893 l 993 860 q 946 850 974 850 q 915 839 915 846 l 919 825 l 938 817 l 958 810 q 1035 764 999 790 q 1099 697 1078 732 l 1153 606 l 1185 560 q 1200 517 1204 532 l 1168 450 q 1146 356 1146 404 q 1194 253 1146 293 l 1229 243 l 1258 238 l 1260 221 q 1251 169 1263 193 l 1232 140 l 1193 110 l 1154 89 l 1128 81 l 1108 78 l 1103 78 l 1088 81 l 1047 94 l 1015 110 l 975 147 l 939 185 l 926 200 l 904 236 l 888 275 l 874 350 q 838 411 861 392 l 811 433 q 826 467 813 440 l 843 494 q 853 542 853 511 q 849 576 853 563 l 838 614 q 769 724 814 693 q 679 742 743 742 l 628 742 l 579 743 q 529 728 543 744 q 517 675 515 713 l 518 638 l 521 406 l 528 333 q 557 239 535 267 q 646 207 582 207 q 674 226 660 210 l 690 246 l 694 190 q 690 156 696 168 l 682 138 l 671 125 q 574 92 635 92 q 531 100 547 92 q 506 132 510 114 l 493 183 q 481 215 488 206 l 454 251 l 435 275 q 406 294 421 289 l 385 299 q 353 281 367 297 l 333 246 l 308 169 l 292 136 q 253 108 279 125 q 188 94 235 94 q 122 110 146 94 q 90 142 108 115 q 72 185 72 169 l 85 207 l 97 215 q 125 206 106 214 q 147 199 140 199 l 161 200 q 224 282 206 214 q 238 431 240 346 l 235 524 l 228 644 l 225 719 l 213 765 l 182 797 q 164 832 164 817 q 174 863 165 844 l 213 908 q 222 1065 222 949 q 214 1239 222 1183 q 200 1331 210 1317 l 174 1368 l 157 1385 q 140 1397 149 1396 l 128 1403 q 113 1406 117 1406 q 82 1397 99 1406 l 57 1385 l 38 1381 q 21 1390 26 1383 l 21 1436 l 47 1483 l 78 1511 l 97 1526 q 131 1532 110 1533 l 147 1531 l 168 1526 l 207 1501 q 232 1481 231 1486 l 254 1421 l 308 1331 q 361 1311 328 1311 q 416 1325 388 1311 q 453 1356 444 1339 q 460 1404 458 1368 l 461 1465 q 579 1546 489 1518 q 690 1571 615 1557 m 340 1542 q 390 1521 368 1542 q 417 1471 411 1500 q 418 1438 418 1458 q 410 1390 418 1414 l 400 1363 q 385 1338 393 1343 l 326 1338 l 301 1368 q 292 1426 292 1386 l 297 1488 q 314 1526 303 1514 l 340 1542 m 715 1428 q 692 1431 699 1431 l 646 1428 l 614 1421 l 581 1404 l 557 1390 l 531 1360 q 514 1332 515 1343 l 506 1285 q 488 1115 485 1167 l 493 1014 l 496 983 l 503 925 q 525 871 511 885 q 625 844 551 844 q 756 868 690 844 q 856 946 838 896 q 883 1051 883 1022 q 864 1087 883 1065 q 843 1119 844 1108 q 850 1150 843 1132 l 863 1172 q 878 1250 878 1210 q 769 1407 878 1342 l 715 1428 m 964 1383 q 953 1393 963 1386 l 949 1394 l 956 1375 l 971 1353 l 985 1329 l 996 1307 l 1004 1278 l 1014 1247 l 1025 1242 q 1040 1261 1035 1242 q 1042 1293 1046 1281 q 994 1349 1033 1322 q 964 1375 975 1363 l 964 1383 m 678 1338 l 703 1342 l 726 1343 q 758 1338 747 1344 l 801 1319 q 837 1294 829 1304 q 849 1260 844 1283 l 853 1218 l 850 1194 l 838 1172 l 811 1150 q 776 1108 776 1121 q 804 1083 778 1096 l 838 1067 l 850 1044 l 853 1026 l 853 1008 l 849 964 q 838 931 842 936 q 758 876 810 885 l 665 863 l 626 864 q 601 871 617 867 q 589 920 590 897 q 588 953 588 943 l 588 989 l 590 1085 l 594 1188 l 593 1210 l 593 1238 l 594 1267 l 601 1285 q 636 1317 624 1311 q 678 1338 656 1329 m 1028 1051 l 1015 1060 l 996 1044 l 971 1014 l 946 968 l 926 946 l 940 935 q 950 946 946 936 l 958 961 l 989 983 q 1014 1015 1008 997 l 1028 1042 l 1028 1051 m 926 728 l 924 732 q 914 739 922 733 q 907 728 907 736 q 914 700 907 711 l 946 667 q 953 625 953 656 q 971 585 957 590 l 983 582 q 1013 614 1013 582 l 1010 625 q 1000 638 1008 632 l 990 644 l 964 682 l 926 728 m 1035 389 l 1024 397 q 1021 396 1022 396 q 1011 382 1015 390 q 1001 353 1001 368 l 1007 325 l 1021 300 l 1032 274 l 1047 253 l 1060 246 q 1064 256 1064 250 l 1053 303 l 1042 336 l 1035 389 m 288 794 q 306 836 288 818 q 347 854 324 854 q 389 836 371 854 q 407 794 407 818 q 389 753 407 771 q 347 735 371 735 q 306 753 324 735 q 288 794 288 771 m 993 1151 q 1043 1201 1000 1201 q 1093 1151 1093 1194 q 1043 1101 1086 1101 q 993 1151 993 1108 m 964 483 q 1014 533 971 533 q 1064 483 1064 526 q 1014 433 1057 433 q 964 483 964 440 m 356 658 q 325 458 339 560 l 313 365 q 349 349 313 349 q 400 358 386 349 l 356 658 m 347 939 q 378 1139 364 1038 l 390 1232 q 354 1249 390 1249 q 303 1239 317 1249 l 347 939 m 382 292 q 431 271 410 292 q 458 221 453 250 q 460 188 460 208 q 451 140 460 164 l 442 113 q 426 88 435 93 l 368 88 l 343 118 q 333 176 333 136 l 339 238 q 356 276 344 264 l 382 292 z "},"S":{"ha":1031,"x_min":22,"x_max":990,"o":"m 510 1578 l 535 1564 l 565 1550 q 597 1532 579 1546 l 635 1503 q 665 1494 650 1494 l 694 1499 l 718 1511 l 768 1546 q 831 1568 800 1568 l 850 1564 q 910 1415 910 1539 q 903 1329 910 1374 q 897 1283 901 1308 q 889 1256 894 1272 l 876 1206 l 863 1160 q 831 1107 853 1129 l 811 1092 l 781 1064 l 764 1046 l 743 1064 l 718 1092 q 697 1143 701 1106 q 692 1189 697 1174 q 632 1308 664 1267 q 528 1390 596 1353 l 483 1396 q 457 1392 464 1396 l 446 1388 l 439 1385 l 401 1361 l 376 1329 l 357 1301 l 357 1204 q 396 1143 357 1189 l 446 1085 q 489 1067 461 1067 q 586 1094 507 1067 q 621 1099 611 1103 l 635 1069 l 647 1033 l 658 1000 q 669 979 664 985 l 685 965 l 711 935 l 749 904 l 786 875 l 847 826 q 900 764 881 800 l 913 718 l 940 663 q 965 594 960 624 l 982 506 q 990 417 990 461 q 983 346 990 385 q 964 285 982 329 l 951 226 q 889 119 929 165 q 800 46 869 97 l 768 31 l 736 17 q 707 6 726 14 q 640 -8 678 0 l 613 -8 q 543 -1 574 -8 q 464 17 515 1 q 426 28 436 22 l 303 86 q 254 31 282 86 q 199 -11 236 -6 q 132 57 186 -11 q 110 92 129 61 l 92 121 q 74 150 79 133 l 58 181 q 44 233 49 207 q 33 282 39 268 l 25 317 l 22 350 q 33 431 19 376 q 58 569 58 532 l 54 610 l 51 647 q 65 696 49 681 q 108 672 71 701 l 156 635 l 204 578 q 232 533 221 557 l 256 479 l 281 428 l 290 404 l 306 361 l 331 308 l 382 249 q 489 208 435 208 q 603 249 540 208 l 622 261 l 642 278 q 661 308 651 299 q 683 399 683 343 q 667 465 683 432 q 661 472 665 467 q 654 481 657 478 l 642 496 l 629 507 l 617 525 l 578 553 q 542 568 568 560 l 493 574 q 407 553 435 574 l 392 536 l 388 524 q 364 569 382 543 l 350 589 l 338 614 l 325 629 l 313 651 l 267 704 l 238 733 l 204 761 l 174 794 l 160 808 q 131 846 143 825 l 85 943 l 71 989 q 62 1035 65 1024 q 49 1056 58 1046 q 39 1079 44 1063 l 36 1125 q 51 1274 32 1185 q 92 1390 69 1356 l 108 1415 l 128 1439 l 138 1451 l 153 1467 q 407 1585 242 1578 l 443 1586 l 469 1589 q 510 1578 499 1589 m 349 1571 l 253 1525 q 167 1465 235 1517 l 156 1450 q 64 1264 96 1390 l 60 1247 q 53 1226 60 1233 l 53 1099 l 79 1017 l 104 957 l 129 904 l 140 885 l 156 868 l 174 846 l 204 817 l 256 786 l 294 756 l 306 740 l 318 713 l 331 679 l 349 635 l 375 635 l 431 656 q 471 664 456 665 q 518 657 504 661 q 558 635 521 656 q 594 610 575 629 l 631 575 l 644 557 l 660 532 l 672 506 l 696 443 l 703 413 q 696 379 703 401 l 686 347 l 672 311 l 660 283 l 647 268 l 635 256 q 565 206 603 224 q 490 189 528 189 q 419 210 451 189 l 394 226 l 367 236 l 303 278 q 274 315 289 290 l 263 344 q 233 407 243 374 l 213 479 l 160 600 q 126 641 156 618 q 79 660 97 664 l 79 629 l 76 582 l 76 525 l 74 501 l 54 413 q 44 321 44 368 q 53 249 44 286 l 65 240 q 105 146 82 185 q 151 107 128 107 q 186 128 168 107 l 201 156 l 213 174 l 213 201 l 193 226 l 174 256 l 168 279 l 172 285 q 192 269 183 282 l 204 249 l 231 218 l 256 188 l 275 172 l 297 158 l 367 128 l 410 115 l 482 99 l 621 99 l 724 128 q 819 207 768 151 q 893 308 871 263 l 911 339 l 918 361 q 931 422 924 378 l 935 515 l 931 608 q 925 663 929 650 q 896 724 921 682 q 868 769 882 756 l 856 779 l 818 822 l 764 871 q 703 913 728 903 q 647 949 653 939 l 617 1017 l 607 1040 q 589 1067 600 1067 q 578 1065 583 1067 l 553 1054 q 500 1046 526 1046 q 419 1064 464 1046 l 392 1072 q 364 1092 379 1076 l 325 1121 l 313 1138 q 268 1206 283 1154 q 257 1288 254 1249 l 261 1338 q 282 1379 265 1361 l 313 1413 q 433 1469 365 1469 q 535 1443 489 1469 l 574 1421 q 610 1383 594 1408 l 628 1354 l 647 1347 l 660 1294 l 692 1224 l 711 1174 l 711 1144 l 749 1144 q 754 1153 750 1149 q 772 1179 761 1163 l 792 1217 q 803 1251 794 1224 l 806 1286 l 796 1406 l 800 1443 l 818 1496 l 818 1525 l 800 1540 l 774 1525 l 767 1532 l 729 1511 l 697 1481 l 693 1468 q 710 1430 693 1458 q 724 1390 726 1401 l 703 1413 l 642 1481 l 597 1513 l 553 1540 l 513 1556 q 471 1571 503 1558 l 349 1571 m 156 1189 l 167 1154 l 181 1115 l 204 1078 l 231 1054 l 256 1025 l 275 1010 l 300 994 l 332 979 l 369 965 l 382 960 l 390 956 l 382 913 l 382 893 q 379 867 382 886 q 361 851 379 853 l 343 853 l 331 860 l 313 882 l 267 926 q 224 981 236 957 l 213 1003 l 192 1039 l 174 1083 l 156 1151 l 140 1181 l 149 1197 l 156 1189 m 647 838 l 660 817 l 685 786 l 711 756 l 749 700 l 774 658 l 786 635 q 800 585 794 619 l 811 517 l 811 435 q 806 404 810 424 l 800 418 l 800 468 l 799 496 q 793 525 797 513 l 767 592 l 749 621 l 729 644 l 697 674 l 654 703 l 618 717 q 596 751 596 725 l 597 764 l 617 786 q 618 830 617 810 q 631 850 619 850 q 647 838 640 850 m 421 857 q 439 815 421 833 q 481 797 457 797 q 522 815 504 797 q 540 857 540 833 q 522 899 540 881 q 481 917 504 917 q 439 899 457 917 q 421 857 421 881 z "},"T":{"ha":1390,"x_min":17,"x_max":1350,"o":"m 436 1583 l 446 1583 l 476 1567 l 575 1519 l 601 1528 l 615 1551 q 667 1589 638 1589 q 711 1571 686 1589 l 761 1535 l 788 1528 l 814 1551 q 922 1582 865 1582 l 963 1578 q 1004 1567 975 1576 l 1064 1536 q 1122 1519 1108 1514 q 1179 1560 1136 1526 q 1229 1589 1215 1589 q 1254 1583 1244 1589 l 1286 1568 q 1350 1442 1358 1525 q 1340 1251 1350 1324 q 1322 1117 1336 1158 l 1313 1086 l 1294 1046 q 1247 976 1283 1021 q 1222 947 1229 954 q 1193 919 1214 939 l 1175 903 l 1150 889 l 1132 888 q 1079 954 1079 883 q 1086 1017 1079 983 l 1101 1092 l 1096 1146 q 1065 1294 1096 1239 q 1040 1315 1060 1306 l 1018 1326 q 986 1335 1008 1335 q 965 1329 971 1335 l 942 1304 q 926 1272 932 1290 l 921 1226 l 919 1171 l 915 1067 l 913 969 q 915 897 911 917 q 926 849 917 871 l 953 813 l 979 782 l 1004 749 q 992 735 1004 746 q 953 701 969 718 l 939 681 l 926 657 l 918 632 l 915 600 l 921 508 l 918 478 l 914 424 l 911 374 q 946 251 906 279 l 969 260 l 990 274 l 1000 297 q 1018 319 1008 318 l 1044 288 l 1058 274 q 1090 218 1090 257 l 1088 193 q 1074 129 1088 167 q 1058 88 1068 106 l 1031 47 l 1018 33 q 982 13 1008 22 l 942 3 q 919 6 928 3 l 886 17 l 801 81 l 788 79 l 776 65 l 768 47 l 739 14 q 700 0 725 3 q 636 39 675 0 q 600 58 618 57 q 568 47 586 58 l 532 15 q 463 -1 499 -1 q 339 88 378 -1 l 325 119 q 303 171 308 144 l 297 236 l 297 260 q 306 297 297 297 l 321 288 l 339 274 l 376 250 q 414 242 393 242 q 471 283 453 242 l 478 313 l 483 679 l 415 758 q 389 811 392 786 l 393 825 l 410 838 l 429 849 l 458 876 q 497 982 493 910 l 503 1083 l 503 1142 q 497 1201 501 1165 q 465 1315 497 1299 l 436 1326 l 415 1326 l 358 1294 q 335 1271 343 1286 l 318 1242 q 300 1174 308 1215 l 289 1117 l 286 1058 l 290 1006 l 300 981 q 304 944 308 960 q 272 911 296 911 q 185 974 240 911 q 115 1063 143 1019 q 60 1257 56 1160 l 64 1342 l 69 1403 l 68 1432 q 61 1460 68 1442 l 42 1513 l 21 1528 l 17 1551 q 58 1582 17 1576 q 95 1578 76 1582 q 122 1567 114 1574 l 207 1525 l 232 1539 l 278 1560 l 293 1564 l 307 1572 l 338 1581 q 375 1583 361 1581 l 413 1585 l 436 1583 m 1211 1567 l 1158 1538 q 1122 1490 1125 1514 l 1143 1451 l 1122 1451 l 1065 1528 q 932 1561 1031 1561 q 851 1551 883 1561 q 801 1519 819 1542 q 781 1468 790 1506 l 768 1419 q 739 1369 760 1388 q 690 1350 718 1350 q 615 1386 651 1350 l 601 1403 l 589 1435 l 565 1486 q 549 1513 557 1504 l 524 1531 l 497 1543 q 394 1563 456 1563 q 290 1543 332 1563 q 214 1467 239 1513 l 207 1446 q 189 1425 200 1425 q 179 1443 185 1432 l 193 1467 l 193 1497 q 169 1522 189 1506 q 138 1543 149 1539 q 106 1547 126 1547 q 77 1546 90 1547 q 61 1529 64 1544 q 69 1499 61 1514 l 82 1475 q 90 1442 90 1454 l 83 1410 l 74 1358 l 71 1307 l 72 1261 l 72 1244 q 82 1178 72 1226 l 86 1157 l 108 1092 l 146 1043 l 179 1006 l 200 1006 q 197 1036 200 1022 l 197 1060 l 201 1146 l 207 1197 l 208 1217 l 228 1271 q 254 1318 236 1294 l 272 1350 l 283 1365 l 297 1381 q 325 1399 304 1389 l 360 1414 l 383 1418 q 400 1415 394 1418 l 415 1411 q 488 1353 471 1396 q 504 1246 496 1333 l 514 1151 l 519 1067 q 483 897 525 974 q 465 872 479 886 l 440 846 l 438 833 q 451 803 438 819 l 490 757 q 504 706 500 733 l 508 642 l 504 561 l 499 396 q 476 274 496 319 l 467 257 l 451 238 q 428 219 442 225 l 400 215 l 361 219 q 332 219 335 222 q 326 203 328 215 q 342 163 326 186 l 365 135 l 419 99 l 442 94 q 485 104 464 94 l 517 119 l 538 135 q 567 192 550 147 l 589 250 q 601 274 596 268 l 615 288 q 674 319 646 318 q 740 260 694 321 l 754 236 l 768 211 l 804 150 q 858 103 821 121 q 903 92 881 92 q 936 100 924 92 l 963 117 l 983 135 l 1011 179 q 1019 206 1019 190 q 1011 243 1019 222 q 993 244 1004 244 l 965 242 l 919 236 q 852 270 871 242 q 825 368 833 299 l 822 526 q 851 742 819 676 l 864 760 l 888 792 q 892 811 892 797 q 879 857 892 832 l 851 889 q 832 957 840 901 l 826 1078 l 826 1143 l 828 1203 l 832 1294 l 839 1328 q 856 1368 844 1356 q 919 1411 867 1381 l 942 1415 l 969 1410 l 1000 1401 q 1031 1379 1011 1400 l 1058 1350 q 1076 1322 1065 1343 l 1085 1303 q 1108 1222 1097 1274 q 1119 1124 1119 1171 q 1115 1083 1119 1100 l 1106 1046 l 1089 990 l 1122 990 q 1167 1019 1139 994 q 1204 1063 1179 1031 l 1222 1092 q 1238 1135 1231 1104 l 1249 1181 l 1256 1229 l 1258 1299 l 1257 1368 q 1247 1419 1257 1392 l 1244 1438 l 1247 1468 l 1251 1501 l 1253 1521 q 1211 1567 1256 1567 m 643 296 l 624 281 l 608 268 q 600 225 597 253 l 603 190 l 608 164 l 629 135 q 657 128 638 129 q 700 135 683 128 q 706 140 703 138 q 710 143 710 143 l 721 165 q 728 203 726 178 q 707 274 729 243 l 675 296 l 643 296 m 656 1549 l 639 1538 q 624 1471 624 1514 q 663 1374 624 1397 l 685 1368 q 703 1372 696 1368 q 722 1397 711 1376 l 731 1417 q 735 1451 735 1426 q 678 1554 735 1554 q 656 1549 664 1554 m 660 663 l 704 363 q 653 353 690 353 q 617 369 617 353 l 629 463 q 660 663 643 564 m 665 967 l 621 1267 q 672 1276 635 1276 q 708 1260 708 1276 l 696 1167 q 665 967 682 1065 m 613 824 q 631 782 613 800 q 672 764 649 764 q 714 782 696 764 q 732 824 732 800 q 714 865 732 847 q 672 883 696 883 q 631 865 649 883 q 613 824 613 847 z "},"U":{"ha":1419,"x_min":10,"x_max":1379,"o":"m 1047 1575 q 1082 1554 1072 1575 q 1118 1519 1094 1525 q 1147 1531 1128 1519 l 1199 1560 q 1214 1561 1203 1561 q 1243 1553 1229 1561 l 1310 1499 q 1338 1471 1322 1489 l 1349 1436 l 1363 1389 l 1371 1338 l 1375 1319 l 1379 1314 l 1367 1321 l 1344 1329 l 1317 1343 l 1290 1360 l 1258 1367 q 1240 1360 1250 1367 l 1222 1332 l 1211 1278 l 1207 1221 l 1200 1146 l 1197 1061 q 1222 869 1193 938 q 1268 818 1225 858 l 1297 790 l 1297 768 q 1292 758 1297 760 l 1286 753 q 1269 735 1275 742 q 1221 628 1240 697 q 1214 479 1214 538 q 1199 299 1214 347 l 1189 268 l 1174 239 l 1158 211 l 1139 181 q 1099 128 1117 146 l 1047 86 l 1010 60 q 940 25 985 43 q 797 0 876 0 l 750 0 l 713 -1 q 683 0 694 -3 l 614 6 q 533 24 558 10 l 479 53 l 424 86 l 390 117 q 286 235 333 157 l 275 250 q 226 381 239 275 l 207 539 l 207 699 l 193 706 l 143 765 q 118 810 118 794 q 154 863 118 831 l 207 924 l 207 1019 q 197 1176 207 1081 q 186 1257 192 1235 q 147 1324 172 1319 q 117 1303 136 1324 l 82 1254 q 44 1272 65 1243 l 22 1317 q 10 1393 10 1342 q 38 1522 10 1468 q 121 1575 67 1575 l 246 1513 q 275 1542 257 1514 q 304 1574 293 1569 l 322 1578 q 385 1546 354 1578 l 431 1499 l 456 1499 q 471 1521 463 1503 l 482 1544 q 553 1578 514 1578 q 686 1504 613 1578 q 704 1451 693 1497 q 719 1411 711 1426 q 744 1342 744 1369 l 744 1319 l 739 1300 l 732 1269 l 700 1300 l 678 1332 l 657 1338 l 628 1340 l 610 1336 q 599 1308 606 1335 l 594 1225 q 589 1122 589 1193 l 589 1069 l 593 1011 l 599 953 q 646 833 599 888 l 683 790 l 694 768 l 690 761 q 665 738 669 746 l 642 708 l 621 678 q 608 589 607 639 l 610 529 l 621 447 l 646 360 l 683 314 q 732 283 706 296 q 768 276 747 278 q 810 282 792 276 l 850 299 q 961 579 961 344 l 961 601 q 958 643 961 614 l 953 701 q 890 778 953 722 q 863 819 865 800 q 903 869 863 842 l 953 932 q 960 1014 958 944 l 963 1189 q 959 1249 963 1235 q 933 1296 956 1263 q 901 1332 914 1324 l 882 1338 q 869 1332 874 1338 l 844 1300 l 839 1271 q 822 1246 835 1246 l 810 1254 l 790 1308 l 778 1332 q 757 1390 757 1353 q 801 1490 757 1442 q 894 1539 844 1539 q 915 1536 907 1539 l 946 1517 q 964 1513 958 1511 q 983 1551 974 1539 q 1024 1589 1004 1589 q 1047 1575 1033 1589 m 1021 1567 q 969 1499 969 1533 l 982 1493 q 990 1441 990 1475 q 1008 1381 990 1407 l 1060 1381 q 1078 1396 1065 1382 l 1089 1422 l 1093 1458 l 1089 1506 l 1079 1539 q 1054 1557 1075 1547 q 1021 1567 1033 1567 m 101 1551 q 15 1414 11 1467 l 17 1396 l 29 1381 l 49 1381 l 68 1403 q 101 1411 83 1411 q 158 1372 132 1411 q 193 1308 168 1358 q 210 1243 207 1279 l 215 1153 l 214 1103 l 214 988 q 219 965 217 979 l 232 958 q 203 896 240 939 q 167 839 167 853 q 190 801 167 826 q 221 764 217 772 l 228 725 l 231 669 l 231 653 q 228 622 228 625 l 228 607 q 225 589 228 600 l 225 482 l 226 469 q 231 433 228 453 q 244 346 238 374 l 257 314 l 271 283 l 293 254 l 344 196 q 425 136 369 160 l 489 119 l 551 101 q 658 93 597 89 l 711 97 l 768 100 q 814 110 794 101 l 854 118 l 915 136 q 946 147 931 138 l 975 165 l 1008 196 l 1029 218 l 1060 249 l 1082 281 l 1101 314 l 1125 372 q 1140 549 1140 410 q 1151 725 1140 679 q 1163 756 1156 744 l 1178 782 l 1189 799 l 1203 818 q 1210 839 1208 825 q 1188 883 1210 857 l 1153 917 q 1131 946 1139 926 l 1125 988 l 1125 1014 l 1126 1042 l 1125 1100 l 1125 1160 l 1129 1264 q 1153 1351 1131 1311 l 1161 1367 l 1179 1381 l 1217 1411 q 1235 1424 1228 1424 l 1258 1413 l 1281 1403 l 1299 1399 l 1310 1403 q 1319 1426 1317 1410 q 1287 1492 1319 1449 q 1233 1542 1254 1535 l 1215 1547 l 1207 1547 q 1156 1508 1174 1547 l 1119 1433 l 1096 1388 q 1033 1360 1082 1360 q 994 1374 1008 1360 l 969 1426 l 963 1450 l 958 1475 q 953 1490 958 1485 l 935 1507 q 889 1526 914 1526 q 807 1474 843 1526 q 771 1374 771 1422 l 785 1365 q 808 1371 799 1365 l 832 1382 l 846 1386 l 864 1381 l 914 1357 q 971 1224 967 1332 l 976 1067 l 975 1013 l 975 965 q 967 942 975 957 l 951 913 q 938 892 950 904 l 915 869 q 943 796 907 858 q 969 725 967 754 l 975 654 l 978 579 q 946 374 982 458 q 810 265 901 271 l 788 264 l 771 264 q 749 267 763 264 l 678 292 l 651 304 l 626 322 q 573 363 599 331 q 540 440 547 394 q 533 489 535 454 l 531 567 l 535 692 q 550 760 536 738 l 575 790 q 590 829 590 808 q 588 854 590 846 l 575 869 q 546 903 553 888 l 526 947 q 507 1011 517 968 l 501 1101 q 507 1215 499 1146 q 528 1317 513 1258 l 532 1342 l 532 1357 l 550 1381 q 593 1406 574 1406 q 624 1385 603 1406 q 665 1365 646 1365 q 685 1411 688 1365 l 683 1440 l 678 1465 q 634 1528 665 1504 q 569 1553 603 1553 q 443 1449 486 1553 l 418 1388 q 399 1353 407 1361 l 357 1332 l 344 1328 l 331 1326 l 313 1331 l 294 1343 l 275 1360 q 242 1435 256 1372 q 218 1507 228 1499 q 160 1538 197 1524 q 101 1551 124 1551 m 292 1551 l 271 1488 q 260 1429 260 1453 q 271 1384 260 1401 q 306 1351 282 1367 l 357 1351 l 376 1374 q 392 1446 392 1401 q 376 1521 392 1490 q 292 1551 361 1551 m 304 832 q 322 790 304 808 q 364 772 340 772 q 406 790 388 772 q 424 832 424 808 q 406 874 424 856 q 364 892 388 892 q 322 874 340 892 q 304 832 304 856 m 353 958 l 308 1258 q 360 1268 322 1268 q 396 1251 396 1268 l 383 1158 q 353 958 369 1057 m 372 696 l 417 396 q 365 386 403 386 q 329 403 329 386 l 342 496 q 372 696 356 597 m 1010 846 q 1063 793 1010 797 q 1099 809 1083 793 q 1115 846 1115 825 q 1099 882 1115 865 q 1063 899 1083 899 q 1010 846 1017 899 z "},"V":{"ha":1472,"x_min":35,"x_max":1431,"o":"m 624 1579 q 604 1589 614 1589 q 568 1575 589 1589 l 540 1557 q 500 1531 526 1547 q 456 1524 468 1515 l 422 1557 q 388 1572 410 1564 q 360 1579 367 1579 q 318 1557 336 1579 l 304 1540 l 285 1524 l 258 1524 l 206 1557 q 131 1575 176 1575 q 43 1501 54 1575 l 38 1463 l 35 1424 q 44 1333 32 1390 l 50 1307 l 60 1278 l 76 1257 l 99 1253 q 110 1263 110 1256 l 107 1292 q 114 1315 110 1311 q 151 1347 132 1347 q 160 1346 156 1347 q 190 1324 172 1340 q 231 1285 196 1319 l 250 1222 l 286 1113 q 338 911 338 957 l 319 867 q 300 833 315 858 q 297 828 300 833 l 265 811 q 257 790 257 799 q 278 763 257 776 q 333 740 279 761 q 382 688 361 729 q 403 646 394 668 q 418 604 408 638 l 450 496 q 463 444 460 464 q 469 403 464 433 q 483 282 483 339 q 472 244 483 251 q 431 236 460 236 l 403 236 q 376 204 376 231 q 396 139 376 185 l 419 97 l 436 61 q 456 40 450 43 l 481 18 q 507 3 489 10 q 564 -17 553 -17 q 611 3 588 -14 l 651 32 l 672 32 l 693 17 q 718 3 708 6 l 749 -11 q 769 -17 758 -17 q 810 3 783 -17 l 849 32 l 868 24 l 907 3 q 986 -17 943 -17 q 1083 15 1040 -17 q 1125 113 1125 53 q 1108 179 1125 135 q 1078 232 1092 224 l 1047 228 l 1013 224 q 993 232 993 224 l 993 307 l 1006 385 l 1017 460 l 1031 518 l 1044 563 l 1058 611 l 1071 646 l 1083 663 l 1097 679 q 1160 714 1103 685 q 1192 751 1192 731 q 1175 794 1192 772 l 1158 825 q 1149 858 1150 844 l 1149 967 l 1175 1082 l 1229 1222 l 1263 1285 q 1300 1329 1286 1329 l 1347 1329 q 1372 1313 1357 1326 q 1400 1300 1388 1300 l 1431 1308 l 1426 1351 l 1418 1400 q 1383 1513 1406 1471 q 1306 1575 1350 1575 l 1283 1572 l 1250 1551 q 1217 1540 1226 1536 l 1168 1568 q 1122 1583 1142 1583 l 1101 1578 q 1069 1550 1094 1574 q 1038 1531 1050 1531 q 1011 1540 1032 1532 q 940 1564 975 1564 q 853 1523 888 1564 q 819 1422 819 1482 l 825 1378 l 840 1339 q 860 1322 853 1322 l 881 1329 l 908 1342 l 935 1346 q 960 1338 951 1346 l 981 1315 l 985 1282 q 926 1051 985 1183 l 910 1014 l 893 982 q 821 904 821 944 l 831 861 q 849 760 850 801 l 847 726 l 842 693 l 829 651 q 808 628 822 628 l 794 633 q 783 658 786 642 l 776 694 q 774 728 772 713 q 790 806 775 761 q 801 853 803 844 q 772 911 801 878 q 732 967 738 951 l 718 1001 l 704 1043 l 679 1168 l 672 1222 q 690 1315 672 1285 l 711 1319 l 731 1317 l 753 1300 q 775 1285 764 1289 l 803 1269 q 808 1286 808 1274 q 811 1297 810 1289 l 811 1349 l 808 1365 l 796 1406 l 782 1447 l 743 1493 q 719 1534 728 1524 q 685 1557 711 1544 l 654 1571 q 624 1579 640 1579 m 581 1564 q 658 1554 631 1564 q 725 1501 700 1539 l 736 1460 q 738 1417 747 1419 l 714 1413 l 696 1414 l 669 1417 q 631 1400 644 1417 l 589 1350 q 576 1308 575 1329 l 578 1281 q 589 1188 581 1219 l 606 1146 l 619 1089 l 631 1051 q 642 986 642 1014 q 685 943 647 968 l 697 926 l 719 906 q 738 882 733 893 l 738 858 l 711 794 l 699 753 l 704 729 l 711 710 l 726 646 l 738 628 l 747 588 l 761 524 l 775 471 l 789 463 q 810 524 810 463 q 851 669 824 564 q 875 811 882 785 l 854 849 q 836 882 843 863 l 835 899 q 861 947 832 925 l 907 982 q 971 1117 946 1029 q 996 1279 1000 1219 l 994 1297 l 993 1322 q 968 1402 990 1374 q 915 1431 946 1431 l 892 1426 l 868 1417 l 849 1414 q 836 1432 836 1417 q 868 1515 836 1481 q 949 1557 907 1557 q 981 1549 969 1557 q 1017 1486 1008 1528 q 1032 1379 1032 1435 q 1044 1367 1036 1371 l 1063 1361 l 1078 1357 l 1097 1356 l 1111 1357 l 1125 1361 l 1149 1369 q 1175 1400 1163 1378 q 1182 1418 1182 1413 l 1189 1447 l 1204 1489 q 1229 1524 1217 1511 q 1296 1554 1258 1554 q 1347 1540 1325 1554 l 1368 1524 q 1394 1465 1382 1504 q 1406 1403 1406 1426 q 1400 1378 1404 1390 q 1381 1376 1394 1372 l 1354 1385 q 1286 1406 1313 1406 q 1210 1338 1253 1406 l 1196 1315 q 1185 1292 1188 1303 l 1153 1217 l 1126 1139 l 1101 1061 q 1085 981 1085 1010 q 1104 899 1085 946 l 1118 850 l 1104 819 l 1069 789 l 1051 767 l 1035 750 l 1024 735 l 1006 686 l 1006 665 l 1000 633 q 947 456 963 532 l 928 357 q 919 292 919 315 l 919 260 l 926 231 l 947 217 l 967 200 l 986 196 l 1026 201 l 1044 200 l 1058 192 l 1051 144 q 1031 113 1038 119 q 988 89 1011 94 l 965 83 q 940 81 954 81 q 907 89 919 81 l 886 99 l 863 113 l 836 144 l 810 192 l 782 236 q 697 332 740 332 q 638 300 669 332 q 617 272 618 281 l 613 249 l 615 217 q 606 176 614 208 q 493 94 568 94 q 430 115 460 94 q 400 174 400 135 q 410 200 403 193 l 456 217 l 479 232 q 503 283 503 251 q 479 428 503 322 q 444 563 463 499 l 419 647 q 407 686 413 671 q 363 767 386 743 l 325 794 l 311 811 q 324 851 311 828 q 349 911 349 899 q 304 1101 349 935 q 244 1293 261 1260 l 213 1354 q 167 1400 206 1368 q 142 1410 157 1410 l 117 1406 l 94 1401 q 63 1433 71 1404 l 58 1447 l 57 1472 l 58 1493 l 63 1510 l 72 1532 q 143 1551 100 1551 q 211 1532 190 1551 l 257 1490 q 276 1461 272 1476 l 286 1440 l 304 1408 q 389 1321 342 1321 q 479 1425 449 1321 l 492 1467 l 507 1501 l 533 1532 l 556 1547 l 581 1564 m 338 1549 l 379 1539 q 410 1518 404 1533 q 424 1444 424 1490 q 410 1372 424 1404 q 375 1340 396 1340 q 325 1385 350 1340 l 311 1417 l 297 1461 l 297 1501 q 318 1540 303 1524 l 338 1549 m 1092 1549 l 1132 1549 l 1156 1524 l 1161 1499 q 1164 1465 1165 1482 l 1163 1438 l 1156 1418 l 1144 1400 l 1132 1385 l 1092 1369 q 1063 1376 1079 1369 q 1042 1425 1040 1393 l 1044 1469 l 1051 1489 l 1065 1518 l 1078 1531 q 1092 1549 1090 1540 m 474 1253 q 461 1263 468 1258 l 436 1246 l 401 1240 q 371 1222 371 1235 q 382 1190 372 1208 l 432 1093 l 478 1000 q 483 1039 483 1004 l 483 1085 q 474 1253 483 1188 m 567 696 l 550 708 q 540 696 547 707 q 569 479 557 621 l 593 394 l 649 408 q 683 436 683 417 l 679 456 q 583 649 596 614 l 567 696 m 458 840 q 476 882 458 864 q 518 900 494 900 q 560 882 542 900 q 578 840 578 864 q 560 799 578 817 q 518 781 542 781 q 476 799 494 781 q 458 840 458 817 m 672 276 q 699 286 682 286 q 744 240 724 286 q 761 171 761 200 q 753 132 761 150 q 738 97 747 104 q 717 90 729 90 l 696 94 q 647 213 647 131 q 657 268 647 238 l 672 276 m 919 889 q 972 942 926 942 q 1009 925 993 942 q 1025 889 1025 908 q 1009 852 1025 868 q 972 836 993 836 q 919 889 919 840 z "},"W":{"ha":2282,"x_min":-3,"x_max":2235,"o":"m 2218 1408 q 2138 1536 2179 1510 l 2111 1550 q 2085 1554 2101 1554 q 2039 1542 2065 1554 q 1975 1519 1992 1519 q 1929 1546 1951 1519 q 1889 1583 1903 1576 q 1878 1589 1886 1586 l 1860 1579 l 1836 1553 l 1817 1536 q 1790 1540 1808 1533 l 1767 1550 l 1722 1561 q 1682 1568 1694 1568 q 1606 1499 1626 1568 l 1590 1447 q 1585 1413 1585 1429 q 1604 1361 1585 1389 l 1636 1300 l 1649 1296 q 1673 1315 1658 1297 q 1696 1335 1688 1332 q 1715 1339 1704 1339 q 1760 1300 1754 1339 l 1763 1282 l 1763 1249 q 1739 1064 1763 1135 l 1725 1022 l 1700 951 q 1635 897 1693 940 q 1610 867 1610 879 q 1628 844 1611 853 l 1657 819 q 1665 793 1665 806 q 1668 771 1668 774 l 1668 751 l 1665 703 l 1657 669 q 1628 622 1651 646 q 1607 642 1611 631 l 1599 669 l 1586 768 q 1598 798 1586 775 q 1610 825 1610 821 q 1613 832 1611 829 q 1599 857 1610 846 q 1571 865 1586 863 l 1538 922 q 1521 958 1521 950 l 1489 1063 q 1471 1142 1482 1083 l 1460 1197 l 1456 1250 q 1464 1298 1453 1276 q 1500 1317 1475 1319 q 1550 1292 1528 1307 q 1558 1290 1556 1290 q 1564 1292 1563 1290 q 1576 1363 1576 1329 q 1547 1461 1576 1421 q 1476 1544 1504 1521 q 1406 1574 1442 1574 q 1308 1536 1365 1574 l 1288 1522 q 1256 1496 1258 1503 l 1199 1550 q 1133 1579 1160 1579 q 1096 1558 1108 1579 l 1065 1507 q 1032 1511 1058 1494 l 992 1536 q 897 1557 942 1557 q 779 1415 779 1557 q 810 1308 779 1353 l 831 1278 q 839 1270 832 1276 q 853 1258 846 1264 q 865 1250 860 1251 q 872 1264 869 1251 l 876 1285 q 900 1326 888 1313 q 936 1343 919 1343 q 967 1332 956 1340 l 986 1308 q 992 1268 992 1297 q 960 1093 992 1194 l 924 978 q 810 836 890 869 l 786 833 q 746 865 765 835 l 711 947 q 696 989 699 978 l 667 1083 q 649 1143 660 1108 l 644 1172 l 638 1208 l 633 1265 q 639 1296 632 1282 q 640 1300 639 1297 l 656 1301 q 690 1292 668 1300 l 729 1269 l 749 1261 q 760 1282 760 1261 l 756 1307 l 746 1357 q 726 1418 739 1394 l 678 1510 q 639 1536 671 1524 l 594 1554 q 558 1561 571 1561 q 496 1536 529 1561 l 461 1500 q 433 1486 443 1486 q 406 1506 417 1486 l 381 1536 q 349 1554 364 1549 q 321 1561 328 1561 q 278 1536 292 1561 q 229 1511 253 1511 q 200 1519 215 1511 l 168 1536 q 99 1557 128 1557 q 6 1447 38 1557 q -3 1369 -3 1418 q 6 1300 -3 1338 l 25 1260 q 40 1240 32 1246 q 68 1257 60 1233 l 78 1300 q 110 1329 83 1324 q 122 1332 113 1332 l 161 1304 q 193 1269 179 1290 l 236 1156 l 260 1081 l 290 997 q 294 942 296 981 l 293 910 l 288 886 l 276 857 l 264 828 q 226 767 226 774 q 253 758 229 758 l 292 753 q 332 733 303 750 q 368 708 361 715 q 436 518 407 615 l 471 400 q 481 365 472 399 q 482 349 482 363 q 489 286 489 310 q 482 242 489 263 q 418 219 461 219 l 389 253 q 375 257 379 264 q 363 217 363 240 q 378 149 363 194 q 400 97 394 103 q 453 24 436 42 q 503 -8 471 6 l 536 -17 l 563 -22 q 606 -8 579 -21 l 635 21 q 664 38 651 38 l 692 14 q 729 -8 718 -8 q 769 -18 750 -18 q 800 -8 789 -15 l 818 7 q 839 21 825 14 l 856 24 q 913 7 876 24 l 946 -8 l 972 -12 l 997 -15 q 1082 29 1044 -15 l 1108 67 q 1128 129 1128 103 q 1108 182 1128 153 l 1094 203 l 1081 228 q 1051 247 1071 244 l 1028 247 q 1004 296 1004 247 l 1014 364 l 1031 456 l 1064 590 l 1081 638 q 1169 704 1126 706 q 1218 661 1204 703 q 1268 489 1246 579 q 1300 289 1300 356 q 1296 250 1300 265 q 1268 218 1283 218 q 1238 235 1257 218 q 1186 257 1200 267 q 1171 225 1171 246 q 1201 135 1171 193 q 1243 67 1226 88 l 1275 38 l 1296 21 q 1361 0 1322 0 q 1418 21 1393 0 l 1457 53 q 1514 21 1483 60 q 1592 -8 1538 -8 l 1631 19 q 1663 53 1653 40 l 1731 4 q 1771 -8 1744 -1 l 1829 -8 q 1888 21 1871 6 q 1932 89 1910 40 l 1949 125 q 1956 153 1956 140 q 1939 197 1956 175 q 1860 236 1899 238 l 1829 235 q 1817 244 1818 238 l 1815 294 l 1818 364 l 1826 417 q 1844 524 1826 458 q 1882 631 1861 590 q 1971 722 1926 700 l 2029 738 q 2018 767 2038 749 l 1985 799 l 1969 826 l 1960 853 q 1951 885 1951 864 q 1960 942 1951 917 l 1972 1000 l 1983 1039 l 2060 1285 l 2089 1319 l 2107 1332 l 2147 1319 q 2171 1300 2163 1313 q 2213 1274 2197 1274 q 2235 1317 2235 1279 l 2229 1364 l 2218 1408 m 1896 1353 q 1822 1451 1822 1371 q 1849 1553 1822 1518 l 1868 1567 q 1944 1469 1944 1567 q 1932 1401 1944 1442 q 1896 1353 1917 1350 m 1206 1494 q 1217 1424 1217 1469 q 1206 1357 1217 1385 q 1175 1329 1196 1329 q 1131 1353 1151 1332 q 1107 1406 1115 1379 q 1099 1467 1099 1433 q 1111 1521 1099 1507 q 1132 1526 1115 1526 l 1164 1531 q 1189 1522 1181 1531 l 1206 1494 m 2171 1415 l 2040 1389 q 1960 1279 1982 1364 l 1926 1193 l 1889 1006 l 1879 969 l 1878 942 q 1894 899 1879 925 q 1914 853 1910 867 l 1918 821 q 1914 806 1918 813 l 1868 764 l 1843 738 q 1817 696 1821 708 l 1799 646 q 1768 528 1785 608 l 1749 436 l 1739 383 q 1733 358 1739 376 l 1733 324 l 1739 276 q 1758 235 1750 247 q 1824 211 1778 211 q 1875 193 1875 206 q 1836 106 1875 128 q 1760 88 1806 88 q 1694 106 1719 88 q 1648 165 1668 132 q 1621 219 1628 197 l 1597 271 q 1579 288 1590 282 q 1489 319 1517 319 q 1442 274 1446 319 l 1431 167 q 1376 106 1407 115 l 1339 94 q 1306 92 1319 92 q 1250 106 1276 92 l 1229 117 q 1211 135 1215 126 l 1196 165 q 1186 219 1182 194 l 1200 233 q 1226 225 1203 233 q 1250 215 1249 217 q 1286 204 1281 204 q 1315 311 1315 204 q 1278 511 1315 361 q 1218 708 1242 656 q 1143 772 1189 732 q 1135 779 1140 775 l 1133 797 l 1133 817 l 1135 844 l 1146 892 l 1150 925 q 1135 989 1150 949 l 1046 1225 q 1004 1324 1019 1296 l 986 1367 q 947 1387 976 1376 q 903 1397 917 1397 q 869 1389 882 1397 l 850 1376 l 818 1369 q 803 1418 803 1385 q 829 1507 803 1469 q 908 1550 860 1550 l 929 1547 l 946 1544 l 1018 1497 l 1043 1469 q 1050 1454 1047 1468 l 1058 1415 l 1089 1365 q 1128 1317 1113 1326 q 1161 1310 1138 1310 l 1199 1315 q 1224 1331 1221 1325 l 1244 1358 q 1263 1392 1261 1379 q 1278 1471 1263 1418 l 1289 1497 q 1400 1557 1339 1557 q 1450 1544 1425 1557 l 1476 1518 q 1500 1489 1497 1497 q 1510 1458 1510 1471 q 1478 1428 1510 1436 l 1431 1415 l 1385 1388 q 1361 1350 1361 1374 l 1367 1315 l 1379 1268 q 1436 1029 1383 1260 q 1463 935 1453 958 l 1481 919 q 1501 901 1494 911 l 1515 881 l 1528 857 q 1513 813 1528 849 q 1500 760 1499 778 l 1551 615 q 1588 506 1567 569 q 1610 449 1596 482 q 1640 558 1621 472 l 1657 631 q 1683 732 1669 675 l 1688 774 q 1649 881 1688 833 q 1718 955 1703 926 q 1760 1097 1733 983 q 1771 1165 1763 1114 l 1783 1236 q 1790 1290 1790 1258 q 1781 1340 1790 1313 l 1767 1379 q 1739 1415 1754 1404 q 1699 1428 1710 1428 q 1657 1415 1685 1428 l 1639 1411 q 1610 1456 1610 1417 q 1693 1549 1610 1549 q 1753 1531 1725 1549 q 1792 1482 1782 1514 l 1818 1397 q 1836 1369 1831 1375 q 1890 1338 1868 1338 q 1932 1361 1911 1339 l 1958 1389 q 1983 1422 1976 1408 q 2008 1478 1989 1435 q 2018 1497 2013 1486 q 2086 1546 2050 1546 l 2100 1544 q 2176 1431 2176 1468 l 2171 1415 m 372 1494 q 383 1424 383 1469 q 373 1357 383 1385 q 342 1329 363 1329 q 297 1353 318 1332 q 274 1406 282 1379 q 265 1467 265 1433 q 278 1521 265 1507 q 299 1526 282 1526 l 331 1531 q 356 1522 347 1531 l 372 1494 m 1089 776 l 1054 744 l 1039 729 q 983 578 1001 661 l 960 469 q 946 408 954 444 q 935 318 943 381 l 935 247 q 939 218 935 222 l 967 203 l 993 199 l 1022 201 l 1050 211 q 1054 189 1056 203 l 1050 138 q 1039 106 1044 111 q 992 75 1024 94 l 968 69 q 939 67 949 67 q 896 75 911 67 q 832 149 856 115 q 772 257 794 201 l 746 290 q 690 311 718 315 q 638 283 644 303 l 625 211 l 606 136 q 513 67 563 67 l 483 71 l 464 75 l 433 94 q 404 157 404 113 q 458 204 404 179 q 513 274 513 229 q 490 374 513 299 l 411 638 q 360 744 386 718 q 312 765 354 750 q 269 790 269 781 l 272 814 l 285 846 q 307 951 307 903 q 293 1039 307 1001 l 206 1278 q 176 1340 190 1321 q 128 1385 157 1368 q 92 1381 117 1389 l 56 1372 q 25 1415 25 1376 q 90 1538 25 1539 q 136 1531 108 1535 l 175 1514 l 203 1496 q 225 1478 215 1488 l 260 1392 q 350 1307 294 1307 q 439 1408 407 1307 q 490 1514 465 1493 l 535 1544 l 560 1546 q 596 1542 578 1547 l 647 1511 q 675 1478 668 1499 l 693 1438 l 699 1414 q 663 1396 697 1394 l 631 1397 l 606 1393 l 588 1385 q 538 1322 538 1354 l 547 1269 l 618 1011 l 639 957 l 658 913 q 689 876 669 892 l 729 844 l 729 799 q 714 718 714 751 l 718 681 l 731 626 l 751 556 q 781 486 757 538 l 799 447 q 810 432 801 439 q 825 478 813 432 l 850 574 q 875 704 875 669 q 850 819 875 760 q 869 863 850 843 l 903 889 q 960 1049 935 928 l 981 1149 l 989 1176 q 1024 1235 1007 1235 q 1039 1217 1033 1233 l 1083 1096 l 1089 1086 q 1094 1056 1094 1074 l 1089 1033 l 1071 1006 q 1064 956 1064 981 q 1072 881 1064 914 l 1089 814 l 1090 792 l 1090 785 l 1089 776 m 1793 932 q 1758 916 1775 932 q 1740 881 1740 900 q 1758 846 1740 860 q 1792 832 1775 832 q 1832 882 1832 832 q 1793 932 1832 932 m 1283 961 q 1265 1133 1265 1097 l 1258 1210 q 1225 1215 1253 1215 l 1181 1210 q 1167 1193 1163 1204 q 1244 1036 1217 1100 q 1283 961 1276 964 m 1321 918 q 1285 902 1303 918 q 1268 867 1268 886 q 1285 832 1268 846 q 1319 818 1303 818 q 1360 868 1360 818 q 1321 918 1360 918 m 1458 518 q 1382 669 1404 615 q 1351 731 1374 688 q 1342 750 1349 738 l 1368 501 q 1403 496 1374 496 l 1444 501 q 1458 518 1463 510 m 988 876 q 952 860 969 876 q 935 825 935 844 q 952 790 935 804 q 986 776 969 776 q 1026 826 1026 776 q 988 876 1026 876 m 458 982 q 445 1074 447 1046 q 439 1157 443 1103 l 432 1240 l 417 1250 q 403 1242 410 1250 l 393 1232 l 344 1211 q 342 1208 344 1211 q 336 1201 339 1204 q 368 1156 339 1189 q 458 982 451 982 m 501 876 q 466 860 483 876 q 449 825 449 844 q 466 790 449 804 q 500 776 483 776 q 540 826 540 776 q 501 876 540 876 m 639 504 q 563 656 585 601 q 532 717 554 674 q 522 736 529 724 l 549 488 q 583 482 554 482 l 625 488 q 639 504 643 496 m 688 278 q 737 257 715 278 q 764 207 758 236 q 765 174 765 194 q 757 126 765 150 l 747 99 q 732 74 740 79 l 674 74 l 649 104 q 639 163 639 122 l 644 224 q 661 263 650 250 l 688 278 m 1496 289 q 1558 265 1538 289 q 1585 193 1578 242 q 1579 146 1585 157 l 1572 118 q 1560 90 1567 97 l 1503 85 l 1474 113 q 1458 171 1463 140 l 1458 232 q 1469 271 1458 244 l 1496 289 z "},"X":{"ha":1536,"x_min":19,"x_max":1496,"o":"m 1117 1585 q 1093 1599 1103 1599 q 1063 1582 1081 1599 q 1014 1546 1024 1546 q 963 1560 996 1546 q 919 1574 929 1574 q 860 1538 889 1574 q 836 1488 844 1522 q 825 1424 825 1442 l 825 1403 q 854 1335 825 1343 l 875 1329 q 882 1333 879 1331 l 879 1347 q 886 1357 882 1354 q 919 1367 904 1367 q 950 1342 944 1367 l 950 1303 l 925 1249 l 879 1161 q 811 1092 843 1092 q 790 1104 797 1092 l 764 1151 l 728 1204 l 685 1261 l 682 1283 q 699 1319 682 1306 l 717 1324 l 738 1319 l 764 1293 q 783 1288 774 1288 l 797 1286 q 821 1307 821 1286 l 804 1372 l 785 1436 l 753 1490 l 728 1531 q 694 1551 719 1540 q 663 1567 679 1560 q 618 1578 646 1575 q 551 1553 583 1578 l 521 1529 q 486 1517 500 1517 l 468 1522 l 436 1553 q 378 1579 408 1579 q 333 1553 347 1579 l 321 1538 l 301 1522 l 275 1522 l 256 1535 q 225 1553 243 1543 l 178 1567 q 142 1572 165 1572 q 93 1554 114 1572 q 61 1491 72 1536 q 44 1440 50 1446 l 39 1410 q 49 1358 40 1396 l 64 1319 l 76 1272 l 97 1257 q 117 1247 107 1247 q 128 1276 126 1247 q 133 1319 129 1313 l 157 1346 q 179 1350 167 1351 l 219 1321 q 251 1288 242 1304 l 488 854 l 488 788 l 436 675 l 372 582 l 314 483 l 264 401 q 200 322 243 368 q 129 272 157 276 l 100 276 q 44 288 58 288 q 21 274 25 288 q 19 242 19 268 q 31 139 19 207 q 56 43 43 60 q 76 28 63 36 l 103 19 q 150 6 131 6 q 178 15 165 7 q 225 35 207 35 q 264 22 240 35 q 326 0 308 -1 l 350 1 q 393 42 360 6 q 418 57 407 57 l 436 50 l 476 15 q 539 -7 511 -7 q 597 19 572 -7 l 618 47 q 636 89 625 57 l 653 138 q 663 188 667 178 q 628 233 643 222 l 583 257 l 563 260 l 544 257 q 511 246 529 246 q 494 257 499 249 l 499 278 l 508 324 l 610 492 l 621 519 q 636 538 631 536 l 681 546 q 699 517 689 539 l 713 483 l 769 383 q 797 268 797 335 l 797 257 l 796 238 q 790 217 794 231 l 778 215 q 729 231 749 218 l 686 257 l 681 272 q 668 225 668 243 q 676 185 668 204 l 692 149 l 715 99 q 744 58 725 78 q 871 -7 824 -7 q 939 19 911 -7 l 988 65 l 1028 50 l 1047 33 q 1068 18 1053 25 l 1096 4 q 1126 0 1108 0 q 1156 8 1146 3 l 1183 42 q 1211 61 1200 61 q 1238 50 1222 60 l 1285 21 q 1346 4 1326 4 q 1408 22 1374 4 q 1458 61 1443 40 q 1485 128 1474 82 l 1492 158 l 1496 186 q 1483 226 1496 203 l 1463 267 q 1432 300 1453 285 l 1419 315 q 1375 351 1383 351 q 1367 333 1368 349 l 1360 306 l 1353 290 q 1343 285 1350 288 l 1297 285 q 1260 324 1283 292 l 1226 378 q 1151 513 1203 428 l 1006 760 l 993 789 q 988 832 988 801 q 994 871 990 861 l 1063 989 l 1097 1061 q 1196 1215 1139 1124 l 1226 1272 l 1263 1319 q 1304 1357 1286 1351 l 1324 1357 l 1346 1342 q 1363 1319 1357 1331 l 1378 1288 q 1393 1281 1385 1281 l 1425 1288 q 1435 1326 1435 1297 q 1418 1431 1435 1376 l 1406 1471 l 1386 1522 q 1333 1570 1372 1549 q 1264 1592 1294 1592 q 1229 1576 1247 1589 l 1208 1561 l 1163 1561 l 1132 1581 l 1117 1585 m 1264 1576 q 1322 1556 1286 1576 q 1361 1517 1357 1535 l 1371 1476 q 1378 1425 1378 1421 q 1374 1410 1378 1421 l 1350 1410 q 1290 1426 1303 1426 q 1238 1410 1271 1426 l 1206 1383 l 1182 1350 l 1085 1197 l 968 1006 q 950 983 956 983 q 875 993 901 983 q 825 1044 824 1011 q 840 1085 825 1061 q 918 1203 882 1138 q 974 1363 974 1304 q 947 1424 974 1406 q 885 1442 919 1442 l 876 1442 q 867 1440 871 1442 l 840 1432 l 836 1443 q 847 1482 839 1464 q 869 1524 863 1515 q 907 1547 881 1538 q 943 1556 929 1556 q 982 1538 969 1556 l 1001 1508 l 1014 1456 l 1021 1417 q 1097 1367 1050 1367 l 1117 1372 l 1129 1383 q 1164 1415 1146 1397 q 1175 1447 1169 1421 l 1188 1507 q 1202 1539 1192 1528 q 1226 1556 1213 1550 q 1264 1576 1258 1568 m 1067 1569 q 1094 1575 1076 1575 l 1117 1569 l 1136 1546 l 1140 1532 q 1143 1506 1143 1522 q 1135 1451 1143 1475 l 1117 1401 q 1086 1385 1104 1385 q 1046 1408 1057 1385 q 1039 1474 1039 1426 l 1039 1496 q 1047 1527 1040 1503 q 1067 1569 1053 1551 m 590 1561 l 614 1561 q 626 1560 622 1561 q 713 1531 683 1560 l 732 1501 q 743 1467 739 1490 q 749 1432 749 1449 l 743 1417 l 729 1413 l 710 1415 l 690 1417 l 665 1413 q 643 1401 657 1411 q 593 1335 592 1367 q 603 1288 593 1321 l 688 1149 q 750 1050 722 1092 l 758 1038 l 771 1022 l 804 992 q 859 978 810 985 q 913 961 908 972 l 913 917 l 900 889 l 886 853 l 882 835 q 899 796 882 825 l 913 765 l 926 726 l 950 696 l 1211 285 l 1232 264 l 1271 240 q 1313 229 1296 229 q 1350 242 1332 229 l 1368 264 l 1379 267 q 1394 239 1394 264 q 1386 192 1394 219 q 1361 136 1372 144 q 1294 117 1335 117 q 1226 136 1254 117 l 1085 285 l 1046 311 q 1018 325 1025 325 q 963 271 992 325 l 951 222 l 939 182 q 913 136 919 142 l 893 118 l 872 103 q 853 94 861 94 l 828 93 q 783 104 804 92 l 744 128 q 713 162 725 144 q 699 203 701 179 l 699 218 q 746 211 728 221 l 776 201 q 811 236 796 204 q 825 292 825 264 l 819 322 l 792 375 l 765 422 l 738 468 l 639 647 q 567 700 614 694 l 533 710 q 506 746 511 724 q 500 810 504 751 l 496 865 q 482 908 494 892 q 308 1214 415 1019 l 269 1294 q 225 1369 240 1354 q 186 1401 215 1382 l 160 1425 l 135 1425 l 107 1422 q 83 1433 89 1424 q 78 1469 78 1443 l 83 1508 l 97 1531 q 165 1549 119 1549 q 232 1531 210 1549 l 269 1486 l 301 1440 q 413 1325 365 1325 q 494 1425 469 1333 l 506 1465 q 521 1501 511 1485 l 532 1514 l 544 1531 l 568 1549 l 590 1561 m 353 1546 q 422 1517 411 1546 q 438 1435 438 1478 q 396 1353 438 1353 q 353 1372 376 1356 l 340 1386 l 314 1464 l 314 1501 l 333 1532 q 353 1546 338 1539 m 488 1257 q 472 1267 481 1264 q 449 1250 460 1267 q 439 1218 439 1233 q 461 1176 439 1199 l 501 1143 l 571 1061 l 597 1046 l 583 1069 l 533 1197 l 513 1232 q 488 1257 501 1250 m 456 675 l 511 674 l 557 667 l 571 667 l 571 604 l 551 574 l 515 507 l 488 460 q 461 417 478 446 q 447 392 460 414 l 436 371 q 414 294 414 329 l 419 261 q 436 233 424 250 q 489 213 460 213 q 544 233 522 213 q 571 218 563 235 l 574 203 q 552 144 574 174 q 501 104 531 115 l 456 104 l 428 129 l 404 156 l 385 211 q 367 239 381 219 q 353 257 363 246 l 338 274 q 307 285 331 285 q 292 286 304 286 q 264 281 274 286 l 246 261 l 232 247 l 192 188 l 179 164 l 161 153 q 138 140 153 147 l 117 136 q 72 150 90 136 q 39 219 39 176 l 44 249 l 68 251 l 97 251 l 129 254 l 157 263 l 181 274 l 199 292 l 228 329 l 276 399 q 331 482 294 424 l 379 568 l 407 608 q 456 675 439 654 m 826 636 l 815 647 q 810 628 810 646 q 828 585 811 615 q 847 550 842 569 l 853 531 l 860 514 l 906 386 q 922 379 913 379 q 952 393 936 379 q 968 422 968 407 q 950 460 968 440 l 919 492 l 893 531 l 826 636 m 1014 308 q 1063 289 1039 308 l 1094 250 l 1103 242 q 1114 214 1113 228 l 1118 178 l 1114 147 q 1075 119 1106 119 q 1021 136 1042 119 l 994 164 q 978 219 978 193 q 1014 308 978 265 m 658 819 q 676 861 658 843 q 718 879 694 879 q 760 861 742 879 q 778 819 778 843 q 760 778 778 796 q 718 760 742 760 q 676 778 694 760 q 658 819 658 796 m 290 264 q 344 221 329 256 q 353 182 353 203 q 332 104 353 133 l 318 78 q 299 56 310 63 l 242 65 l 222 100 q 219 113 221 100 l 219 126 q 222 160 219 126 l 239 218 q 261 254 244 238 l 290 264 z "},"Y":{"ha":1472,"x_min":14,"x_max":1431,"o":"m 614 1588 l 632 1588 l 638 1586 l 676 1563 l 704 1544 l 731 1503 q 765 1447 746 1481 l 792 1346 l 797 1310 q 785 1286 797 1286 q 763 1296 775 1286 l 742 1313 q 717 1326 732 1322 l 681 1326 q 676 1321 678 1324 q 672 1307 675 1318 l 669 1269 q 674 1240 668 1251 q 694 1218 683 1238 l 731 1157 l 757 1110 q 778 1088 761 1104 q 806 1076 792 1078 l 817 1081 q 858 1153 832 1093 l 894 1233 l 921 1303 l 921 1318 q 879 1353 908 1356 l 861 1351 q 838 1336 849 1349 q 828 1326 828 1324 q 811 1354 815 1328 l 807 1447 l 804 1468 l 804 1486 q 872 1593 804 1593 q 964 1557 913 1593 q 989 1549 976 1549 q 1022 1572 999 1549 q 1064 1596 1046 1594 q 1101 1585 1083 1596 l 1161 1549 l 1176 1546 q 1229 1571 1186 1546 q 1271 1585 1253 1585 q 1301 1578 1279 1585 q 1344 1557 1324 1572 q 1381 1517 1364 1542 l 1407 1465 q 1425 1417 1419 1442 l 1431 1367 l 1431 1350 l 1428 1318 l 1428 1303 l 1424 1272 q 1407 1264 1422 1261 l 1388 1294 l 1350 1350 q 1317 1364 1338 1363 l 1289 1360 l 1265 1350 q 1242 1328 1251 1344 q 1226 1303 1236 1318 l 1211 1276 l 1174 1226 l 1147 1183 l 1119 1129 l 1097 1088 l 1071 1042 l 1017 935 l 990 888 q 979 833 979 861 q 1004 757 979 790 l 1017 740 q 1031 719 1029 728 q 1001 707 1031 711 l 965 701 q 950 692 961 700 l 940 681 q 921 578 921 658 q 914 488 921 507 l 914 440 l 926 342 q 971 275 935 275 l 985 278 l 1004 293 q 1031 315 1021 314 q 1057 286 1038 315 l 1071 265 l 1096 233 q 1114 178 1114 215 l 1114 163 q 1108 136 1113 151 l 1096 88 q 1064 24 1083 38 l 1004 0 l 971 -4 l 947 0 l 913 4 q 881 25 901 6 l 847 56 l 828 56 l 810 32 q 757 -8 785 -8 q 717 0 744 -8 q 675 17 701 0 q 632 36 649 35 q 600 25 618 36 q 549 0 578 7 l 525 -10 l 504 0 q 431 25 453 3 l 400 56 q 365 110 374 76 l 347 179 l 329 222 l 322 260 q 340 293 322 283 q 351 288 344 292 q 383 268 364 281 q 450 242 425 242 q 503 283 481 242 q 517 357 510 301 l 521 474 l 517 596 q 504 672 515 644 l 483 688 l 464 701 l 425 714 q 396 736 396 724 q 401 757 396 747 l 424 788 l 450 818 l 454 840 l 450 871 l 224 1294 l 192 1329 q 150 1358 174 1346 q 129 1347 142 1358 l 107 1326 q 97 1300 100 1319 l 99 1282 q 101 1265 100 1271 q 93 1256 101 1258 l 67 1264 l 50 1283 l 29 1311 l 21 1335 q 14 1376 15 1349 l 18 1422 q 33 1472 25 1451 l 38 1492 l 36 1519 q 47 1549 35 1533 q 122 1586 78 1586 q 197 1564 158 1586 l 250 1533 l 275 1533 l 307 1564 q 328 1582 317 1576 l 351 1588 q 378 1582 367 1588 l 413 1564 l 431 1547 l 446 1532 l 458 1529 q 499 1543 478 1529 l 531 1564 l 556 1585 q 592 1599 578 1599 q 614 1588 603 1599 m 867 1581 q 810 1475 810 1533 q 822 1433 810 1454 l 847 1433 l 864 1443 l 876 1449 q 911 1435 888 1447 q 931 1418 929 1425 l 940 1394 q 953 1353 953 1364 q 950 1332 953 1340 l 940 1303 q 881 1168 924 1253 q 810 1042 861 1129 l 790 1008 q 769 986 779 989 q 757 999 763 992 q 724 1042 747 1011 l 711 1057 l 686 1101 l 660 1140 l 647 1163 q 607 1233 633 1193 q 592 1257 597 1239 l 581 1294 q 569 1339 576 1310 q 592 1379 569 1354 l 621 1411 q 640 1422 626 1418 l 671 1426 l 706 1425 l 724 1425 q 731 1447 729 1431 q 722 1481 731 1458 l 710 1514 q 690 1540 708 1521 q 646 1564 681 1554 q 585 1574 607 1575 l 564 1572 q 544 1560 557 1572 l 524 1540 l 511 1529 l 497 1511 q 482 1475 488 1496 q 471 1433 479 1463 q 438 1364 453 1383 q 388 1332 417 1332 q 326 1364 358 1332 l 315 1375 l 307 1386 q 275 1449 303 1397 l 265 1467 l 243 1496 l 204 1540 q 133 1560 176 1560 q 67 1540 90 1560 l 54 1517 q 50 1485 50 1504 q 53 1438 50 1447 q 85 1419 60 1418 l 121 1422 q 157 1410 140 1424 q 204 1364 189 1383 l 236 1303 l 251 1268 l 299 1174 l 417 963 q 431 939 421 958 l 444 911 q 461 863 458 883 l 467 817 l 465 785 l 465 767 q 482 746 468 757 l 510 725 l 524 710 q 540 663 535 701 l 546 579 l 546 546 q 522 326 546 424 l 513 286 q 483 242 511 278 q 444 218 465 218 q 401 229 426 218 l 374 242 l 367 242 q 361 222 364 239 q 372 176 361 199 l 393 135 q 413 119 399 125 l 431 111 q 478 100 446 100 q 538 111 519 100 l 567 135 q 579 144 571 136 l 588 156 l 607 194 l 614 222 q 633 265 618 249 l 660 293 q 693 315 674 315 q 718 307 703 315 l 744 293 q 785 253 767 281 l 810 194 l 835 126 q 865 101 840 111 q 922 90 889 90 q 996 110 981 90 l 1011 129 l 1024 156 q 1038 233 1038 185 q 1031 272 1038 261 l 1004 272 l 983 260 l 964 242 q 940 228 951 231 l 926 231 l 900 242 q 867 272 886 243 l 847 293 q 835 317 842 300 l 826 382 l 824 503 q 825 560 824 524 q 826 618 826 601 q 849 711 826 689 l 867 725 l 894 757 q 907 792 907 771 l 899 822 q 890 856 890 843 q 896 882 890 868 l 908 913 l 921 935 l 947 979 l 971 1026 l 979 1049 q 1050 1188 993 1086 q 1086 1246 1060 1204 l 1128 1303 l 1164 1356 l 1181 1372 l 1204 1406 q 1235 1432 1214 1419 l 1256 1444 l 1258 1450 l 1274 1442 l 1293 1433 l 1333 1424 l 1369 1418 l 1369 1433 l 1363 1489 q 1283 1567 1346 1567 q 1200 1533 1242 1567 l 1174 1517 l 1174 1489 l 1147 1442 l 1136 1428 l 1122 1411 l 1106 1394 l 1089 1379 q 1061 1369 1081 1372 q 1029 1378 1049 1369 l 1001 1396 q 978 1447 981 1414 l 971 1517 l 953 1549 l 933 1564 q 867 1581 913 1581 m 1044 1572 l 1036 1554 l 1038 1564 q 1003 1458 1003 1549 q 1044 1382 1003 1382 q 1096 1422 1074 1382 q 1118 1507 1118 1463 q 1107 1549 1118 1533 q 1088 1567 1101 1561 l 1044 1572 m 464 1264 q 479 1221 469 1246 l 557 1071 q 594 1010 571 1042 q 586 1000 596 1001 q 567 1018 579 1000 q 551 1040 565 1022 l 458 1157 l 400 1240 l 424 1256 l 435 1265 q 449 1274 442 1271 q 464 1264 457 1271 m 331 1546 l 317 1535 l 311 1494 q 369 1372 311 1403 l 385 1369 q 411 1381 400 1369 l 421 1394 l 429 1413 l 432 1439 q 426 1486 432 1465 q 406 1532 421 1507 q 364 1557 392 1557 q 331 1546 349 1557 m 669 267 l 654 257 q 638 186 640 236 q 658 106 635 139 q 707 75 681 72 q 736 96 722 75 q 756 167 756 122 l 756 183 q 753 204 756 194 l 743 240 q 694 272 728 272 q 669 267 678 272 m 681 663 l 725 363 q 674 353 711 353 q 638 369 638 353 l 650 463 q 681 663 664 564 m 644 819 q 663 778 644 796 q 704 760 681 760 q 746 778 728 760 q 764 819 764 796 q 746 861 764 843 q 704 879 728 879 q 663 861 681 879 q 644 819 644 843 z "}}}
